<?xml version="1.0" standalone="no"?>
<!DOCTYPE svg PUBLIC "-//W3C//DTD SVG 1.1//EN" "http://www.w3.org/Graphics/SVG/1.1/DTD/svg11.dtd" >
<svg xmlns="http://www.w3.org/2000/svg" xmlns:xlink="http://www.w3.org/1999/xlink" version="1.1">
<metadata>
Created by FontForge 20190801 at Thu Jan  9 11:36:51 2020
 By Unknown
Copyright (c) 2016, Ek Type. All rights reserved.
</metadata>
<defs>
<font id="Gotu-Regular" horiz-adv-x="316" >
  <font-face 
    font-family="Gotu"
    font-weight="400"
    font-stretch="normal"
    units-per-em="1000"
    panose-1="0 0 0 0 0 0 0 0 0 0"
    ascent="800"
    descent="-200"
    x-height="522"
    cap-height="721"
    bbox="-595 -543 2709 1124"
    underline-thickness="50"
    underline-position="-100"
    unicode-range="U+000D-FB04"
  />
<missing-glyph horiz-adv-x="813" 
d="M118 -7q-5 3 -8 8v672q8 14 26 29.5t32 18.5h527q6 -2 8 -8v-672q-8 -14 -26 -28.5t-32 -19.5h-527zM213 678q45 -73 96.5 -145t105.5 -141q54 68 102.5 139.5t90.5 146.5h-395zM606 36q-45 72 -95 143.5t-107 140.5q-51 -66 -98.5 -139t-91.5 -145h392zM371 351
q-52 66 -102 134t-95 139v-562q40 70 90 144t107 145zM448 362q55 -66 102 -130t89 -127v534q-39 -69 -88 -139t-103 -138z" />
    <glyph glyph-name="fi" unicode="fi" horiz-adv-x="601" 
d="M24 481q9 11 26.5 20.5t37.5 9.5h26v28q0 49 17 92t48.5 75t74.5 51t96 19q48 0 78 -11.5t47.5 -28t24 -33.5t7.5 -28q-8 -15 -30 -27t-44 -13q-3 18 -10 36t-20.5 31.5t-35 22t-52.5 8.5q-24 0 -46.5 -8.5t-39 -25t-26.5 -41.5t-10 -58v-89h248q15 6 32 8.5t34 2.5v-514
q-14 -8 -36.5 -11.5t-42.5 -3.5v478h-235v-463q-14 -8 -36.5 -11.5t-42.5 -3.5v478h-90v10z" />
    <glyph glyph-name="fl" unicode="fl" horiz-adv-x="626" 
d="M452 629q-2 19 -10.5 38t-23.5 33.5t-37 23.5t-53 9q-27 0 -51.5 -8.5t-43 -25t-30 -41.5t-11.5 -58v-89h182q-1 -17 -11.5 -28.5t-22.5 -11.5h-148v-463q-14 -8 -36.5 -11.5t-42.5 -3.5v478h-89v10q8 11 26 20.5t37 9.5h26v28q0 46 17.5 89t49 76t75.5 52.5t96 19.5
q35 0 60 -7t43 -18q17 10 36.5 15.5t40.5 5.5v-764q-14 -8 -36.5 -11.5t-42.5 -3.5v636z" />
    <glyph glyph-name="f_h" unicode="fh" horiz-adv-x="995" 
d="M452 629q-2 19 -10.5 38t-23.5 33.5t-37 23.5t-53 9q-27 0 -51.5 -8.5t-43 -25t-30 -41.5t-11.5 -58v-89h182q-1 -17 -11.5 -28.5t-22.5 -11.5h-148v-463q-14 -8 -36.5 -11.5t-42.5 -3.5v478h-89v10q8 11 26 20.5t37 9.5h26v28q0 46 17.5 89t49 76t75.5 52.5t96 19.5
q34 0 59 -6.5t43 -17.5q16 8 36.5 14t41.5 6v-342q14 17 34 35t45 33t54.5 24.5t63.5 9.5q81 0 128.5 -49t47.5 -140v-335q-14 -8 -36.5 -11.5t-42.5 -3.5v319q0 85 -35 124.5t-99 39.5q-23 0 -46 -8.5t-43.5 -23t-38.5 -33t-32 -39.5v-364q-14 -8 -36.5 -11.5t-42.5 -3.5
v636z" />
    <glyph glyph-name="f_k" unicode="fk" horiz-adv-x="927" 
d="M452 629q-2 19 -10.5 38t-23.5 33.5t-37 23.5t-53 9q-27 0 -51.5 -8.5t-43 -25t-30 -41.5t-11.5 -58v-89h182q-1 -17 -11.5 -28.5t-22.5 -11.5h-148v-463q-14 -8 -36.5 -11.5t-42.5 -3.5v478h-89v10q8 11 26 20.5t37 9.5h26v28q0 46 17.5 89t49 76t75.5 52.5t96 19.5
q35 0 60 -7t43 -18q16 10 36.5 15.5t40.5 5.5v-494q30 18 61.5 43t63 55t62.5 64.5t59 70.5q10 6 27 9t34 3t28 -3q-20 -27 -49 -57t-60.5 -58.5t-63.5 -54.5t-59 -45q26 -5 44.5 -25t42.5 -52l83 -111q17 -23 30 -39.5t24 -29t20 -21.5t19 -16v-5q-13 -7 -38 -10t-41 -3
q-13 5 -29.5 22.5t-44.5 55.5l-85 117q-14 19 -24.5 33t-20 22t-19 12t-21.5 4t-23 -4.5t-20 -10.5v-236q-14 -8 -36.5 -11.5t-42.5 -3.5v636z" />
    <glyph glyph-name="f_f_j" unicode="ffj" horiz-adv-x="937" 
d="M24 481q9 11 26.5 20.5t37.5 9.5h26v41q0 51 18 91.5t47 69.5t66 44.5t75 15.5q36 0 60 -9.5t38 -23t20 -28.5t7 -25q-7 -12 -24.5 -21.5t-37.5 -11.5q-2 12 -7 25.5t-15 25.5t-26.5 20t-40.5 8q-18 0 -36.5 -6t-32.5 -20t-23 -37t-9 -56v-103h253v28q0 49 17.5 92t49 75
t76 51t97.5 19q47 0 77 -12t48 -28t25 -33.5t7 -27.5q-8 -15 -30 -27t-44 -13q-3 18 -10 36t-20.5 31.5t-35 22t-52.5 8.5q-25 0 -48 -8.5t-40 -25t-27.5 -41.5t-10.5 -58v-89h252q15 6 32 8.5t34 2.5v-531q0 -59 -19.5 -105t-50.5 -78t-69 -49t-74 -17q-52 0 -78.5 20.5
t-34.5 41.5q5 15 21 29.5t35 19.5q9 -21 30.5 -38.5t57.5 -17.5q21 0 40 7t33 23t22 42t8 64v538h-239v-463q-14 -8 -36.5 -11.5t-42.5 -3.5v478h-253v-463q-14 -8 -36.5 -11.5t-42.5 -3.5v478h-90v10z" />
    <glyph glyph-name="f_j" unicode="fj" horiz-adv-x="605" 
d="M24 481q9 11 26.5 20.5t37.5 9.5h26v28q0 49 17.5 92t49 75t76 51t97.5 19q47 0 77 -12t48 -28t25 -33.5t7 -27.5q-8 -15 -30 -27t-44 -13q-3 18 -10 36t-20.5 31.5t-35 22t-52.5 8.5q-25 0 -48 -8.5t-40 -25t-27.5 -41.5t-10.5 -58v-89h252q15 6 32 8.5t34 2.5v-531
q0 -59 -19.5 -105t-50.5 -78t-69 -49t-74 -17q-52 0 -78.5 20.5t-34.5 41.5q5 15 21 29.5t35 19.5q9 -21 30.5 -38.5t57.5 -17.5q21 0 40 7t33 23t22 42t8 64v538h-239v-463q-14 -8 -36.5 -11.5t-42.5 -3.5v478h-90v10z" />
    <glyph glyph-name="f_f" unicode="ff" horiz-adv-x="738" 
d="M24 481q9 11 26.5 20.5t37.5 9.5h26v36q0 51 18.5 93t48 72t66.5 47t75 17q32 0 54 -8t36 -20t21 -26t9 -25q-5 -11 -21.5 -22.5t-37.5 -13.5q-2 10 -7 23t-15 23.5t-25.5 18t-39.5 7.5q-18 0 -36.5 -6.5t-33.5 -21t-24 -38.5t-9 -58v-98h264v28q0 46 16.5 89t46 76
t70 52.5t89.5 19.5q35 0 59 -9t38.5 -22.5t21.5 -28t8 -26.5q-5 -11 -23 -23t-38 -14q-2 10 -7 23.5t-16 26t-29.5 21.5t-45.5 9q-21 0 -41 -7t-35.5 -23t-25 -40.5t-9.5 -58.5v-93h182q-1 -17 -11.5 -28.5t-22.5 -11.5h-148v-463q-14 -8 -36.5 -11.5t-42.5 -3.5v478h-264
v-463q-14 -8 -36.5 -11.5t-42.5 -3.5v478h-90v10z" />
    <glyph glyph-name="f_f_i" unicode="ffi" horiz-adv-x="933" 
d="M24 481q9 11 26.5 20.5t37.5 9.5h26v41q0 51 18 91.5t47 69.5t66 44.5t75 15.5q36 0 60 -9.5t38 -23t20 -28.5t7 -25q-7 -12 -24.5 -21.5t-37.5 -11.5q-2 12 -7 25.5t-15 25.5t-26.5 20t-40.5 8q-18 0 -36.5 -6t-32.5 -20t-23 -37t-9 -56v-103h253v28q0 49 17 92t48.5 75
t74.5 51t96 19q48 0 78 -11.5t47.5 -28t24 -33.5t7.5 -28q-8 -15 -30 -27t-44 -13q-3 18 -10 36t-20.5 31.5t-35 22t-52.5 8.5q-24 0 -46.5 -8.5t-39 -25t-26.5 -41.5t-10 -58v-89h248q15 6 32 8.5t34 2.5v-514q-14 -8 -36.5 -11.5t-42.5 -3.5v478h-235v-463
q-14 -8 -36.5 -11.5t-42.5 -3.5v478h-253v-463q-14 -8 -36.5 -11.5t-42.5 -3.5v478h-90v10z" />
    <glyph glyph-name="f_f_l" unicode="ffl" horiz-adv-x="959" 
d="M24 481q9 11 26.5 20.5t37.5 9.5h26v41q0 51 18 91.5t47 69.5t66 44.5t75 15.5q36 0 60 -9.5t38 -23t20 -28.5t7 -25q-7 -12 -24.5 -21.5t-37.5 -11.5q-2 12 -7 25.5t-15 25.5t-26.5 20t-40.5 8q-18 0 -36.5 -6t-32.5 -20t-23 -37t-9 -56v-103h253v28q0 46 17.5 89t49 76
t75.5 52.5t96 19.5q34 0 59 -6.5t43 -17.5q17 8 37 14t41 6v-764q-14 -8 -36.5 -11.5t-42.5 -3.5v636q-2 19 -10.5 38t-23.5 33.5t-37 23.5t-53 9q-27 0 -51.5 -8.5t-43 -25t-30 -41.5t-11.5 -58v-89h182q-1 -17 -11.5 -28.5t-22.5 -11.5h-148v-463q-14 -8 -36.5 -11.5
t-42.5 -3.5v478h-253v-463q-14 -8 -36.5 -11.5t-42.5 -3.5v478h-90v10z" />
    <glyph glyph-name=".notdef" horiz-adv-x="813" 
d="M118 -7q-5 3 -8 8v672q8 14 26 29.5t32 18.5h527q6 -2 8 -8v-672q-8 -14 -26 -28.5t-32 -19.5h-527zM213 678q45 -73 96.5 -145t105.5 -141q54 68 102.5 139.5t90.5 146.5h-395zM606 36q-45 72 -95 143.5t-107 140.5q-51 -66 -98.5 -139t-91.5 -145h392zM371 351
q-52 66 -102 134t-95 139v-562q40 70 90 144t107 145zM448 362q55 -66 102 -130t89 -127v534q-39 -69 -88 -139t-103 -138z" />
    <glyph glyph-name="NULL" horiz-adv-x="0" 
 />
    <glyph glyph-name="NULL" horiz-adv-x="0" 
 />
    <glyph glyph-name="uni000D" unicode="&#xd;" horiz-adv-x="229" 
 />
    <glyph glyph-name="space" unicode=" " horiz-adv-x="265" 
 />
    <glyph glyph-name="exclam" unicode="!" horiz-adv-x="297" 
d="M106 699q17 11 37 16.5t49 5.5l-18 -534q-10 -8 -24.5 -12.5t-26.5 -4.5zM216 41q-11 -20 -30.5 -37.5t-36.5 -25.5q-18 8 -37 25.5t-30 37.5q11 19 30.5 37.5t36.5 26.5q20 -8 39 -26.5t28 -37.5z" />
    <glyph glyph-name="quotedbl" unicode="&#x22;" horiz-adv-x="376" 
d="M62 751q18 10 39.5 14.5t42.5 4.5l-22 -265q-5 -5 -15.5 -8.5t-21.5 -3.5zM235 753q18 10 39.5 14.5t42.5 4.5l-22 -265q-5 -5 -15.5 -8.5t-21.5 -3.5z" />
    <glyph glyph-name="numbersign" unicode="#" horiz-adv-x="708" 
d="M487 669q27 19 63 19l-32 -202h165q-2 -19 -12 -35.5t-24 -16.5h-137l-28 -181h169q-2 -19 -12 -35.5t-24 -16.5h-141l-30 -192q-11 -8 -29 -12t-34 -4l32 208h-168l-30 -192q-11 -8 -29 -12t-34 -4l32 208h-158q3 20 13.5 36t22.5 16h130l29 181h-164q3 20 13 36t23 16
h136l29 183q27 19 63 19l-32 -202h169zM253 253h168l29 181h-169z" />
    <glyph glyph-name="dollar" unicode="$" horiz-adv-x="633" 
d="M61 146q10 14 29 26.5t42 15.5q3 -26 13.5 -51.5t31 -47.5t51 -37.5t72.5 -20.5v299l-36 10q-37 10 -70 24t-58 35t-39.5 50t-14.5 69q0 34 16 67t45 60.5t69 46.5t88 26v84q8 8 21 12.5t29 4.5v-98q52 -1 89.5 -15t61 -34.5t35 -42.5t12.5 -39q-8 -14 -27.5 -26
t-40.5 -16q-8 42 -39 77.5t-91 46.5v-273l37 -9q52 -14 88 -32.5t58.5 -42t32 -50.5t9.5 -58q0 -39 -16 -75.5t-45 -67t-70.5 -51.5t-93.5 -28v-78q-9 -9 -23 -13t-27 -4v91h-2q-62 0 -106 16.5t-73 41t-43 53.5t-15 54zM350 316v-287q33 2 60.5 13.5t47 30t30.5 43t11 53.5
q0 54 -32 89.5t-108 55.5zM159 550q0 -58 38 -89.5t103 -48.5v263q-29 -1 -54.5 -10.5t-44.5 -26t-30.5 -39t-11.5 -49.5z" />
    <glyph glyph-name="percent" unicode="%" horiz-adv-x="872" 
d="M663 721q14 -2 25 -9t16 -17l-498 -702q-14 1 -25 8.5t-16 17.5zM550 169q0 -33 8.5 -59.5t23 -44.5t34 -28t41.5 -10q44 0 67.5 29.5t23.5 90.5q0 30 -7 55.5t-20 44.5t-32 30t-44 11q-37 0 -66 -29t-29 -90zM478 145q0 38 15 70.5t40.5 56.5t59 38t70.5 14
q39 0 68.5 -12.5t49 -33.5t29.5 -48.5t10 -57.5q0 -39 -13.5 -72.5t-37.5 -57.5t-57 -37.5t-73 -13.5q-38 0 -67.5 12t-50.5 32.5t-32 48.5t-11 61zM126 576q0 -33 8.5 -59.5t23 -45t34 -28.5t41.5 -10q43 0 67 29.5t24 91.5q0 30 -7 55.5t-20 44t-32 29.5t-44 11
q-18 0 -35.5 -7t-30.5 -21.5t-21 -37t-8 -52.5zM54 551q0 38 15 71t40.5 57t59 37.5t70.5 13.5q39 0 68.5 -12.5t49 -33.5t29.5 -48.5t10 -57.5q0 -39 -13.5 -72.5t-37.5 -57.5t-57.5 -37.5t-73.5 -13.5q-37 0 -66.5 12t-50.5 32.5t-32 48.5t-11 61z" />
    <glyph glyph-name="ampersand" unicode="&#x26;" horiz-adv-x="795" 
d="M556 375q11 16 31 28t39 14q18 -19 30.5 -49t12.5 -72q0 -49 -16 -88t-37 -68q42 -31 84 -59.5t84 -51.5v-8q-12 -10 -36.5 -18.5t-50.5 -9.5q-32 17 -64.5 38.5t-64.5 46.5q-41 -39 -98.5 -65.5t-143.5 -26.5q-64 0 -114.5 15.5t-85 44t-52.5 67t-18 85.5q0 39 12.5 70
t35.5 56t55 45t72 37q-26 34 -44.5 70t-18.5 76q0 39 17.5 72.5t47 57.5t68 38t80.5 14q36 0 63 -10t45 -27.5t26.5 -40.5t8.5 -49q0 -39 -18 -69.5t-46 -54.5t-62.5 -42.5t-68.5 -33.5q16 -20 42 -48t59.5 -60t73 -67t82.5 -69q8 16 15 38.5t7 51.5q0 47 -17 76t-35 46z
M363 42q63 0 105.5 18.5t68.5 40.5q-46 36 -89 75t-79.5 75.5t-66 69t-47.5 56.5q-51 -24 -82.5 -57.5t-31.5 -93.5q0 -45 18 -79t48 -57.5t70.5 -35.5t85.5 -12zM244 581q0 -40 18 -76t45 -70q31 16 56.5 31.5t43 33.5t27 40t9.5 51q0 20 -5 38.5t-16 32.5t-28.5 22.5
t-42.5 8.5q-20 0 -39.5 -6.5t-34.5 -20t-24 -34.5t-9 -51z" />
    <glyph glyph-name="quotesingle" unicode="'" horiz-adv-x="203" 
d="M62 753q18 10 39.5 14.5t42.5 4.5l-22 -265q-5 -5 -15.5 -8.5t-21.5 -3.5z" />
    <glyph glyph-name="parenleft" unicode="(" horiz-adv-x="353" 
d="M306 829q10 0 19.5 -6.5t12.5 -13.5q-88 -102 -129.5 -217.5t-41.5 -256.5q0 -74 13.5 -140t35.5 -123t51 -105t59 -86q-9 -17 -27 -30.5t-38 -16.5q-26 30 -55 75t-54 103.5t-41 129.5t-16 153q0 86 16 162.5t44.5 143t67 123.5t83.5 105z" />
    <glyph glyph-name="parenright" unicode=")" horiz-adv-x="353" 
d="M47 -159q-10 0 -19.5 6.5t-12.5 13.5q83 105 127 219t44 255q0 74 -13.5 140t-36 123.5t-51.5 106t-59 86.5q10 17 28 29.5t38 15.5q27 -30 56.5 -76t53.5 -104.5t40 -129.5t16 -151q0 -149 -54 -281t-157 -253z" />
    <glyph glyph-name="asterisk" unicode="*" horiz-adv-x="492" 
d="M208 764q11 8 26 13.5t32 5.5q14 0 20 -2q-2 -48 -10 -98.5t-16 -87.5q13 9 30.5 19.5t36 21t37 20t34.5 15.5q14 -9 23.5 -23.5t14.5 -31.5q-15 -8 -36 -15t-44.5 -13.5t-46 -11t-39.5 -7.5q12 -9 29.5 -24.5t35.5 -33t34 -35.5t27 -32q-7 -17 -20.5 -31t-30.5 -22
q-10 11 -24.5 32t-29.5 44.5t-28 46t-20 37.5q-7 -18 -18 -39.5t-23 -43.5t-24 -42.5t-21 -34.5q-20 1 -39 11t-28 23q10 15 26 34t33.5 38.5t35.5 38t32 32.5q-18 2 -39 5.5t-42 7.5t-40.5 9t-33.5 10q-2 8 -2 18q0 35 17 58q15 -6 35.5 -16.5t41.5 -22t40.5 -22.5
t32.5 -20q-3 16 -6.5 37t-6 43.5t-4 45.5t-2.5 43z" />
    <glyph glyph-name="plus" unicode="+" horiz-adv-x="587" 
d="M325 306v-208q-24 -18 -67 -18v226h-206q3 26 14.5 41.5t25.5 15.5h166v194q12 9 29.5 14.5t37.5 5.5v-214h210q-2 -29 -13.5 -43t-26.5 -14h-170z" />
    <glyph glyph-name="comma" unicode="," horiz-adv-x="232" 
d="M180 13q0 -36 -12 -64t-31 -51q-18 -23 -44 -44t-46 -29q-8 0 -17 5t-11 12q15 9 30.5 22t28 29.5t20 36t7.5 42.5q0 29 -13.5 48.5t-33.5 32.5q11 21 29.5 36t41.5 17q21 -11 36 -35t15 -58z" />
    <glyph glyph-name="hyphen" unicode="-" horiz-adv-x="385" 
d="M48 272q2 21 12 41.5t24 20.5h253q-2 -26 -12 -44t-24 -18h-253z" />
    <glyph glyph-name="period" unicode="." horiz-adv-x="224" 
d="M179 41q-11 -20 -30.5 -37.5t-36.5 -25.5q-18 8 -37 25.5t-30 37.5q11 19 30.5 37.5t36.5 26.5q20 -8 39 -26.5t28 -37.5z" />
    <glyph glyph-name="slash" unicode="/" horiz-adv-x="408" 
d="M75 -75q-7 -4 -17.5 -5.5t-21.5 -1.5q-17 0 -26 3l331 898q18 8 39 8q15 0 26 -3z" />
    <glyph glyph-name="zero" unicode="0" horiz-adv-x="664" 
d="M66 326q0 89 22 161t60.5 123t91 78.5t113.5 27.5q66 0 112.5 -27.5t76 -73.5t43 -107t13.5 -128q0 -71 -14.5 -142t-47.5 -127.5t-87 -92t-133 -35.5q-52 0 -97.5 21.5t-79.5 64.5t-53.5 107.5t-19.5 149.5zM151 369q0 -83 14.5 -146.5t40.5 -106.5t61.5 -65t77.5 -22
q82 0 125 76t43 232q0 67 -11 128t-34 106.5t-58.5 72.5t-84.5 27q-29 0 -60 -14.5t-56.5 -49.5t-41.5 -93t-16 -145z" />
    <glyph glyph-name="one" unicode="1" horiz-adv-x="465" 
d="M303 710q10 0 20 -5t15 -10v-687q-14 -9 -36 -12t-43 -3v623q-17 -21 -39 -41t-46 -37t-48 -30.5t-43 -20.5q-15 27 -15 65q56 21 117 59t118 99z" />
    <glyph glyph-name="two" unicode="2" horiz-adv-x="606" 
d="M71 -7q-5 3 -11 12t-8 18l172 160q53 49 93.5 89t67.5 76.5t41 73.5t14 82q0 36 -9.5 66.5t-28 53t-47 35.5t-66.5 13q-26 0 -50 -7.5t-43.5 -22.5t-31 -37.5t-11.5 -53.5q0 -22 8.5 -36t17.5 -24q-9 -14 -31.5 -24.5t-43.5 -10.5q-11 6 -21 23.5t-10 47.5
q0 36 18.5 70.5t51 60.5t77.5 42t98 16q54 0 94 -15t65.5 -40.5t38 -59t12.5 -69.5q0 -48 -14 -89t-46 -84.5t-83.5 -94.5t-126.5 -117l-105 -93h395q-2 -26 -16 -43.5t-31 -17.5h-430v0z" />
    <glyph glyph-name="three" unicode="3" horiz-adv-x="645" 
d="M196 510q-10 -14 -31.5 -23.5t-44.5 -9.5q-8 7 -18 22t-10 41q0 32 18.5 63.5t51 56.5t77 40.5t96.5 15.5q55 0 94 -14.5t63.5 -37.5t35.5 -52t11 -58q0 -35 -12 -64t-32 -51.5t-46.5 -39.5t-56.5 -27q88 -9 133.5 -53.5t45.5 -112.5q0 -47 -20.5 -88t-57 -71t-88 -47
t-114.5 -17q-55 0 -97 13t-70.5 35.5t-43 52.5t-14.5 63q0 19 6 31q11 11 33.5 19.5t40.5 9.5q-1 -3 -1.5 -10t-0.5 -12q0 -69 46 -113t133 -44q72 0 117 36.5t45 111.5t-44.5 114.5t-125.5 39.5q-19 0 -36 -1t-32 -3q0 11 1.5 24t6.5 21q44 5 81 18t63.5 32.5t41 46.5
t14.5 60q0 64 -39.5 104t-111.5 40q-26 0 -50 -7t-42 -20.5t-29 -32t-11 -42.5q0 -21 7.5 -36t16.5 -24z" />
    <glyph glyph-name="four" unicode="4" horiz-adv-x="633" 
d="M52 155q-6 3 -12.5 11.5t-6.5 19.5q104 119 169.5 246.5t85.5 251.5q37 24 90 24q-11 -64 -38 -131.5t-64 -132.5t-80 -124t-86 -107h303v214q12 14 32.5 26.5t41.5 14.5v-255h124q-4 -26 -16.5 -42t-36.5 -16h-71v-151q-12 -10 -31.5 -13t-42.5 -3v167h-361v0z" />
    <glyph glyph-name="five" unicode="5" horiz-adv-x="621" 
d="M313 29q35 0 65 12t51.5 35t33.5 57t12 79q0 39 -10 73t-32 59t-57 39.5t-84 14.5q-29 0 -54.5 -5.5t-47 -14.5t-38.5 -20t-30 -21q-7 3 -13.5 10.5t-8.5 12.5l40 311q17 15 45.5 25t72.5 10h277q-2 -26 -15.5 -44t-36.5 -18h-289l-27 -222q32 17 72.5 28.5t88.5 11.5
q60 0 103.5 -18t71 -48t40.5 -69.5t13 -82.5q0 -50 -17.5 -97t-52 -83.5t-86.5 -58.5t-120 -22q-50 0 -89.5 12.5t-67.5 35t-43 52.5t-15 66q0 16 4 25q11 11 32.5 19t40.5 9q-1 -5 -1 -9v-8q0 -33 11.5 -61.5t33 -49.5t53.5 -33t74 -12z" />
    <glyph glyph-name="six" unicode="6" horiz-adv-x="632" 
d="M341 377q-22 0 -41 -5t-34.5 -12.5t-27.5 -16t-19 -14.5q-2 3 -2.5 8t-0.5 10t0.5 10t2.5 7q6 8 20 19t34 20.5t46.5 16.5t57.5 7q49 0 86 -15t61.5 -41t37 -61t12.5 -75q0 -49 -17.5 -94.5t-51 -80t-82.5 -55.5t-113 -21q-53 0 -98 19t-77.5 55t-50.5 89t-18 121
t17 125.5t47.5 105t72.5 85t92 65.5q40 23 85 39.5t87 23.5q10 -3 18 -13.5t10 -21.5q-37 -7 -82 -23t-87 -41q-37 -22 -68.5 -51.5t-55 -68t-36.5 -86.5t-13 -108q0 -65 14 -115t39 -84t60.5 -51.5t77.5 -17.5q69 0 109 43.5t40 130.5q0 78 -38 125t-114 47z" />
    <glyph glyph-name="seven" unicode="7" horiz-adv-x="553" 
d="M144 -7q43 198 121 361.5t170 289.5h-388q4 28 18.5 45t28.5 17h418q7 -4 11.5 -11t5.5 -14q-49 -57 -93.5 -129t-81.5 -156t-65 -180t-43 -201q-20 -13 -49.5 -17.5t-52.5 -4.5z" />
    <glyph glyph-name="eight" unicode="8" horiz-adv-x="630" 
d="M300 -19q-51 0 -95 12t-76 35.5t-50 57t-18 75.5q0 37 12 66.5t33.5 53t51 41t63.5 31.5q-126 53 -126 160q0 42 19.5 78.5t53.5 64.5t78.5 44t94.5 16q52 0 89.5 -13t62 -35t36 -50.5t11.5 -59.5q0 -37 -13.5 -66t-34 -51t-45.5 -38t-49 -27q49 -18 82.5 -38.5t54 -43.5
t29 -48t8.5 -51q0 -44 -20.5 -82.5t-56.5 -68t-86 -46.5t-109 -17zM267 337q-25 -10 -47.5 -23.5t-39.5 -31.5t-27 -42.5t-10 -55.5q0 -39 14.5 -68.5t40 -49.5t60 -30t73.5 -10q73 0 117.5 35.5t44.5 96.5q0 25 -7 47.5t-26 42t-52 37t-84 34.5zM170 548q0 -56 36 -88
t100 -53l49 -17q20 10 39.5 23t34.5 30t24 38t9 48q0 29 -10 55t-29 45.5t-47.5 31t-64.5 11.5q-27 0 -52.5 -8t-45 -23.5t-31.5 -38.5t-12 -54z" />
    <glyph glyph-name="nine" unicode="9" horiz-adv-x="613" 
d="M392 351q2 -4 2 -14t-3 -17q-3 -6 -13.5 -15t-27 -16.5t-39 -13t-49.5 -5.5q-42 0 -78.5 13.5t-63.5 38.5t-42.5 61.5t-15.5 81.5q0 52 19.5 97.5t54.5 79.5t83 54t104 20q55 0 97.5 -19.5t71.5 -55t44 -84t15 -106.5q0 -71 -17.5 -131t-49.5 -110t-76 -90t-98 -70
q-20 -11 -42 -21.5t-44 -19t-43 -15t-39 -9.5q-8 3 -15.5 13.5t-9.5 22.5q97 26 180 85q36 26 66.5 58.5t53 71.5t35 84.5t12.5 98.5q0 57 -11.5 103.5t-33.5 79.5t-54.5 51t-73.5 18q-29 0 -56 -11t-48 -33t-33.5 -54.5t-12.5 -74.5q0 -46 12 -79t32.5 -54.5t48.5 -32
t60 -10.5q35 0 59.5 9t38.5 20z" />
    <glyph glyph-name="colon" unicode=":" horiz-adv-x="224" 
d="M179 41q-11 -20 -30.5 -37.5t-36.5 -25.5q-18 8 -37 25.5t-30 37.5q11 19 30.5 37.5t36.5 26.5q20 -8 39 -26.5t28 -37.5zM179 449q-11 -20 -30.5 -37.5t-36.5 -25.5q-18 8 -37 25.5t-30 37.5q11 19 30.5 37.5t36.5 26.5q20 -8 39 -26.5t28 -37.5z" />
    <glyph glyph-name="semicolon" unicode=";" horiz-adv-x="240" 
d="M186 13q0 -36 -12 -64t-31 -51q-18 -23 -44 -44t-46 -29q-8 0 -17 5t-11 12q15 9 30.5 22t28 29.5t20 36t7.5 42.5q0 29 -13.5 48.5t-33.5 32.5q11 21 29.5 36t41.5 17q21 -11 36 -35t15 -58zM188 449q-11 -20 -30.5 -37.5t-36.5 -25.5q-18 8 -37 25.5t-30 37.5
q11 19 30.5 37.5t36.5 26.5q20 -8 39 -26.5t28 -37.5z" />
    <glyph glyph-name="less" unicode="&#x3c;" horiz-adv-x="504" 
d="M440 494q-78 -33 -164 -69t-163 -73q36 -25 78.5 -51.5t87.5 -52.5t91 -50t89 -44q-3 -19 -16 -36t-26 -25q-43 21 -92.5 47.5t-98.5 55.5t-95 59t-83 58q2 14 5.5 27t10.5 24q20 13 50 30.5t66 37.5t74.5 41t75 39.5t69 34t56.5 25.5q2 -8 2 -15q0 -17 -4.5 -36
t-12.5 -27z" />
    <glyph glyph-name="equal" unicode="=" horiz-adv-x="519" 
d="M48 208q2 21 12 39t24 18h376q-2 -22 -12 -39.5t-24 -17.5h-376zM59 406q2 20 11.5 38t24.5 18h376q-2 -22 -12.5 -39t-23.5 -17h-376z" />
    <glyph glyph-name="greater" unicode="&#x3e;" horiz-adv-x="504" 
d="M65 172q78 33 163 68.5t163 73.5q-37 25 -79 50.5t-87 51t-91 49t-89 43.5q4 19 16 37.5t27 26.5q43 -20 92.5 -46.5t98.5 -56t95 -59.5t82 -58q-2 -13 -5.5 -26t-9.5 -24q-20 -13 -50.5 -30.5t-66 -37.5t-74 -41t-75.5 -40t-69.5 -35t-55.5 -25q-2 8 -2 16q0 17 5 35.5
t12 27.5z" />
    <glyph glyph-name="question" unicode="?" horiz-adv-x="528" 
d="M160 508q-11 -16 -32 -25.5t-41 -9.5q-9 6 -24 27t-15 56t18.5 67t51 56.5t75.5 39t93 14.5q49 0 86 -13.5t61.5 -35.5t36.5 -50.5t12 -58.5q0 -35 -12 -63.5t-31.5 -52.5t-45.5 -46t-54 -44q-42 -33 -58 -58.5t-16 -55.5q0 -18 8.5 -30t17.5 -20q-9 -14 -32 -23.5
t-42 -9.5q-9 6 -19.5 20.5t-10.5 36.5q0 17 5 33t18.5 34t35.5 40.5t57 53.5q45 40 68.5 74.5t23.5 82.5q0 67 -36.5 104.5t-105.5 37.5q-24 0 -47 -7.5t-40.5 -21t-28 -34t-10.5 -45.5q0 -26 11 -44.5t22 -28.5zM319 41q-11 -20 -30.5 -37.5t-36.5 -25.5q-18 8 -37 25.5
t-30 37.5q11 19 30.5 37.5t36.5 26.5q20 -8 39 -26.5t28 -37.5z" />
    <glyph glyph-name="at" unicode="@" horiz-adv-x="946" 
d="M710 -94q2 -6 2 -14q0 -13 -4 -18q-9 -9 -31.5 -23t-57.5 -26.5t-81.5 -22t-102.5 -9.5q-66 0 -133.5 22t-122 68.5t-89 118.5t-34.5 171q0 96 37.5 181t102.5 148.5t152.5 100.5t187.5 37q88 0 154.5 -25t111.5 -68.5t67.5 -101.5t22.5 -124q0 -74 -22 -132.5t-59 -99
t-85 -62t-99 -21.5q-48 0 -71 11.5t-23 40.5q0 27 6 72q-30 -53 -73 -87t-90 -34q-24 0 -45 7.5t-37 24t-25 43t-9 63.5q0 59 20.5 115.5t56 101t83.5 71.5t103 27q31 0 54.5 -8t40.5 -20t27.5 -26t15.5 -25q-10 -38 -20 -80t-18.5 -81.5t-13.5 -75t-5 -59.5
q0 -25 16.5 -31.5t44.5 -6.5q25 0 53.5 13t52.5 41t39.5 73t15.5 109q0 63 -18 119t-57.5 97.5t-102 66t-151.5 24.5q-71 0 -138 -27.5t-120 -77.5t-85 -122t-32 -160q0 -98 31.5 -166.5t82 -111.5t115 -62.5t130.5 -19.5q76 0 132 17.5t97 43.5zM413 68q23 0 45.5 15
t42.5 41.5t36 61.5t27 75l21 99q-4 8 -11.5 17t-19 16.5t-27 12.5t-36.5 5q-34 0 -63.5 -17t-51.5 -47t-34.5 -71t-12.5 -89q0 -63 20 -91t64 -28z" />
    <glyph glyph-name="A" unicode="A" horiz-adv-x="679" 
d="M22 -7q33 84 70 179.5t74.5 190t73 183t63.5 159.5q17 8 37 12t40 4l265 -717q-9 -5 -25 -8.5t-38 -3.5h-9.5t-9.5 1l-78 212h-320q-35 -107 -62 -204q-9 -5 -23.5 -7.5t-29.5 -2.5q-9 0 -16 0.5t-12 1.5zM324 647q-35 -91 -71.5 -191.5t-71.5 -202.5h287z" />
    <glyph glyph-name="B" unicode="B" horiz-adv-x="685" 
d="M110 688q42 15 101 29t129 14q68 0 114 -15t74 -39t40 -55t12 -62q0 -35 -11.5 -64.5t-30.5 -52t-44 -38.5t-53 -25q89 -17 132 -63t43 -112q0 -51 -24 -92.5t-67 -70.5t-102.5 -44.5t-129.5 -15.5q-51 0 -97 5t-86 13v688zM309 344q-37 0 -65.5 -1.5t-51.5 -5.5v-288
q29 -9 66.5 -14.5t72.5 -5.5q43 0 78.5 10t61.5 29.5t40.5 49t14.5 69.5q0 44 -18 74t-48.5 48.5t-69.5 26.5t-81 8zM346 390q31 1 58 11.5t46.5 29t31 45t11.5 60.5q0 71 -45.5 110t-141.5 39q-33 0 -62 -3.5t-52 -8.5v-290q26 3 60 5t79 2h15z" />
    <glyph glyph-name="C" unicode="C" horiz-adv-x="705" 
d="M647 582q-8 -15 -27 -28t-46 -17q-5 24 -16.5 49.5t-33 46.5t-54 35t-79.5 14q-42 0 -84 -16.5t-76 -52.5t-55.5 -93.5t-21.5 -139.5q0 -81 22 -144t60 -105.5t88.5 -64.5t108.5 -22q67 0 113.5 22.5t78.5 59.5q6 -2 14 -8t10 -12q-8 -14 -26 -35t-48.5 -40.5t-76 -34
t-108.5 -14.5q-62 0 -120 22.5t-103 68t-72 114t-27 159.5q0 80 29 150.5t78.5 122.5t115 82t139.5 30q60 0 101.5 -17t67 -41t37 -49.5t11.5 -41.5z" />
    <glyph glyph-name="D" unicode="D" horiz-adv-x="771" 
d="M110 695q48 16 105.5 26t132.5 10q90 0 157 -27.5t111.5 -74t66.5 -108t22 -130.5q0 -98 -31 -174t-87 -128.5t-134.5 -79.5t-173.5 -27q-41 0 -86 4t-83 12v697zM313 686q-39 0 -68 -2.5t-53 -6.5v-627q25 -8 63.5 -12.5t77.5 -4.5q61 0 112.5 19t89.5 58.5t59.5 100.5
t21.5 146q0 68 -18 128t-55 104.5t-94 70.5t-136 26z" />
    <glyph glyph-name="E" unicode="E" horiz-adv-x="628" 
d="M110 -7v702q34 19 82 21q29 1 77.5 1.5t103 1.5t107 1.5t88.5 0.5q-2 -21 -11.5 -38t-21.5 -22q-34 0 -77 1.5t-89 3t-92 3.5t-85 4v-294l317 6q-2 -18 -10 -33t-18 -17q-73 1 -145 1.5t-144 2.5v-302q88 2 183 6.5t201 11.5q-3 -23 -12 -39.5t-20 -22.5h-434z" />
    <glyph glyph-name="F" unicode="F" horiz-adv-x="612" 
d="M192 9q-16 -9 -37.5 -12.5t-44.5 -3.5v702q14 8 36.5 14t45.5 7q24 1 71.5 1.5t102.5 1.5t110 1.5t94 0.5q-2 -20 -10.5 -37t-20.5 -22q-35 0 -79 1t-91 2.5t-93 3t-84 3.5v-293l312 6q-2 -18 -10 -33t-18 -17q-72 1 -142 1t-142 2v-329z" />
    <glyph glyph-name="G" unicode="G" horiz-adv-x="771" 
d="M684 91q-10 -12 -31.5 -30.5t-56 -36t-81.5 -30t-107 -12.5q-66 0 -127 22.5t-108.5 68t-76 114t-28.5 160.5q0 79 28.5 149t79 122.5t118.5 82.5t148 30q67 0 111 -17t70.5 -40.5t38.5 -48t15 -40.5q-7 -14 -26.5 -26.5t-45.5 -16.5q-6 25 -20 50t-38.5 44.5t-60.5 31.5
t-85 12q-47 0 -91 -17.5t-78.5 -53.5t-55 -92t-20.5 -133q0 -92 24.5 -158t65 -108.5t92.5 -62.5t107 -20q64 0 100 13.5t57 25.5v248q-48 -2 -99 -3.5t-93 -1.5q2 17 9.5 31t16.5 19l248 -2v-274z" />
    <glyph glyph-name="H" unicode="H" horiz-adv-x="783" 
d="M673 9q-16 -9 -37.5 -12.5t-44.5 -3.5v351h-399v-335q-16 -9 -37.5 -12.5t-44.5 -3.5v710q34 18 82 18v-330h399v312q34 18 82 18v-712z" />
    <glyph glyph-name="I" unicode="I" horiz-adv-x="304" 
d="M193 9q-16 -9 -37.5 -12.5t-44.5 -3.5v710q34 18 82 18v-712z" />
    <glyph glyph-name="J" unicode="J" horiz-adv-x="312" 
d="M202 5q0 -54 -16 -98t-44.5 -76t-67 -49.5t-83.5 -17.5q-41 0 -68 13t-38 28q2 17 15 36t32 28q14 -18 36 -31.5t52 -13.5q19 0 37 5t32 19.5t22.5 40.5t8.5 68v746q34 18 82 18v-716z" />
    <glyph glyph-name="K" unicode="K" horiz-adv-x="695" 
d="M192 365q94 72 184.5 159.5t162.5 181.5q13 7 30 10.5t35 3.5q8 0 16.5 -0.5t12.5 -2.5q-36 -47 -77 -91.5t-84.5 -85.5t-87 -78t-84.5 -70q12 -2 22.5 -6.5t21.5 -13t23 -22t29 -33.5l152 -186q21 -26 37 -44t28.5 -31.5t23.5 -23.5t22 -19v-7q-8 -3 -20 -5.5t-26 -4
t-27 -2.5t-22 -1q-14 6 -32 26t-54 67l-156 204q-23 29 -39.5 39t-36.5 10q-18 0 -30.5 -4.5t-23.5 -12.5v-313q-16 -9 -37.5 -12.5t-44.5 -3.5v710q34 18 82 18v-356z" />
    <glyph glyph-name="L" unicode="L" horiz-adv-x="584" 
d="M192 37q81 3 168 8t196 12q-2 -23 -11 -40.5t-20 -23.5h-415v710q34 18 82 18v-684z" />
    <glyph glyph-name="M" unicode="M" horiz-adv-x="921" 
d="M496 122q-5 -5 -14 -8.5t-19.5 -6.5t-21.5 -4.5t-20 -1.5l-217 524q-7 -78 -13.5 -158.5t-12 -159t-10 -154t-7.5 -144.5q-15 -9 -37.5 -12.5t-44.5 -3.5q21 174 45 353t49 356q14 8 37 13.5t43 5.5l218 -539q51 128 104.5 260t104.5 263q16 8 37.5 12t41.5 4l84 -713
q-14 -8 -37 -11.5t-45 -3.5l-71 618q-50 -125 -99.5 -249t-94.5 -240z" />
    <glyph glyph-name="N" unicode="N" horiz-adv-x="773" 
d="M660 3q-6 -5 -18 -7.5t-21 -2.5l-464 637q1 -78 2.5 -154l3 -152t4 -153.5t6.5 -159.5q-11 -8 -33 -13t-42 -5q2 87 4 169.5t4 168t4 177t5 195.5q17 8 38.5 13t42.5 5l419 -580q-2 148 -4.5 291t-7.5 270q17 10 37.5 14.5t37.5 4.5q-5 -160 -9 -342t-9 -376z" />
    <glyph glyph-name="O" unicode="O" horiz-adv-x="820" 
d="M157 379q0 -85 21.5 -150t57.5 -109.5t84.5 -67.5t102.5 -23q115 0 178.5 79t63.5 237q0 77 -19 139.5t-53.5 107t-83 68.5t-108.5 24q-48 0 -92.5 -18t-78 -55.5t-53.5 -95t-20 -136.5zM68 347q0 85 29.5 155.5t79 121.5t115 79t138.5 28q79 0 139.5 -27t101.5 -75
t62 -112.5t21 -139.5q0 -83 -24 -155t-70 -125t-112.5 -84t-150.5 -31q-67 0 -126.5 25t-104.5 72.5t-71.5 115t-26.5 152.5z" />
    <glyph glyph-name="P" unicode="P" horiz-adv-x="646" 
d="M110 691q45 16 103 28t127 12q72 0 121 -17.5t78.5 -46.5t42.5 -66t13 -76q0 -61 -24.5 -109t-67 -81t-99.5 -50.5t-123 -17.5q-26 0 -49 2t-40 5v-265q-16 -9 -37.5 -12.5t-44.5 -3.5v698zM312 685q-36 0 -66 -4t-54 -9v-331q22 -12 51.5 -20t73.5 -8q87 0 138 46
t51 133q0 40 -11 75t-35 61.5t-60.5 41.5t-87.5 15z" />
    <glyph glyph-name="Q" unicode="Q" horiz-adv-x="821" 
d="M68 348q0 86 29.5 156.5t79.5 121t115.5 78t138.5 27.5q79 0 139.5 -27t101 -75t61.5 -112.5t21 -139.5q0 -112 -43.5 -201t-123.5 -142q-45 -30 -92 -59.5t-97 -57.5q20 0 39 -3.5t43 -10t57 -17t80 -24.5q38 -12 68.5 -21t57.5 -15t52 -9t51 -3q37 0 57 13q3 -1 6.5 -4
t4.5 -6q-15 -31 -40.5 -53t-62.5 -22q-21 0 -44 4.5t-51.5 13t-64.5 21.5t-83 30l-30 11q-34 12 -59.5 22t-46.5 17t-38.5 11t-33.5 4q-18 0 -35 -4t-33 -11q-12 -6 -24.5 -12t-24.5 -13l-30 -15q-6 -2 -8 -4q-16 2 -31 13.5t-20 23.5q82 29 155.5 60.5t145.5 71.5
q-14 -2 -28.5 -3t-29.5 -1q-67 0 -126.5 24t-104.5 70.5t-71.5 115t-26.5 156.5zM157 380q0 -85 21.5 -150.5t57.5 -110t84.5 -67.5t102.5 -23q115 0 178.5 79t63.5 237q0 77 -18.5 139.5t-53 107t-83 68.5t-108.5 24q-48 0 -92.5 -18t-78.5 -55.5t-54 -94.5t-20 -136z" />
    <glyph glyph-name="R" unicode="R" horiz-adv-x="678" 
d="M110 692q44 16 103.5 27.5t120.5 11.5q68 0 115.5 -15.5t77.5 -42t43.5 -61.5t13.5 -74q0 -48 -18 -84.5t-46.5 -63t-65.5 -44t-74 -26.5q17 -11 32 -27.5t32 -38.5l99 -128q31 -40 57 -69t44 -44v-6q-14 -7 -41 -10.5t-51 -3.5q-10 4 -26.5 21.5t-45.5 59.5l-118 167
q-13 18 -24.5 31t-25 21.5t-31 12t-42.5 3.5h-47v-300q-16 -9 -37.5 -12.5t-44.5 -3.5v699zM298 685q-24 0 -52 -3t-54 -9v-310q17 -5 39.5 -8t51.5 -3q98 0 155 40t57 123q0 36 -12 67.5t-36.5 54t-61.5 35.5t-87 13z" />
    <glyph glyph-name="S" unicode="S" horiz-adv-x="639" 
d="M61 152q10 15 33 28t45 14q3 -28 16 -56.5t37.5 -51t60.5 -37t86 -14.5q73 0 116 37.5t43 98.5q0 58 -30 96t-109 58l-94 24q-36 9 -68 21t-56 31.5t-37.5 48t-13.5 69.5t20 79t55.5 67.5t83 47.5t102.5 18t94 -14t63 -34t35.5 -43.5t13.5 -41.5q-7 -14 -26 -25.5
t-44 -14.5q-4 22 -15 43.5t-31.5 39t-50.5 28.5t-71 11q-68 0 -109 -35.5t-41 -93.5q0 -33 10 -54.5t28 -36t42.5 -23.5t53.5 -16l88 -22q55 -14 91.5 -34t57.5 -44t29.5 -52.5t8.5 -58.5q0 -45 -19 -86t-55 -72.5t-86.5 -50t-113.5 -18.5q-61 0 -106 16t-75 40.5
t-45.5 54.5t-16.5 58z" />
    <glyph glyph-name="T" unicode="T" horiz-adv-x="630" 
d="M610 719q-2 -20 -10.5 -38t-18.5 -26q-45 4 -106 10.5t-117 11.5v-668q-16 -9 -37.5 -12.5t-44.5 -3.5v684l-65 -6.5t-69 -6.5t-64.5 -5.5t-51.5 -3.5q2 22 9.5 38.5t18.5 25.5h556z" />
    <glyph glyph-name="U" unicode="U" horiz-adv-x="763" 
d="M189 274q0 -64 15.5 -108.5t44 -72.5t67.5 -40.5t87 -12.5q63 0 102 21.5t61.5 61.5t30.5 97.5t8 128.5q0 77 -2.5 167t-6.5 190q17 8 36.5 11.5t38.5 3.5q-2 -63 -2 -119.5t-1 -111.5t-3 -109.5t-6 -112.5q-6 -81 -31 -135.5t-63 -88t-88.5 -47.5t-107.5 -14
q-53 0 -100.5 15t-83.5 46.5t-57 81t-21 118.5v459q34 18 82 18v-447z" />
    <glyph glyph-name="V" unicode="V" horiz-adv-x="715" 
d="M672 719q-18 -72 -48.5 -162.5t-67.5 -186t-78 -188.5t-81 -170q-12 -8 -33.5 -13.5t-42.5 -5.5q-38 78 -75.5 166.5t-72 180t-65 183.5t-52.5 177q32 21 80 21q41 -158 102.5 -331.5t136.5 -337.5q33 71 64 152t59.5 166.5t53 172.5t42.5 168q22 10 54 10q16 0 24 -2z
" />
    <glyph glyph-name="W" unicode="W" horiz-adv-x="1005" 
d="M335 13q-10 -9 -32 -14.5t-43 -5.5q-32 83 -61 173.5t-53.5 182t-45.5 181.5t-37 173q17 9 38 13.5t41 4.5q13 -72 31 -152t39.5 -163.5t46.5 -167t53 -163.5q24 61 48.5 133.5t47 146t41 143.5t30.5 126q31 17 74 17q33 -146 79 -291t101 -288q26 75 48 157.5
t40.5 166.5t32.5 167t24 158q22 10 50 10q17 0 25 -2q-12 -72 -32.5 -160.5t-46 -182.5t-56 -187.5t-62.5 -176.5q-11 -8 -30.5 -13.5t-42.5 -5.5q-26 60 -51.5 128.5t-49 138.5t-43.5 138t-34 127q-15 -59 -34.5 -125.5t-42 -133.5t-46 -132t-47.5 -121z" />
    <glyph glyph-name="X" unicode="X" horiz-adv-x="679" 
d="M60 697q18 12 40.5 18t44.5 6l208 -317q53 69 98 147.5t83 157.5q14 7 30 9.5t31 2.5q16 0 24 -2q-39 -81 -102.5 -168t-132.5 -175l259 -365q-18 -11 -42.5 -14.5t-48.5 -3.5l-223 339q-29 -44 -54 -84.5t-47.5 -80t-44 -79.5t-44.5 -82q-27 -15 -77 -15q-15 0 -25 2
q60 92 122 180.5t139 184.5l-238 339v0z" />
    <glyph glyph-name="Y" unicode="Y" horiz-adv-x="669" 
d="M132 721q42 -93 101 -197.5t125 -201.5q60 90 111 187t89 201q14 7 28 9.5t31 2.5q13 0 21 -2q-17 -43 -46 -97.5t-63.5 -112.5t-72 -114t-71.5 -101v-286q-16 -9 -37.5 -12.5t-44.5 -3.5v280q-74 104 -137 209t-115 216q14 10 35 16.5t46 6.5z" />
    <glyph glyph-name="Z" unicode="Z" horiz-adv-x="639" 
d="M146 37q106 4 213.5 8.5t235.5 11.5q-2 -24 -12.5 -41t-22.5 -23h-501q-6 2 -12 9.5t-8 12.5l450 657q-108 -5 -211 -9t-191 -6q3 21 12 38t19 24h466q4 -2 8.5 -7.5t6.5 -11.5z" />
    <glyph glyph-name="bracketleft" unicode="[" horiz-adv-x="340" 
d="M131 -161q-14 7 -20 20v929q8 11 28.5 21.5t52.5 10.5h128q0 -19 -8 -33.5t-22 -14.5h-107v-886h137q0 -22 -8.5 -34.5t-21.5 -12.5h-159z" />
    <glyph glyph-name="backslash" unicode="\" horiz-adv-x="387" 
d="M2 809q13 8 28.5 11t27.5 3l327 -902q-9 -6 -26 -9t-31 -3z" />
    <glyph glyph-name="bracketright" unicode="]" horiz-adv-x="340" 
d="M209 820q15 -9 20 -21v-928q-8 -11 -28.5 -21.5t-52.5 -10.5h-128q0 20 8 33.5t22 13.5h107v886h-137q0 23 8.5 35.5t21.5 12.5h159z" />
    <glyph glyph-name="asciicircum" unicode="^" horiz-adv-x="546" 
d="M421 393q-17 38 -35.5 80t-38 84t-40 82.5t-41.5 75.5q-22 -36 -41.5 -77t-37.5 -82.5t-33 -82t-28 -75.5q-9 -5 -21.5 -7t-24.5 -2q-18 0 -28 3q17 36 40 83.5t49.5 97.5t54 98t53.5 87q11 7 27 11t30 4q24 -32 50 -78t51 -95.5t47.5 -98.5t39.5 -86q-11 -10 -32 -16
t-41 -6z" />
    <glyph glyph-name="underscore" unicode="_" horiz-adv-x="472" 
d="M462 -49q-2 -20 -11.5 -35.5t-23.5 -15.5h-417q2 22 12 36.5t23 14.5h417z" />
    <glyph glyph-name="grave" unicode="`" horiz-adv-x="346" 
d="M248 602q-20 9 -46 28t-51.5 42.5t-48.5 48.5t-38 47q22 14 61 14q11 0 17 -2q26 -42 63 -86.5t75 -81.5q-4 -5 -13.5 -7.5t-18.5 -2.5z" />
    <glyph glyph-name="a" unicode="a" horiz-adv-x="568" 
d="M533 37q-3 -5 -9.5 -12t-14.5 -13.5t-17.5 -11.5t-17.5 -7q-32 2 -54 24.5t-24 59.5q-8 -15 -24 -31.5t-38.5 -30t-51.5 -22t-63 -8.5q-71 0 -112.5 36t-41.5 96q0 62 47 104t161 62l119 21v39q0 72 -33.5 110t-99.5 38q-41 0 -69.5 -20.5t-28.5 -60.5q0 -18 12 -32
q-9 -12 -29 -22t-41 -12q-5 5 -12 15t-7 27q0 31 18 58t47 46.5t67 30.5t79 11q96 0 136 -43.5t40 -121.5v-251q0 -41 18 -56.5t42 -18.5zM251 38q52 0 88.5 24t52.5 62v144l-134 -24q-54 -10 -82.5 -34t-28.5 -69q0 -50 30.5 -76.5t73.5 -26.5z" />
    <glyph glyph-name="b" unicode="b" horiz-adv-x="642" 
d="M94 755q17 9 37.5 13t41.5 4v-342q14 18 33.5 36t44.5 32.5t55.5 24t65.5 9.5q50 0 89.5 -18t67.5 -50t42.5 -75.5t14.5 -93.5q0 -65 -22 -121.5t-61.5 -98.5t-95 -66.5t-122.5 -24.5q-68 0 -115 15t-76 35v721zM335 476q-53 0 -96 -31.5t-66 -77.5v-294q24 -19 61.5 -31
t84.5 -12q38 0 71.5 14.5t58.5 42.5t39.5 70t14.5 97q0 106 -45 164t-123 58z" />
    <glyph glyph-name="c" unicode="c" horiz-adv-x="549" 
d="M498 414q-6 -11 -23.5 -23t-43.5 -15q-3 17 -11.5 36.5t-24.5 36t-40 27t-58 10.5q-28 0 -56.5 -11t-51.5 -36t-37.5 -64t-14.5 -95q0 -60 16 -104.5t43 -74t62.5 -44t74.5 -14.5q51 0 86.5 15.5t60.5 44.5q6 -1 12 -7t8 -11q-8 -14 -24.5 -31.5t-41.5 -32.5t-58 -25.5
t-75 -10.5q-50 0 -94.5 17t-78 51t-53 83t-19.5 114q0 57 21 107.5t57.5 89t86.5 61t108 22.5q48 0 80 -13.5t51.5 -32t28.5 -38.5t9 -32z" />
    <glyph glyph-name="d" unicode="d" horiz-adv-x="634" 
d="M462 69q-11 -15 -27 -30t-38.5 -27t-51.5 -20t-65 -8q-44 0 -84 16t-71.5 47.5t-50 78t-18.5 107.5q0 60 22.5 114.5t61.5 95.5t91.5 65t112.5 24q40 0 68.5 -9.5t49.5 -23.5v256q17 9 37.5 13t41.5 4v-764q-14 -8 -36.5 -11.5t-42.5 -3.5v76zM317 41q56 0 92.5 26.5
t52.5 61.5v271q-8 16 -20.5 31.5t-30.5 28t-41.5 20t-52.5 7.5q-33 0 -65 -13t-57.5 -39.5t-41 -67.5t-15.5 -96q0 -63 16.5 -106.5t42 -71t57.5 -40t63 -12.5z" />
    <glyph glyph-name="e" unicode="e" horiz-adv-x="556" 
d="M136 258q3 -54 19.5 -94.5t42.5 -67.5t60.5 -40.5t73.5 -13.5q49 0 84.5 13t64.5 41q14 -3 19 -19q-7 -11 -22.5 -27t-41 -31t-61 -25.5t-82.5 -10.5q-50 0 -93 18t-75 52t-50.5 84t-18.5 113q0 58 20 109.5t54.5 89.5t81 60.5t99.5 22.5q57 0 94 -19t58.5 -49t30 -66
t8.5 -70q-8 -12 -21.5 -21t-29.5 -14zM285 487q-31 0 -58 -11t-47 -34t-32.5 -59t-13.5 -87l282 29q1 5 1 10v9q0 31 -8 57t-24.5 45t-41 30t-58.5 11z" />
    <glyph glyph-name="f" unicode="f" horiz-adv-x="395" 
d="M24 481q9 11 26.5 20.5t37.5 9.5h26v28q0 46 16 89t45.5 76t70 52.5t90.5 19.5q34 0 57.5 -9t38.5 -22.5t22.5 -28t8.5 -26.5q-5 -11 -23 -23t-38 -14q-2 10 -7 23.5t-16 26t-29.5 21.5t-45.5 9q-22 0 -42 -7t-35.5 -23t-24.5 -40.5t-9 -58.5v-93h182q-1 -17 -11.5 -28.5
t-22.5 -11.5h-148v-463q-14 -8 -36.5 -11.5t-42.5 -3.5v478h-90v10z" />
    <glyph glyph-name="g" unicode="g" horiz-adv-x="571" 
d="M259 169q-15 0 -28.5 1.5t-27.5 3.5q-26 -10 -42 -25.5t-16 -34.5q0 -29 30 -40t88 -14l105 -5q47 -2 79.5 -15t52.5 -32.5t29 -43.5t9 -48q0 -41 -21 -75t-58.5 -58t-89.5 -37.5t-114 -13.5q-47 0 -86 8t-67.5 24.5t-44.5 40t-16 55.5q0 25 9.5 44t25 33t34.5 23.5
t38 14.5q5 -2 8 -8t4 -11q-18 -10 -31 -27t-13 -48q0 -26 13.5 -45.5t37.5 -32.5t57.5 -19t73.5 -6q85 0 127.5 30t42.5 75t-32 73t-111 33l-104 6q-75 5 -110 25.5t-35 62.5q0 18 7.5 34t20 29t28 23.5t30.5 17.5q-44 19 -69 56.5t-25 91.5q0 41 17.5 77t48.5 62.5t72.5 42
t89.5 15.5q17 0 32 -2t29 -5q5 -1 10.5 -1h13.5q44 0 60.5 14.5t16.5 36.5q0 13 -5 22.5t-13 16.5q31 29 74 29q9 -8 15 -21.5t6 -30.5q0 -42 -33.5 -64.5t-87.5 -24.5q38 -25 54.5 -63t16.5 -76q0 -44 -18 -79.5t-48.5 -61t-72 -39.5t-87.5 -14zM271 492q-25 0 -46.5 -8.5
t-38 -25t-26 -40.5t-9.5 -56q0 -36 10 -64.5t27.5 -48t41.5 -30t51 -10.5q25 0 47 7t38.5 22t26 39t9.5 58q0 31 -8.5 59t-25 50t-41 35t-56.5 13z" />
    <glyph glyph-name="h" unicode="h" horiz-adv-x="637" 
d="M467 312q0 85 -35 124.5t-99 39.5q-23 0 -46 -8.5t-43.5 -23t-38.5 -33t-32 -39.5v-364q-14 -8 -36.5 -11.5t-42.5 -3.5v762q17 9 37.5 13t41.5 4v-342q14 17 34 35t45 33t54.5 24.5t63.5 9.5q81 0 128.5 -49t47.5 -140v-335q-14 -8 -36.5 -11.5t-42.5 -3.5v319z" />
    <glyph glyph-name="i" unicode="i" horiz-adv-x="268" 
d="M199 679q-9 -16 -28 -33.5t-34 -24.5q-15 7 -34 24.5t-29 33.5q10 17 29 35t34 26q15 -8 34.5 -26t27.5 -35zM95 505q17 9 37.5 13t41.5 4v-514q-14 -8 -36.5 -11.5t-42.5 -3.5v512z" />
    <glyph glyph-name="j" unicode="j" horiz-adv-x="271" 
d="M-36 -258q-52 0 -78.5 20.5t-34.5 41.5q5 15 21 29.5t35 19.5q9 -21 30.5 -38.5t57.5 -17.5q21 0 40 7t33 23t22 42t8 64v572q17 9 37.5 13t41.5 4v-531q0 -59 -19.5 -105t-50.5 -78t-69 -49t-74 -17zM199 679q-9 -16 -28 -33.5t-34 -24.5q-15 7 -34 24.5t-29 33.5
q10 17 29 35t34 26q15 -8 34.5 -26t27.5 -35z" />
    <glyph glyph-name="k" unicode="k" horiz-adv-x="569" 
d="M94 755q17 9 37.5 13t41.5 4v-494q30 18 61.5 43t63 55t62.5 64.5t59 70.5q10 6 27 9t34 3t28 -3q-20 -27 -49 -57t-60.5 -58.5t-63.5 -54.5t-59 -45q26 -5 44.5 -25t42.5 -52l83 -111q17 -23 30 -39.5t24 -29t20 -21.5t19 -16v-5q-13 -7 -38 -10t-41 -3
q-13 5 -29.5 22.5t-44.5 55.5l-85 117q-14 19 -24.5 33t-20 22t-19 12t-21.5 4t-23 -4.5t-20 -10.5v-236q-14 -8 -36.5 -11.5t-42.5 -3.5v762z" />
    <glyph glyph-name="l" unicode="l" horiz-adv-x="269" 
d="M95 755q17 9 37.5 13t41.5 4v-764q-14 -8 -36.5 -11.5t-42.5 -3.5v762z" />
    <glyph glyph-name="m" unicode="m" horiz-adv-x="957" 
d="M442 314q0 82 -32.5 121.5t-93.5 39.5q-48 0 -86 -29t-59 -69v-369q-14 -8 -36.5 -11.5t-42.5 -3.5v512q33 17 74 17v-93q11 17 28.5 35.5t41 33.5t52.5 24.5t63 9.5q62 0 101.5 -32.5t53.5 -78.5q12 16 30.5 35.5t42.5 36.5t53.5 28t63.5 11q76 0 123.5 -47.5
t47.5 -139.5v-337q-14 -8 -36.5 -11.5t-42.5 -3.5v321q0 161 -125 161q-41 0 -79.5 -27.5t-62.5 -68.5v-371q-14 -8 -36.5 -11.5t-42.5 -3.5v321z" />
    <glyph glyph-name="n" unicode="n" horiz-adv-x="633" 
d="M464 312q0 85 -35 124.5t-99 39.5q-23 0 -45.5 -8.5t-43 -22.5t-38.5 -32.5t-32 -38.5v-366q-14 -8 -36.5 -11.5t-42.5 -3.5v512q33 17 74 17v-99q13 17 33.5 36.5t46 35.5t56 26.5t65.5 10.5q81 0 128.5 -49t47.5 -140v-335q-14 -8 -36.5 -11.5t-42.5 -3.5v319z" />
    <glyph glyph-name="o" unicode="o" horiz-adv-x="628" 
d="M140 279q0 -63 15.5 -110t41 -78.5t59 -47.5t70.5 -16q80 0 122 53.5t42 161.5q0 52 -12 97t-35.5 78t-57.5 52t-78 19q-32 0 -62 -12t-53 -37.5t-37.5 -65t-14.5 -94.5zM56 248q0 61 22 113.5t59.5 90t88 59t107.5 21.5q62 0 107.5 -21t75 -56t44 -82t14.5 -99
q0 -61 -19 -114t-54.5 -92.5t-86.5 -62.5t-116 -23q-48 0 -92 18t-77.5 52t-53 83.5t-19.5 112.5z" />
    <glyph glyph-name="p" unicode="p" horiz-adv-x="639" 
d="M92 505q17 9 37.5 13t41.5 4v-89q14 17 34 34.5t45 32t55 23.5t64 9q52 0 92 -17.5t67 -49t41 -74.5t14 -94q0 -66 -23 -123.5t-63.5 -100t-96 -67t-120.5 -24.5q-35 0 -62 7.5t-47 18.5v-251q-14 -8 -36.5 -11.5t-42.5 -3.5v763zM331 475q-47 0 -90.5 -28t-69.5 -71
v-273q26 -37 65 -54.5t85 -17.5q38 0 70.5 14t56.5 42.5t38 71.5t14 101q0 107 -44 161t-125 54z" />
    <glyph glyph-name="q" unicode="q" horiz-adv-x="621" 
d="M454 61q-11 -12 -27 -25t-38 -23.5t-49 -17.5t-61 -7q-42 0 -82 14.5t-71.5 45t-50.5 77.5t-19 111q0 61 23.5 115t63.5 93.5t93 62.5t112 23q43 0 74.5 -8.5t53.5 -20t36 -24.5t21 -22v-698q-14 -8 -36.5 -11.5t-42.5 -3.5v319zM316 43q51 0 86 22.5t52 47.5v303
q-17 25 -51 47t-84 22q-34 0 -66 -12.5t-57.5 -39t-41 -67t-15.5 -95.5q0 -59 15 -101.5t40 -71t57 -42t65 -13.5z" />
    <glyph glyph-name="r" unicode="r" horiz-adv-x="477" 
d="M92 505q33 17 75 17v-144q10 30 27 57.5t40.5 48.5t52.5 33.5t64 12.5q27 0 47 -8.5t33 -21t19.5 -28.5t7.5 -31q-8 -14 -27.5 -24t-38.5 -12q-5 27 -22 48t-57 21q-29 0 -53.5 -17t-43.5 -47.5t-30.5 -72.5t-14.5 -92v-237q-14 -8 -36.5 -11.5t-42.5 -3.5v512z" />
    <glyph glyph-name="s" unicode="s" horiz-adv-x="519" 
d="M50 106q8 14 26.5 26t39.5 14q7 -51 49.5 -84.5t108.5 -33.5q63 0 93.5 27.5t30.5 68.5t-28.5 64t-97.5 40l-59 15q-32 8 -57.5 18t-44 24.5t-28.5 34.5t-10 49q0 31 16 60.5t44.5 52.5t66 36.5t81.5 13.5q45 0 76 -10.5t51.5 -26t30 -33.5t10.5 -32q-7 -14 -24 -24.5
t-37 -12.5q-7 38 -39 66t-96 28q-21 0 -41.5 -5.5t-36.5 -16.5t-26 -26.5t-10 -36.5q0 -34 24 -54.5t84 -34.5l61 -15q87 -22 124.5 -55.5t37.5 -85.5q0 -33 -15 -64.5t-44 -56t-71 -39t-96 -14.5q-47 0 -82 11.5t-59.5 29.5t-37.5 39.5t-15 42.5z" />
    <glyph glyph-name="t" unicode="t" horiz-adv-x="427" 
d="M22 481q8 11 25.5 20.5t38.5 9.5h32v144q16 13 37.5 19.5t41.5 6.5v-170h196q-1 -17 -9.5 -28.5t-21.5 -11.5h-165v-328q0 -32 7.5 -51.5t20.5 -30.5t30 -15t35 -4q33 0 55 13t36 27q14 -4 18 -17q-5 -8 -16 -21t-29 -25.5t-43 -21.5t-56 -9q-28 0 -53 7t-43.5 23
t-29.5 43t-11 67v343h-96v10z" />
    <glyph glyph-name="u" unicode="u" horiz-adv-x="624" 
d="M308 40q48 0 87 27.5t59 74.5v363q17 9 37.5 13t41.5 4v-514q-14 -8 -34.5 -11.5t-40.5 -3.5v95q-10 -17 -27.5 -35.5t-41.5 -34t-54.5 -25.5t-67.5 -10t-69.5 11t-56.5 34.5t-38 59t-14 84.5v333q17 9 37.5 13t41.5 4v-320q0 -45 11 -76t30 -50t44.5 -27.5t54.5 -8.5z
" />
    <glyph glyph-name="v" unicode="v" horiz-adv-x="560" 
d="M320 11q-12 -8 -33.5 -13t-38.5 -5q-27 46 -57 111.5t-58 136t-50.5 138.5t-35.5 121q17 11 36.5 16.5t40.5 5.5q11 -48 29.5 -109t41.5 -125.5t48.5 -127.5t51.5 -115q54 108 94.5 229.5t63.5 233.5q11 6 26 10t30 4h10t10 -1q-16 -60 -39 -126t-50.5 -132.5t-58 -131
t-61.5 -120.5z" />
    <glyph glyph-name="w" unicode="w" horiz-adv-x="863" 
d="M292 10q-12 -8 -33 -12.5t-40 -4.5q-23 53 -46.5 117.5t-45 132t-40 134t-30.5 125.5q33 20 78 20q8 -48 22 -104.5t32 -117.5t39 -122.5t42 -119.5q21 51 41 107.5t38 113.5t33 113.5t26 107.5q17 10 37 14t37 4q9 -48 24.5 -106t34.5 -119.5t40.5 -123t43.5 -118.5
q21 53 39.5 112t34 119t27 118.5t19.5 110.5q24 11 53 11q17 0 23 -2q-14 -59 -32.5 -123t-41 -130t-48 -131t-52.5 -126q-12 -8 -34 -12.5t-39 -4.5q-19 44 -38.5 96t-38 107t-35.5 110.5t-30 108.5q-11 -44 -27 -96t-35 -106t-39 -106t-39 -97z" />
    <glyph glyph-name="x" unicode="x" horiz-adv-x="550" 
d="M492 523q-30 -63 -77.5 -128t-96.5 -125l200 -259q-17 -11 -42 -14.5t-43 -3.5l-166 235q-42 -57 -77 -112t-71 -116q-12 -5 -28.5 -7.5t-31.5 -2.5q-18 0 -27 3q44 63 96 129.5t108 132.5l-181 242q15 11 35.5 18t43.5 7l155 -226q33 48 65.5 102t58.5 112q12 8 28 11
t32 3h9.5t9.5 -1z" />
    <glyph glyph-name="y" unicode="y" horiz-adv-x="570" 
d="M124 522q14 -51 33.5 -109.5t43 -118.5t49 -119t51.5 -110q62 123 99 234.5t60 211.5q13 6 28.5 8.5t29.5 2.5h10.5t10.5 -1q-28 -90 -77 -208.5t-112 -245.5q-27 -55 -49.5 -99t-42.5 -81t-39 -69l-38 -64q-10 -5 -28.5 -8.5t-38.5 -3.5q-19 0 -32 3v4q42 49 87 107
t90 133q-30 53 -62 119t-60.5 134t-53 134.5t-39.5 121.5q16 11 38.5 17.5t41.5 6.5z" />
    <glyph glyph-name="z" unicode="z" horiz-adv-x="503" 
d="M456 522q9 -6 13 -19l-341 -471q39 1 78 2.5t80 3.5t86 4.5t97 7.5q-2 -20 -11 -35.5t-21 -21.5h-393q-4 2 -8 7.5t-6 10.5l339 470q-78 -5 -156 -8t-142 -7q2 38 24 56h361v0z" />
    <glyph glyph-name="braceleft" unicode="{" horiz-adv-x="338" 
d="M292 833q7 -3 10.5 -11.5t3.5 -16.5q-17 -6 -31 -14t-24.5 -21t-16.5 -33.5t-6 -52.5v-193q0 -36 -7 -59.5t-19 -40t-29 -27.5t-36 -22q46 -20 67 -57t21 -97v-195q0 -28 5.5 -46.5t15.5 -30.5t23.5 -19t28.5 -11q-5 -17 -17 -32t-27 -21q-20 4 -38.5 13.5t-32.5 26
t-22 40t-8 56.5v196q0 38 -7.5 64t-21.5 42.5t-33 26t-43 14.5q-3 7 -3 20q0 9 3 17q19 4 38 10t34.5 19t25.5 33.5t10 52.5v188q0 75 30.5 119t105.5 62z" />
    <glyph glyph-name="bar" unicode="|" horiz-adv-x="289" 
d="M112 823q11 9 28.5 15t36.5 6v-1009q-11 -9 -28.5 -14t-36.5 -6v1008v0z" />
    <glyph glyph-name="braceright" unicode="}" horiz-adv-x="338" 
d="M46 -167q-6 3 -10 11t-4 16q17 7 31.5 14.5t25 20.5t16 33.5t5.5 53.5v193q0 35 7 58.5t19 40t28.5 28t36.5 22.5q-46 19 -66.5 56t-20.5 98v195q0 28 -6 46t-15.5 30t-23 18.5t-28.5 11.5q5 17 16.5 32.5t26.5 21.5q20 -4 38.5 -13.5t32.5 -26t22 -40.5t8 -57v-196
q0 -38 7.5 -63.5t21.5 -42.5t33.5 -26.5t42.5 -14.5q3 -9 3 -21q0 -9 -3 -16q-19 -4 -38 -10t-34.5 -18.5t-25.5 -33t-10 -53.5v-188q0 -75 -30.5 -119t-105.5 -61z" />
    <glyph glyph-name="asciitilde" unicode="~" horiz-adv-x="598" 
d="M528 378q9 -1 16 -5.5t11 -10.5q-6 -14 -18 -31.5t-30.5 -32.5t-43.5 -25.5t-58 -10.5q-23 0 -46.5 5t-56.5 20l-63 29q-25 11 -44 18t-39 7q-29 0 -50.5 -15t-37.5 -34q-8 1 -15.5 6.5t-9.5 11.5q25 40 63 67t83 27q24 0 45.5 -6.5t43.5 -17.5l57 -27q39 -19 60 -23.5
t42 -4.5q35 0 55.5 14t35.5 39z" />
    <glyph glyph-name="uni00A0" unicode="&#xa0;" horiz-adv-x="265" 
 />
    <glyph glyph-name="exclamdown" unicode="&#xa1;" horiz-adv-x="276" 
d="M182 -197q-28 -22 -86 -22l18 534q10 8 24.5 12.5t26.5 4.5zM206 465q-11 -20 -30.5 -37.5t-36.5 -25.5q-18 8 -37 25.5t-30 37.5q11 19 30.5 37.5t36.5 26.5q20 -8 39 -26.5t28 -37.5z" />
    <glyph glyph-name="cent" unicode="&#xa2;" horiz-adv-x="549" 
d="M499 416q-5 -12 -23 -23t-44 -13q-3 15 -10 32.5t-20.5 32.5t-33.5 26t-47 15v-448h15q51 0 86.5 16t61.5 45q5 -1 9.5 -6t6.5 -10q-8 -13 -22.5 -29.5t-36.5 -31t-51.5 -25.5t-68.5 -13v-116q-7 -8 -19 -12t-25 -4v132q-45 4 -85.5 24t-70.5 54t-47.5 81.5t-17.5 106.5
q0 50 16.5 96t45.5 82.5t70 62.5t89 35v107q8 6 20 10.5t24 4.5v-116h9q47 0 79.5 -13.5t52 -32t28.5 -38.5t9 -32zM132 280q0 -47 11.5 -85.5t31 -68t46 -49.5t56.5 -30v439q-26 -3 -52 -16.5t-46.5 -38.5t-33.5 -62.5t-13 -88.5z" />
    <glyph glyph-name="sterling" unicode="&#xa3;" horiz-adv-x="596" 
d="M84 -7q-11 3 -21.5 13.5t-11.5 21.5q22 10 47.5 26t47.5 40t36.5 56t14.5 73q0 29 -9.5 61.5t-20.5 66.5h-127q2 22 12.5 33.5t23.5 11.5h76q-8 25 -13.5 49t-5.5 47q0 52 18.5 95.5t51 75.5t76.5 50t95 18q40 0 67 -9.5t44.5 -24t25.5 -30t10 -27.5q-6 -12 -26.5 -25.5
t-44.5 -15.5q-3 13 -9.5 28t-19.5 28t-33.5 22t-51.5 9q-23 0 -46 -8t-41 -25t-29.5 -44t-11.5 -65q0 -32 11.5 -71t24.5 -77h251q-2 -21 -11.5 -33t-24.5 -12h-201q6 -21 10 -41t4 -40q0 -62 -25.5 -105.5t-59.5 -75.5q15 10 31.5 17t38.5 7q23 0 46.5 -9.5t47.5 -20.5
t49 -20.5t50 -9.5q38 0 59 15t38 37q6 -1 11.5 -5t7.5 -9q-9 -17 -22 -34.5t-31.5 -31.5t-42.5 -23t-54 -9q-28 0 -55 9.5t-52.5 20.5t-50 20.5t-47.5 9.5q-19 0 -35 -5t-31 -13t-29.5 -19t-31.5 -23z" />
    <glyph glyph-name="currency" unicode="&#xa4;" horiz-adv-x="616" 
d="M75 322q0 53 19.5 97t54.5 76l-96 111q4 8 13.5 15.5t20.5 9.5l95 -110q30 20 66 30.5t76 10.5q39 0 71 -10t58 -28l91 109q11 -2 18.5 -9.5t11.5 -15.5l-92 -109q26 -29 40 -66.5t14 -79.5q0 -54 -18.5 -99t-52.5 -78l106 -121q-5 -10 -13.5 -16.5t-18.5 -9.5l-106 121
q-29 -20 -64.5 -30.5t-77.5 -10.5q-69 0 -122 33l-93 -112q-11 2 -20 8.5t-13 14.5l95 114q-29 28 -46 67.5t-17 87.5zM152 352q0 -45 12 -82.5t33.5 -64t52 -41t67.5 -14.5q63 0 102.5 45t39.5 126q0 47 -12 84t-33.5 63t-51 39.5t-65.5 13.5q-29 0 -55.5 -11t-46.5 -32.5
t-31.5 -53t-11.5 -72.5z" />
    <glyph glyph-name="yen" unicode="&#xa5;" horiz-adv-x="670" 
d="M137 721q19 -44 46.5 -99t58 -110.5t62 -106t57.5 -86.5q57 88 104 190t81 199q14 8 30 11t32 3h9.5t9.5 -1q-11 -29 -27.5 -64t-36 -73.5t-41.5 -79t-46 -79.5h152q-2 -20 -11.5 -32.5t-24.5 -12.5h-144q-16 -26 -32.5 -51.5t-32.5 -48.5h235q-2 -20 -12 -32.5
t-24 -12.5h-199v-226q-16 -9 -37.5 -12.5t-44.5 -3.5v242h-243q3 22 13 33.5t23 11.5h207q-36 50 -68 101h-165q4 23 13.5 34t22.5 11h101q-42 69 -79.5 138.5t-66.5 133.5q15 11 36 17t42 6z" />
    <glyph glyph-name="brokenbar" unicode="&#xa6;" horiz-adv-x="289" 
d="M177 411q-11 -8 -29 -14t-36 -7v433q11 8 29 14.5t36 6.5v-433zM177 -165q-11 -8 -29 -13.5t-36 -6.5v433q11 8 29 14t36 6v-433z" />
    <glyph glyph-name="section" unicode="&#xa7;" horiz-adv-x="564" 
d="M505 293q0 -45 -21.5 -78.5t-52.5 -54.5q23 -20 33 -43.5t10 -51.5q0 -38 -15 -71t-44 -58t-72 -39.5t-99 -14.5q-46 0 -80.5 11.5t-57.5 29.5t-35 41t-14 46q11 16 30 25t36 10q2 -23 11 -44.5t27 -38.5t45.5 -27.5t66.5 -10.5q63 0 99 29.5t36 78.5q0 39 -24.5 67
t-91.5 50l-88 29q-74 24 -108 53t-34 79q0 42 24.5 75t70.5 57q-31 20 -46.5 45t-15.5 60q0 33 17 64.5t47 56t71 39t89 14.5q45 0 76 -12t51 -28.5t29.5 -35t10.5 -31.5q-8 -13 -25.5 -23.5t-37.5 -12.5q-7 40 -38 69.5t-96 29.5q-27 0 -50.5 -7t-40.5 -19.5t-27 -30.5
t-10 -40q0 -38 24.5 -62t78.5 -41l86 -28q84 -26 119.5 -65t35.5 -91zM229 410q-10 3 -19 6t-17 7q-32 -12 -49.5 -32t-17.5 -47q0 -38 26.5 -60t89.5 -42l76 -24q52 -16 86 -38q17 14 26.5 33t9.5 45q0 42 -28 71t-91 50z" />
    <glyph glyph-name="dieresis" unicode="&#xa8;" horiz-adv-x="388" 
d="M352 675q-4 -7 -11 -15t-14.5 -15.5t-15.5 -13.5t-15 -10q-15 7 -32.5 23t-28.5 31q12 16 28.5 32t32.5 25q14 -8 30.5 -24.5t25.5 -32.5zM153 675q-4 -7 -11 -15t-14.5 -15.5t-15.5 -13.5t-15 -10q-15 7 -32.5 23t-28.5 31q12 16 28.5 32t32.5 25q14 -8 30.5 -24.5
t25.5 -32.5z" />
    <glyph glyph-name="copyright" unicode="&#xa9;" horiz-adv-x="857" 
d="M587 485q-5 -11 -20.5 -19.5t-34.5 -9.5q-2 14 -9 28.5t-19.5 26.5t-31.5 20t-46 8q-23 0 -45.5 -8.5t-40.5 -28t-29 -50.5t-11 -76q0 -47 13 -82.5t34.5 -59t50 -35.5t59.5 -12q41 0 68 13.5t47 36.5q5 -1 10 -6t7 -10q-7 -11 -19.5 -25.5t-32 -27.5t-46.5 -21.5
t-62 -8.5q-39 0 -74.5 14.5t-62.5 42t-43 67t-16 89.5q0 46 17 87t46 72t69 49t87 18q37 0 63 -10.5t42 -25.5t23 -30.5t7 -25.5zM64 353q0 77 30 144t81 117t118.5 79t143.5 29q81 0 147 -27t112.5 -75t71.5 -114t25 -144q0 -76 -29.5 -143t-80 -117.5t-118 -80
t-143.5 -29.5q-80 0 -146 26.5t-113 74t-73 114t-26 146.5zM114 356q0 -69 23 -128t64 -103t99 -69t127 -25q68 0 126 25.5t100 70t66 103.5t24 126q0 70 -23 130t-64 104t-98 68.5t-126 24.5t-127.5 -25t-100.5 -69t-66 -104t-24 -129z" />
    <glyph glyph-name="ordfeminine" unicode="&#xaa;" horiz-adv-x="399" 
d="M345 496q-5 -8 -19.5 -15t-27.5 -8q-15 2 -25 15.5t-11 33.5q-5 -9 -15 -18.5t-23.5 -17.5t-30.5 -13.5t-38 -5.5q-44 0 -71 21t-27 61q0 38 32 64t102 40l68 13v19q0 44 -16 65t-55 21q-24 0 -44.5 -11.5t-20.5 -35.5q0 -12 7 -19q-4 -8 -21 -15.5t-32 -7.5
q-12 9 -12 28q0 18 12 34.5t32 29t45.5 20t53.5 7.5q57 0 81.5 -28t24.5 -73v-153q0 -26 8 -36t22 -12zM179 502q26 0 48.5 16t31.5 40v80l-78 -14q-32 -6 -48 -22.5t-16 -39.5q0 -30 17.5 -45t44.5 -15z" />
    <glyph glyph-name="guillemotleft" unicode="&#xab;" horiz-adv-x="584" 
d="M518 402q-18 -13 -39.5 -28.5t-44 -32t-44.5 -33.5t-41 -33q15 -20 40 -46t52.5 -52.5t54 -49.5t43.5 -36q-5 -14 -18.5 -28.5t-28.5 -20.5q-18 12 -48 38.5t-60.5 56.5t-57 58.5t-36.5 46.5q0 10 3 18q12 18 42 48t66 62t72 61.5t59 45.5q1 -4 1 -14q0 -16 -4 -33
t-11 -28zM268 402q-18 -13 -39.5 -28.5t-44 -32t-44.5 -33.5t-41 -33q15 -20 40 -46t52.5 -52.5t54 -49.5t43.5 -36q-5 -14 -18.5 -28.5t-28.5 -20.5q-18 12 -48 38.5t-60.5 56.5t-57 58.5t-36.5 46.5q0 10 3 18q12 18 42 48t66 62t72 61.5t59 45.5q1 -4 1 -14q0 -16 -4 -33
t-11 -28z" />
    <glyph glyph-name="logicalnot" unicode="&#xac;" horiz-adv-x="570" 
d="M516 170q-8 -8 -23.5 -13.5t-32.5 -6.5v156h-417q3 26 14.5 41.5t25.5 15.5h433v-193z" />
    <glyph glyph-name="uni00AD" unicode="&#xad;" horiz-adv-x="385" 
d="M48 272q2 21 12 41.5t24 20.5h253q-2 -26 -12 -44t-24 -18h-253z" />
    <glyph glyph-name="registered" unicode="&#xae;" horiz-adv-x="639" 
d="M58 509q0 55 21.5 103t58.5 83.5t86 56t103 20.5q58 0 104.5 -18.5t79.5 -52.5t51 -81t18 -105q0 -54 -21 -102t-57.5 -84t-85 -57t-102.5 -21q-56 0 -103 19t-81 53t-53 81.5t-19 104.5zM101 511q0 -50 15 -91.5t43.5 -71.5t68.5 -47t90 -17q48 0 88.5 17.5t70 48
t45.5 72t16 89.5q0 51 -14.5 92.5t-42 71.5t-68 46.5t-91.5 16.5q-50 0 -90.5 -17t-69.5 -47t-45 -72t-16 -91zM323 465q-7 11 -15 15t-24 5h-9v-101q-9 -6 -24 -8.5t-27 -2.5v269q16 6 41 11.5t54 5.5q56 0 81 -24.5t25 -54.5q0 -32 -21.5 -53.5t-55.5 -32.5q8 -2 18 -14
l48 -67q14 -20 28 -31q-8 -5 -23 -7t-28 -2q-12 6 -26 28zM305 632q-18 0 -30 -3v-114q6 -1 12.5 -1.5t14.5 -0.5q32 0 50 14.5t18 42.5q0 29 -19 45.5t-46 16.5z" />
    <glyph glyph-name="macron" unicode="&#xaf;" horiz-adv-x="334" 
d="M15 646q2 21 12.5 37.5t21.5 16.5h263q-2 -22 -11.5 -38t-23.5 -16h-262z" />
    <glyph glyph-name="degree" unicode="&#xb0;" horiz-adv-x="369" 
d="M103 625q0 -56 25.5 -84.5t63.5 -28.5q33 0 53.5 23.5t20.5 72.5q0 51 -23.5 80t-61.5 29q-31 0 -54.5 -23t-23.5 -69zM43 606q0 30 11.5 56t32 45t49 30t61.5 11t57.5 -10t40 -26.5t23.5 -38.5t8 -47q0 -32 -11 -58.5t-30.5 -46t-47 -30t-60.5 -10.5q-28 0 -52.5 8
t-42.5 23.5t-28.5 39t-10.5 54.5z" />
    <glyph glyph-name="plusminus" unicode="&#xb1;" horiz-adv-x="587" 
d="M325 359v-208q-24 -18 -67 -18v226h-206q3 26 14.5 41.5t25.5 15.5h166v194q12 9 29.5 14.5t37.5 5.5v-214h210q-2 -29 -13.5 -43t-26.5 -14h-170zM59 -7q3 26 14.5 41.5t25.5 15.5h433q-2 -29 -13.5 -43t-26.5 -14h-433z" />
    <glyph glyph-name="two.superior" unicode="&#xb2;" horiz-adv-x="398" 
d="M59 415q-3 2 -6 8t-4 11l99 84q34 29 58.5 53t40 46t23 42.5t7.5 43.5q0 39 -19 63t-60 24q-29 0 -51 -15.5t-22 -45.5q0 -20 13 -33q-6 -8 -22 -15.5t-33 -7.5q-6 3 -13 14t-7 28q0 24 12.5 44.5t33 35t47 22.5t55.5 8q34 0 59 -8.5t41 -23.5t23.5 -34.5t7.5 -40.5
q0 -49 -34.5 -96.5t-105.5 -106.5l-66 -55h218q-2 -18 -12.5 -31.5t-24.5 -13.5h-258v0z" />
    <glyph glyph-name="three.superior" unicode="&#xb3;" horiz-adv-x="404" 
d="M139 710q-8 -8 -24.5 -13.5t-32.5 -5.5q-5 3 -10.5 12t-5.5 24q0 19 11.5 37t32 31.5t47.5 21.5t57 8q32 0 55.5 -8t39 -20.5t23 -29t7.5 -33.5q0 -38 -24 -63t-60 -39q50 -6 75.5 -31t25.5 -62q0 -27 -12 -50.5t-34 -41.5t-54 -28.5t-72 -10.5q-61 0 -95.5 27t-34.5 71
q0 11 3 17q10 8 25 12.5t29 4.5q-1 -3 -1 -6.5v-6.5q0 -35 25 -60t67 -25q46 0 67.5 22.5t21.5 56.5q0 25 -8 41.5t-22 27t-32.5 15t-40.5 4.5h-9t-10 -1q0 8 3 15.5t8 12.5q45 6 71 24.5t26 58.5q0 33 -20 52.5t-58 19.5q-31 0 -51.5 -13.5t-20.5 -36.5q0 -12 4 -19t8 -12z
" />
    <glyph glyph-name="acute" unicode="&#xb4;" horiz-adv-x="341" 
d="M287 779q-14 -24 -37.5 -50.5t-50 -51.5t-53 -45t-47.5 -31q-9 0 -17.5 2.5t-12.5 7.5q35 33 69 75.5t61 82.5q23 13 60 13q16 0 28 -3z" />
    <glyph glyph-name="uni00B5" unicode="&#xb5;" horiz-adv-x="620" 
d="M585 33q-6 -12 -26.5 -24t-37.5 -14q-24 2 -40.5 26.5t-18.5 59.5q-9 -16 -25 -33.5t-38 -31.5t-50 -23.5t-62 -9.5q-38 0 -67 10t-49 28v-264q-14 -8 -36.5 -11.5t-42.5 -3.5v763q17 9 37.5 13t41.5 4v-392q18 -41 56 -65.5t92 -24.5q46 0 84 25t55 65v375q17 9 37.5 13
t41.5 4v-407q0 -43 12.5 -58t34.5 -20z" />
    <glyph glyph-name="paragraph" unicode="&#xb6;" horiz-adv-x="644" 
d="M585 721q6 -3 9.5 -11.5t3.5 -16.5q-17 -3 -34.5 -10t-31.5 -21t-22.5 -38.5t-8.5 -62.5v-447q0 -98 -29 -164.5t-77 -108.5t-109 -64t-125 -31q-10 -2 -19.5 -3t-19.5 -1q-36 0 -62.5 7t-45 18.5t-29 26t-14.5 28.5q6 17 25 34t43 22q3 -15 11.5 -30t22 -26.5t32.5 -19
t44 -7.5q21 0 40.5 7.5t34.5 24t24 44t9 66.5v414h-4q-30 0 -60.5 10t-55 32t-40.5 56t-16 81q0 42 16 77t42.5 60.5t59.5 39.5t68 14h318zM429 529q0 60 20 96.5t46 53.5h-109q-24 -15 -40.5 -43.5t-16.5 -78.5v-556q0 -66 -17 -113.5t-46 -79.5q37 15 67 37t51.5 53.5
t33 73t11.5 95.5v462z" />
    <glyph glyph-name="periodcentered" unicode="&#xb7;" horiz-adv-x="224" 
d="M179 277q-11 -20 -30.5 -37.5t-36.5 -25.5q-18 8 -37 25.5t-30 37.5q11 19 30.5 37.5t36.5 26.5q20 -8 39 -26.5t28 -37.5z" />
    <glyph glyph-name="cedilla" unicode="&#xb8;" horiz-adv-x="204" 
d="M40 -112q-6 4 -6 13l78 105h44l-62 -77q57 -2 81 -23t24 -55q0 -47 -39.5 -74.5t-108.5 -27.5q-15 0 -27 2t-15 4q-4 6 -5.5 15.5t-1.5 16.5q9 -2 21.5 -3t22.5 -1q44 0 67.5 13t23.5 41q0 54 -70 54q-8 0 -15.5 -0.5t-11.5 -2.5z" />
    <glyph glyph-name="one.superior" unicode="&#xb9;" horiz-adv-x="317" 
d="M200 821q16 0 25 -11v-381q-11 -8 -26 -11t-31 -3v339q-21 -22 -53.5 -43.5t-59.5 -32.5q-11 19 -11 45q37 13 80.5 37t75.5 61z" />
    <glyph glyph-name="ordmasculine" unicode="&#xba;" horiz-adv-x="416" 
d="M117 648q0 -38 8 -66t21.5 -46.5t31.5 -27.5t38 -9q40 0 62.5 30.5t22.5 95.5q0 63 -24 103.5t-71 40.5q-15 0 -31 -6t-28.5 -20t-21 -37t-8.5 -58zM54 628q0 39 13.5 71t36 54.5t52.5 34.5t64 12q38 0 65 -11.5t44.5 -32t26 -48.5t8.5 -61q0 -38 -10.5 -70.5
t-31.5 -56.5t-52 -38t-71 -14q-28 0 -54 10t-46.5 30t-32.5 50t-12 70z" />
    <glyph glyph-name="guillemotright" unicode="&#xbb;" horiz-adv-x="584" 
d="M66 116q18 12 39 27.5t43.5 32t44.5 34t42 33.5q-15 20 -40.5 46t-53 52.5t-53.5 49t-43 36.5q5 14 18.5 28.5t28.5 20.5q18 -12 48 -38.5t60.5 -56.5t56.5 -58.5t37 -46.5q0 -11 -3 -18q-12 -18 -42 -48t-66 -62t-72 -61.5t-59 -45.5q-1 5 -1 15q0 16 4 32.5t11 27.5z
M316 116q18 12 39 27.5t43.5 32t44.5 34t42 33.5q-15 20 -40.5 46t-53 52.5t-53.5 49t-43 36.5q5 14 18.5 28.5t28.5 20.5q18 -12 48 -38.5t60.5 -56.5t56.5 -58.5t37 -46.5q0 -11 -3 -18q-12 -18 -42 -48t-66 -62t-72 -61.5t-59 -45.5q-1 5 -1 15q0 16 4 32.5t11 27.5z" />
    <glyph glyph-name="questiondown" unicode="&#xbf;" horiz-adv-x="488" 
d="M352 -7q11 16 32 25.5t41 9.5q9 -6 24 -27t15 -56t-18.5 -67t-51 -56.5t-75.5 -39t-92 -14.5q-50 0 -87 13.5t-61.5 35.5t-36.5 50.5t-12 58.5q0 35 12 63.5t31.5 52.5t45.5 45.5t54 44.5q42 34 58 59t16 55q0 18 -8.5 30t-16.5 20q10 14 31.5 24t41.5 10
q9 -7 19.5 -21.5t10.5 -36.5q0 -18 -5 -34t-18 -34t-35.5 -40.5t-57.5 -52.5q-45 -39 -68.5 -74t-23.5 -83q0 -67 37 -104.5t106 -37.5q24 0 46.5 7.5t40 21t28 33.5t10.5 46t-11 44.5t-22 28.5zM332 465q-11 -20 -30.5 -37.5t-36.5 -25.5q-18 8 -37 25.5t-30 37.5
q11 19 30.5 37.5t36.5 26.5q20 -8 39 -26.5t28 -37.5z" />
    <glyph glyph-name="Agrave" unicode="&#xc0;" horiz-adv-x="679" 
d="M22 -7q33 84 70 179.5t74.5 190t73 183t63.5 159.5q17 8 37 12t40 4l265 -717q-9 -5 -25 -8.5t-38 -3.5h-9.5t-9.5 1l-78 212h-320q-35 -107 -62 -204q-9 -5 -23.5 -7.5t-29.5 -2.5q-9 0 -16 0.5t-12 1.5zM324 647q-35 -91 -71.5 -191.5t-71.5 -202.5h287zM250 956
q13 -16 30 -34.5t36 -37.5t38.5 -37.5t38.5 -34.5q-3 -4 -11.5 -7t-16.5 -3q-24 9 -51.5 24t-54.5 33.5t-51 39.5t-42 41q13 8 30.5 12.5t35.5 4.5h9t9 -1z" />
    <glyph glyph-name="Aacute" unicode="&#xc1;" horiz-adv-x="679" 
d="M22 -7q33 84 70 179.5t74.5 190t73 183t63.5 159.5q17 8 37 12t40 4l265 -717q-9 -5 -25 -8.5t-38 -3.5h-9.5t-9.5 1l-78 212h-320q-35 -107 -62 -204q-9 -5 -23.5 -7.5t-29.5 -2.5q-9 0 -16 0.5t-12 1.5zM324 647q-35 -91 -71.5 -191.5t-71.5 -202.5h287zM533 955
q-17 -23 -43.5 -47t-55 -45t-57 -37.5t-50.5 -24.5q-7 0 -15 3t-10 7q17 15 35.5 32t36.5 35t34.5 36t29.5 34q10 6 26.5 8.5t33.5 2.5q11 0 20 -1t15 -3z" />
    <glyph glyph-name="Acircumflex" unicode="&#xc2;" horiz-adv-x="679" 
d="M22 -7q33 84 70 179.5t74.5 190t73 183t63.5 159.5q17 8 37 12t40 4l265 -717q-9 -5 -25 -8.5t-38 -3.5h-9.5t-9.5 1l-78 212h-320q-35 -107 -62 -204q-9 -5 -23.5 -7.5t-29.5 -2.5q-9 0 -16 0.5t-12 1.5zM324 647q-35 -91 -71.5 -191.5t-71.5 -202.5h287zM367 966
q28 -35 65.5 -76t72.5 -76q-5 -5 -14 -8t-17 -3q-16 7 -33 18.5t-34 24t-33 26t-29 24.5q-13 -12 -29.5 -25.5t-34 -26.5t-34.5 -24t-32 -18q-8 0 -17 2.5t-14 8.5q37 34 72.5 71t65.5 73q8 5 22 7t23 2z" />
    <glyph glyph-name="Atilde" unicode="&#xc3;" horiz-adv-x="679" 
d="M22 -7q33 84 70 179.5t74.5 190t73 183t63.5 159.5q17 8 37 12t40 4l265 -717q-9 -5 -25 -8.5t-38 -3.5h-9.5t-9.5 1l-78 212h-320q-35 -107 -62 -204q-9 -5 -23.5 -7.5t-29.5 -2.5q-9 0 -16 0.5t-12 1.5zM324 647q-35 -91 -71.5 -191.5t-71.5 -202.5h287zM210 807
q-8 1 -15.5 4.5t-10.5 8.5q16 48 38.5 73t55.5 25q13 0 25.5 -3.5t24.5 -8.5l51 -18q17 -6 27.5 -9t18.5 -3q17 0 30 12t21 41q7 0 14.5 -3.5t11.5 -9.5q-13 -54 -34 -76t-53 -22q-14 0 -29.5 4.5t-30.5 9.5l-55 19q-11 4 -20.5 7t-17.5 3q-18 0 -30 -14t-22 -40z" />
    <glyph glyph-name="Adieresis" unicode="&#xc4;" horiz-adv-x="679" 
d="M22 -7q33 84 70 179.5t74.5 190t73 183t63.5 159.5q17 8 37 12t40 4l265 -717q-9 -5 -25 -8.5t-38 -3.5h-9.5t-9.5 1l-78 212h-320q-35 -107 -62 -204q-9 -5 -23.5 -7.5t-29.5 -2.5q-9 0 -16 0.5t-12 1.5zM324 647q-35 -91 -71.5 -191.5t-71.5 -202.5h287zM302 861
q-4 -7 -11 -15t-14.5 -15.5t-15.5 -13.5t-15 -10q-15 7 -32.5 23t-28.5 31q12 16 28.5 32t32.5 25q14 -8 30.5 -24.5t25.5 -32.5zM501 861q-4 -7 -11 -15t-14.5 -15.5t-15.5 -13.5t-15 -10q-15 7 -32.5 23t-28.5 31q12 16 28.5 32t32.5 25q14 -8 30.5 -24.5t25.5 -32.5z" />
    <glyph glyph-name="Aring" unicode="&#xc5;" horiz-adv-x="679" 
d="M22 -7q33 84 70 179.5t74.5 190t73 183t63.5 159.5q17 8 37 12t40 4l265 -717q-9 -5 -25 -8.5t-38 -3.5h-9.5t-9.5 1l-78 212h-320q-35 -107 -62 -204q-9 -5 -23.5 -7.5t-29.5 -2.5q-9 0 -16 0.5t-12 1.5zM324 647q-35 -91 -71.5 -191.5t-71.5 -202.5h287zM235 880
q0 20 9.5 37t25.5 29.5t37.5 19.5t45.5 7q51 0 74 -23t23 -55q0 -21 -9 -38.5t-24.5 -29.5t-36.5 -18.5t-44 -6.5q-41 0 -71 18.5t-30 59.5zM291 894q0 -35 17.5 -51t37.5 -16t33.5 13.5t13.5 42.5t-13.5 47.5t-39.5 18.5q-17 0 -33 -13t-16 -42z" />
    <glyph glyph-name="AE" unicode="&#xc6;" horiz-adv-x="1042" 
d="M524 639q-66 -90 -131 -188t-125 -198h256v386zM606 37q88 2 183 6.5t201 11.5q-3 -24 -12 -39.5t-20 -22.5h-434v212h-285q-32 -53 -61 -104t-56 -100q-11 -5 -29 -7.5t-35 -2.5q-9 0 -16.5 0.5t-13.5 1.5q31 50 70 109t82 122t88.5 127.5t90 126t86.5 117.5t79 102
q16 9 37.5 13.5t44.5 5.5q29 1 77.5 1.5t103 1.5t107 1.5t88.5 0.5q-2 -19 -11 -35.5t-22 -24.5q-35 1 -78 2t-89 2.5t-91.5 3.5t-84.5 4v-294l317 6q-2 -18 -10 -33t-18 -17q-73 1 -145 1.5t-144 2.5v-302z" />
    <glyph glyph-name="Ccedilla" unicode="&#xc7;" horiz-adv-x="705" 
d="M647 582q-8 -15 -27 -28t-46 -17q-5 24 -16.5 49.5t-33 46.5t-54 35t-79.5 14q-42 0 -84 -16.5t-76 -52.5t-55.5 -93.5t-21.5 -139.5q0 -81 22 -144t60 -105.5t88.5 -64.5t108.5 -22q67 0 113.5 22.5t78.5 59.5q6 -2 14 -8t10 -12q-8 -13 -24 -32t-43 -38t-66.5 -34
t-93.5 -19l-46 -57q57 -2 81 -23t24 -55q0 -47 -39.5 -74.5t-108.5 -27.5q-15 0 -27 2t-15 4q-4 6 -5.5 15.5t-1.5 16.5q9 -2 21.5 -3t22.5 -1q44 0 67.5 13t23.5 41q0 54 -70 54q-8 0 -15.5 -0.5t-11.5 -2.5q-6 4 -6 13l62 84q-60 2 -116 26t-99 69t-69 112.5t-26 156.5
q0 80 29 150.5t78.5 122.5t115 82t139.5 30q60 0 101.5 -17t67 -41t37 -49.5t11.5 -41.5z" />
    <glyph glyph-name="Egrave" unicode="&#xc8;" horiz-adv-x="628" 
d="M110 -7v702q34 19 82 21q29 1 77.5 1.5t103 1.5t107 1.5t88.5 0.5q-2 -21 -11.5 -38t-21.5 -22q-34 0 -77 1.5t-89 3t-92 3.5t-85 4v-294l317 6q-2 -18 -10 -33t-18 -17q-73 1 -145 1.5t-144 2.5v-302q88 2 183 6.5t201 11.5q-3 -23 -12 -39.5t-20 -22.5h-434zM315 956
q13 -16 30 -34.5t36 -37.5t38.5 -37.5t38.5 -34.5q-3 -4 -11.5 -7t-16.5 -3q-24 9 -51.5 24t-54.5 33.5t-51 39.5t-42 41q13 8 30.5 12.5t35.5 4.5h9t9 -1z" />
    <glyph glyph-name="Eacute" unicode="&#xc9;" horiz-adv-x="628" 
d="M110 -7v702q34 19 82 21q29 1 77.5 1.5t103 1.5t107 1.5t88.5 0.5q-2 -21 -11.5 -38t-21.5 -22q-34 0 -77 1.5t-89 3t-92 3.5t-85 4v-294l317 6q-2 -18 -10 -33t-18 -17q-73 1 -145 1.5t-144 2.5v-302q88 2 183 6.5t201 11.5q-3 -23 -12 -39.5t-20 -22.5h-434zM485 955
q-17 -23 -43.5 -47t-55 -45t-57 -37.5t-50.5 -24.5q-7 0 -15 3t-10 7q17 15 35.5 32t36.5 35t34.5 36t29.5 34q10 6 26.5 8.5t33.5 2.5q11 0 20 -1t15 -3z" />
    <glyph glyph-name="Ecircumflex" unicode="&#xca;" horiz-adv-x="628" 
d="M110 -7v702q34 19 82 21q29 1 77.5 1.5t103 1.5t107 1.5t88.5 0.5q-2 -21 -11.5 -38t-21.5 -22q-34 0 -77 1.5t-89 3t-92 3.5t-85 4v-294l317 6q-2 -18 -10 -33t-18 -17q-73 1 -145 1.5t-144 2.5v-302q88 2 183 6.5t201 11.5q-3 -23 -12 -39.5t-20 -22.5h-434zM380 967
q28 -35 65.5 -76t72.5 -76q-5 -5 -14 -8t-17 -3q-16 7 -33 18.5t-34 24t-33 26t-29 24.5q-13 -12 -29.5 -25.5t-34 -26.5t-34.5 -24t-32 -18q-8 0 -17 2.5t-14 8.5q37 34 72.5 71t65.5 73q8 5 22 7t23 2z" />
    <glyph glyph-name="Edieresis" unicode="&#xcb;" horiz-adv-x="628" 
d="M110 -7v702q34 19 82 21q29 1 77.5 1.5t103 1.5t107 1.5t88.5 0.5q-2 -21 -11.5 -38t-21.5 -22q-34 0 -77 1.5t-89 3t-92 3.5t-85 4v-294l317 6q-2 -18 -10 -33t-18 -17q-73 1 -145 1.5t-144 2.5v-302q88 2 183 6.5t201 11.5q-3 -23 -12 -39.5t-20 -22.5h-434zM305 861
q-4 -7 -11 -15t-14.5 -15.5t-15.5 -13.5t-15 -10q-15 7 -32.5 23t-28.5 31q12 16 28.5 32t32.5 25q14 -8 30.5 -24.5t25.5 -32.5zM504 861q-4 -7 -11 -15t-14.5 -15.5t-15.5 -13.5t-15 -10q-15 7 -32.5 23t-28.5 31q12 16 28.5 32t32.5 25q14 -8 30.5 -24.5t25.5 -32.5z" />
    <glyph glyph-name="Igrave" unicode="&#xcc;" horiz-adv-x="304" 
d="M55 956q13 -16 30 -34.5t36 -37.5t38.5 -37.5t38.5 -34.5q-3 -4 -11.5 -7t-16.5 -3q-24 9 -51.5 24t-54.5 33.5t-51 39.5t-42 41q13 8 30.5 12.5t35.5 4.5h9t9 -1zM193 9q-16 -9 -37.5 -12.5t-44.5 -3.5v710q34 18 82 18v-712z" />
    <glyph glyph-name="Iacute" unicode="&#xcd;" horiz-adv-x="304" 
d="M339 955q-17 -23 -43.5 -47t-55 -45t-57 -37.5t-50.5 -24.5q-7 0 -15 3t-10 7q17 15 35.5 32t36.5 35t34.5 36t29.5 34q10 6 26.5 8.5t33.5 2.5q11 0 20 -1t15 -3zM193 9q-16 -9 -37.5 -12.5t-44.5 -3.5v710q34 18 82 18v-712z" />
    <glyph glyph-name="Icircumflex" unicode="&#xce;" horiz-adv-x="304" 
d="M193 9q-16 -9 -37.5 -12.5t-44.5 -3.5v710q34 18 82 18v-712zM178 967q28 -35 65.5 -76t72.5 -76q-5 -5 -14 -8t-17 -3q-16 7 -33 18.5t-34 24t-33 26t-29 24.5q-13 -12 -29.5 -25.5t-34 -26.5t-34.5 -24t-32 -18q-8 0 -17 2.5t-14 8.5q37 34 72.5 71t65.5 73q8 5 22 7
t23 2z" />
    <glyph glyph-name="Idieresis" unicode="&#xcf;" horiz-adv-x="304" 
d="M310 861q-4 -7 -11 -15t-14.5 -15.5t-15.5 -13.5t-15 -10q-15 7 -32.5 23t-28.5 31q12 16 28.5 32t32.5 25q14 -8 30.5 -24.5t25.5 -32.5zM111 861q-4 -7 -11 -15t-14.5 -15.5t-15.5 -13.5t-15 -10q-15 7 -32.5 23t-28.5 31q12 16 28.5 32t32.5 25q14 -8 30.5 -24.5
t25.5 -32.5zM193 9q-16 -9 -37.5 -12.5t-44.5 -3.5v710q34 18 82 18v-712z" />
    <glyph glyph-name="Eth" unicode="&#xd0;" horiz-adv-x="785" 
d="M124 338h-106q3 20 13 32.5t21 12.5h72v312q48 16 105.5 26t132.5 10q90 0 157 -27.5t111.5 -74t66.5 -108t22 -130.5q0 -98 -31 -174t-87 -128.5t-134.5 -79.5t-173.5 -27q-41 0 -86 4t-83 12v340zM327 686q-39 0 -68 -2.5t-53 -6.5v-294h228q-2 -18 -12 -31.5
t-22 -13.5h-194v-288q25 -8 63.5 -12.5t77.5 -4.5q61 0 112.5 19t89.5 58.5t59.5 100.5t21.5 146q0 68 -18 128t-55 104.5t-94 70.5t-136 26z" />
    <glyph glyph-name="Ntilde" unicode="&#xd1;" horiz-adv-x="773" 
d="M660 3q-6 -5 -18 -7.5t-21 -2.5l-464 637q1 -78 2.5 -154l3 -152t4 -153.5t6.5 -159.5q-11 -8 -33 -13t-42 -5q2 87 4 169.5t4 168t4 177t5 195.5q17 8 38.5 13t42.5 5l419 -580q-2 148 -4.5 291t-7.5 270q17 10 37.5 14.5t37.5 4.5q-5 -160 -9 -342t-9 -376zM282 803
q-8 1 -15.5 4.5t-10.5 8.5q16 48 38.5 73t55.5 25q13 0 25.5 -3.5t24.5 -8.5l51 -18q17 -6 27.5 -9t18.5 -3q17 0 30 12t21 41q7 0 14.5 -3.5t11.5 -9.5q-13 -54 -34 -76t-53 -22q-14 0 -29.5 4.5t-30.5 9.5l-55 19q-11 4 -20.5 7t-17.5 3q-18 0 -30 -14t-22 -40z" />
    <glyph glyph-name="Ograve" unicode="&#xd2;" horiz-adv-x="820" 
d="M353 956q13 -16 30 -34.5t36 -37.5t38.5 -37.5t38.5 -34.5q-3 -4 -11.5 -7t-16.5 -3q-24 9 -51.5 24t-54.5 33.5t-51 39.5t-42 41q13 8 30.5 12.5t35.5 4.5h9t9 -1zM157 379q0 -85 21.5 -150t57.5 -109.5t84.5 -67.5t102.5 -23q115 0 178.5 79t63.5 237q0 77 -19 139.5
t-53.5 107t-83 68.5t-108.5 24q-48 0 -92.5 -18t-78 -55.5t-53.5 -95t-20 -136.5zM68 347q0 85 29.5 155.5t79 121.5t115 79t138.5 28q79 0 139.5 -27t101.5 -75t62 -112.5t21 -139.5q0 -83 -24 -155t-70 -125t-112.5 -84t-150.5 -31q-67 0 -126.5 25t-104.5 72.5t-71.5 115
t-26.5 152.5z" />
    <glyph glyph-name="Oacute" unicode="&#xd3;" horiz-adv-x="820" 
d="M558 955q-17 -23 -43.5 -47t-55 -45t-57 -37.5t-50.5 -24.5q-7 0 -15 3t-10 7q17 15 35.5 32t36.5 35t34.5 36t29.5 34q10 6 26.5 8.5t33.5 2.5q11 0 20 -1t15 -3zM157 379q0 -85 21.5 -150t57.5 -109.5t84.5 -67.5t102.5 -23q115 0 178.5 79t63.5 237q0 77 -19 139.5
t-53.5 107t-83 68.5t-108.5 24q-48 0 -92.5 -18t-78 -55.5t-53.5 -95t-20 -136.5zM68 347q0 85 29.5 155.5t79 121.5t115 79t138.5 28q79 0 139.5 -27t101.5 -75t62 -112.5t21 -139.5q0 -83 -24 -155t-70 -125t-112.5 -84t-150.5 -31q-67 0 -126.5 25t-104.5 72.5t-71.5 115
t-26.5 152.5z" />
    <glyph glyph-name="Ocircumflex" unicode="&#xd4;" horiz-adv-x="820" 
d="M68 347q0 85 29.5 155.5t79 121.5t115 79t138.5 28q79 0 139.5 -27t101.5 -75t62 -112.5t21 -139.5q0 -83 -24 -155t-70 -125t-112.5 -84t-150.5 -31q-67 0 -126.5 25t-104.5 72.5t-71.5 115t-26.5 152.5zM157 379q0 -85 21.5 -150t57.5 -109.5t84.5 -67.5t102.5 -23
q115 0 178.5 79t63.5 237q0 77 -19 139.5t-53.5 107t-83 68.5t-108.5 24q-48 0 -92.5 -18t-78 -55.5t-53.5 -95t-20 -136.5zM436 966q28 -35 65.5 -76t72.5 -76q-5 -5 -14 -8t-17 -3q-16 7 -33 18.5t-34 24t-33 26t-29 24.5q-13 -12 -29.5 -25.5t-34 -26.5t-34.5 -24
t-32 -18q-8 0 -17 2.5t-14 8.5q37 34 72.5 71t65.5 73q8 5 22 7t23 2z" />
    <glyph glyph-name="Otilde" unicode="&#xd5;" horiz-adv-x="820" 
d="M285 807q-8 1 -15.5 4.5t-10.5 8.5q16 48 38.5 73t55.5 25q13 0 25.5 -3.5t24.5 -8.5l51 -18q17 -6 27.5 -9t18.5 -3q17 0 30 12t21 41q7 0 14.5 -3.5t11.5 -9.5q-13 -54 -34 -76t-53 -22q-14 0 -29.5 4.5t-30.5 9.5l-55 19q-11 4 -20.5 7t-17.5 3q-18 0 -30 -14t-22 -40
zM157 379q0 -85 21.5 -150t57.5 -109.5t84.5 -67.5t102.5 -23q115 0 178.5 79t63.5 237q0 77 -19 139.5t-53.5 107t-83 68.5t-108.5 24q-48 0 -92.5 -18t-78 -55.5t-53.5 -95t-20 -136.5zM68 347q0 85 29.5 155.5t79 121.5t115 79t138.5 28q79 0 139.5 -27t101.5 -75
t62 -112.5t21 -139.5q0 -83 -24 -155t-70 -125t-112.5 -84t-150.5 -31q-67 0 -126.5 25t-104.5 72.5t-71.5 115t-26.5 152.5z" />
    <glyph glyph-name="Odieresis" unicode="&#xd6;" horiz-adv-x="820" 
d="M157 379q0 -85 21.5 -150t57.5 -109.5t84.5 -67.5t102.5 -23q115 0 178.5 79t63.5 237q0 77 -19 139.5t-53.5 107t-83 68.5t-108.5 24q-48 0 -92.5 -18t-78 -55.5t-53.5 -95t-20 -136.5zM68 347q0 85 29.5 155.5t79 121.5t115 79t138.5 28q79 0 139.5 -27t101.5 -75
t62 -112.5t21 -139.5q0 -83 -24 -155t-70 -125t-112.5 -84t-150.5 -31q-67 0 -126.5 25t-104.5 72.5t-71.5 115t-26.5 152.5zM577 861q-4 -7 -11 -15t-14.5 -15.5t-15.5 -13.5t-15 -10q-15 7 -32.5 23t-28.5 31q12 16 28.5 32t32.5 25q14 -8 30.5 -24.5t25.5 -32.5zM378 861
q-4 -7 -11 -15t-14.5 -15.5t-15.5 -13.5t-15 -10q-15 7 -32.5 23t-28.5 31q12 16 28.5 32t32.5 25q14 -8 30.5 -24.5t25.5 -32.5z" />
    <glyph glyph-name="multiply" unicode="&#xd7;" horiz-adv-x="563" 
d="M77 531q27 21 67 21l144 -179l139 180q18 0 36 -3.5t29 -11.5l-167 -201l171 -206q-12 -10 -31.5 -14t-36.5 -4l-148 186l-147 -186q-8 -2 -22 -2t-27 4t-20 11l177 209l-164 196v0z" />
    <glyph glyph-name="Oslash" unicode="&#xd8;" horiz-adv-x="820" 
d="M68 347q0 85 29.5 155.5t79 121.5t115 79t138.5 28q55 0 100.5 -13.5t82.5 -38.5l45 67q11 -2 19.5 -7.5t12.5 -12.5l-47 -69q55 -48 83 -120.5t28 -159.5q0 -83 -24 -155t-70 -125t-112.5 -84t-150.5 -31q-95 0 -172 49l-56 -84q-8 1 -18.5 7.5t-14.5 13.5l57 85
q-57 48 -91 122t-34 172zM157 379q0 -86 21.5 -151t58.5 -110l334 498q-33 32 -76 50t-94 18q-48 0 -92.5 -18t-78 -55.5t-53.5 -95t-20 -136.5zM665 345q0 75 -18 135.5t-51 105.5l-332 -497q33 -30 73.5 -45t85.5 -15q115 0 178.5 79t63.5 237z" />
    <glyph glyph-name="Ugrave" unicode="&#xd9;" horiz-adv-x="763" 
d="M189 274q0 -64 15.5 -108.5t44 -72.5t67.5 -40.5t87 -12.5q63 0 102 21.5t61.5 61.5t30.5 97.5t8 128.5q0 77 -2.5 167t-6.5 190q17 8 36.5 11.5t38.5 3.5q-2 -63 -2 -119.5t-1 -111.5t-3 -109.5t-6 -112.5q-6 -81 -31 -135.5t-63 -88t-88.5 -47.5t-107.5 -14
q-53 0 -100.5 15t-83.5 46.5t-57 81t-21 118.5v459q34 18 82 18v-447zM352 956q13 -16 30 -34.5t36 -37.5t38.5 -37.5t38.5 -34.5q-3 -4 -11.5 -7t-16.5 -3q-24 9 -51.5 24t-54.5 33.5t-51 39.5t-42 41q13 8 30.5 12.5t35.5 4.5h9t9 -1z" />
    <glyph glyph-name="Uacute" unicode="&#xda;" horiz-adv-x="763" 
d="M189 274q0 -64 15.5 -108.5t44 -72.5t67.5 -40.5t87 -12.5q63 0 102 21.5t61.5 61.5t30.5 97.5t8 128.5q0 77 -2.5 167t-6.5 190q17 8 36.5 11.5t38.5 3.5q-2 -63 -2 -119.5t-1 -111.5t-3 -109.5t-6 -112.5q-6 -81 -31 -135.5t-63 -88t-88.5 -47.5t-107.5 -14
q-53 0 -100.5 15t-83.5 46.5t-57 81t-21 118.5v459q34 18 82 18v-447zM551 955q-17 -23 -43.5 -47t-55 -45t-57 -37.5t-50.5 -24.5q-7 0 -15 3t-10 7q17 15 35.5 32t36.5 35t34.5 36t29.5 34q10 6 26.5 8.5t33.5 2.5q11 0 20 -1t15 -3z" />
    <glyph glyph-name="Ucircumflex" unicode="&#xdb;" horiz-adv-x="763" 
d="M189 274q0 -64 15.5 -108.5t44 -72.5t67.5 -40.5t87 -12.5q63 0 102 21.5t61.5 61.5t30.5 97.5t8 128.5q0 77 -2.5 167t-6.5 190q17 8 36.5 11.5t38.5 3.5q-2 -63 -2 -119.5t-1 -111.5t-3 -109.5t-6 -112.5q-6 -81 -31 -135.5t-63 -88t-88.5 -47.5t-107.5 -14
q-53 0 -100.5 15t-83.5 46.5t-57 81t-21 118.5v459q34 18 82 18v-447zM430 966q28 -35 65.5 -76t72.5 -76q-5 -5 -14 -8t-17 -3q-16 7 -33 18.5t-34 24t-33 26t-29 24.5q-13 -12 -29.5 -25.5t-34 -26.5t-34.5 -24t-32 -18q-8 0 -17 2.5t-14 8.5q37 34 72.5 71t65.5 73
q8 5 22 7t23 2z" />
    <glyph glyph-name="Udieresis" unicode="&#xdc;" horiz-adv-x="763" 
d="M189 274q0 -64 15.5 -108.5t44 -72.5t67.5 -40.5t87 -12.5q63 0 102 21.5t61.5 61.5t30.5 97.5t8 128.5q0 77 -2.5 167t-6.5 190q17 8 36.5 11.5t38.5 3.5q-2 -63 -2 -119.5t-1 -111.5t-3 -109.5t-6 -112.5q-6 -81 -31 -135.5t-63 -88t-88.5 -47.5t-107.5 -14
q-53 0 -100.5 15t-83.5 46.5t-57 81t-21 118.5v459q34 18 82 18v-447zM563 861q-4 -7 -11 -15t-14.5 -15.5t-15.5 -13.5t-15 -10q-15 7 -32.5 23t-28.5 31q12 16 28.5 32t32.5 25q14 -8 30.5 -24.5t25.5 -32.5zM364 861q-4 -7 -11 -15t-14.5 -15.5t-15.5 -13.5t-15 -10
q-15 7 -32.5 23t-28.5 31q12 16 28.5 32t32.5 25q14 -8 30.5 -24.5t25.5 -32.5z" />
    <glyph glyph-name="Yacute" unicode="&#xdd;" horiz-adv-x="669" 
d="M132 721q42 -93 101 -197.5t125 -201.5q60 90 111 187t89 201q14 7 28 9.5t31 2.5q13 0 21 -2q-17 -43 -46 -97.5t-63.5 -112.5t-72 -114t-71.5 -101v-286q-16 -9 -37.5 -12.5t-44.5 -3.5v280q-74 104 -137 209t-115 216q14 10 35 16.5t46 6.5zM492 945
q-17 -23 -43.5 -47t-55 -45t-57 -37.5t-50.5 -24.5q-7 0 -15 3t-10 7q17 15 35.5 32t36.5 35t34.5 36t29.5 34q10 6 26.5 8.5t33.5 2.5q11 0 20 -1t15 -3z" />
    <glyph glyph-name="Thorn" unicode="&#xde;" horiz-adv-x="647" 
d="M174 564q35 13 76.5 23t92.5 10q72 0 121 -18.5t79 -48t43 -66t13 -72.5q0 -62 -24 -109.5t-66 -79.5t-99.5 -48.5t-125.5 -16.5q-31 0 -59.5 4t-50.5 9v-142q-16 -9 -37.5 -12.5t-44.5 -3.5v710q34 18 82 18v-157zM315 550q-39 0 -78 -10.5t-63 -20.5v-300
q26 -15 61.5 -25t84.5 -10q87 0 138 46t51 130q0 40 -11 75t-34.5 60.5t-60.5 40t-88 14.5z" />
    <glyph glyph-name="germandbls" unicode="&#xdf;" horiz-adv-x="700" 
d="M94 478q0 70 26 125t68.5 93.5t97 59t111.5 20.5q51 0 86 -11.5t56 -30.5t30.5 -43t9.5 -48q0 -27 -9 -48.5t-25.5 -40.5t-40 -37t-51.5 -38l-20 -14q-28 -20 -42.5 -36.5t-14.5 -39.5q0 -26 19 -39.5t57 -26.5l60 -20q73 -24 103.5 -59.5t30.5 -87.5q0 -33 -15.5 -64.5
t-43 -55.5t-65.5 -38.5t-84 -14.5q-45 0 -76 12t-51 29.5t-29 37t-10 34.5q8 13 25 25t37 14q3 -21 12.5 -40t26 -33.5t40.5 -23t55 -8.5q54 0 81.5 26.5t27.5 66.5q0 38 -21.5 66t-79.5 48l-58 20q-56 19 -84.5 41.5t-28.5 63.5q0 18 6 33t19 30.5t33 33t49 40.5l25 20
q25 20 44.5 46.5t19.5 58.5q0 18 -5.5 36.5t-20.5 34.5t-41 26t-66 10q-35 0 -69.5 -12.5t-62.5 -38t-45.5 -63.5t-17.5 -90v-519q-14 -8 -36.5 -11.5t-42.5 -3.5v485z" />
    <glyph glyph-name="agrave" unicode="&#xe0;" horiz-adv-x="568" 
d="M533 37q-3 -5 -9.5 -12t-14.5 -13.5t-17.5 -11.5t-17.5 -7q-32 2 -54 24.5t-24 59.5q-8 -15 -24 -31.5t-38.5 -30t-51.5 -22t-63 -8.5q-71 0 -112.5 36t-41.5 96q0 62 47 104t161 62l119 21v39q0 72 -33.5 110t-99.5 38q-41 0 -69.5 -20.5t-28.5 -60.5q0 -18 12 -32
q-9 -12 -29 -22t-41 -12q-5 5 -12 15t-7 27q0 31 18 58t47 46.5t67 30.5t79 11q96 0 136 -43.5t40 -121.5v-251q0 -41 18 -56.5t42 -18.5zM251 38q52 0 88.5 24t52.5 62v144l-134 -24q-54 -10 -82.5 -34t-28.5 -69q0 -50 30.5 -76.5t73.5 -26.5zM348 602q-20 9 -46 28
t-51.5 42.5t-48.5 48.5t-38 47q22 14 61 14q11 0 17 -2q26 -42 63 -86.5t75 -81.5q-4 -5 -13.5 -7.5t-18.5 -2.5z" />
    <glyph glyph-name="aacute" unicode="&#xe1;" horiz-adv-x="568" 
d="M533 37q-3 -5 -9.5 -12t-14.5 -13.5t-17.5 -11.5t-17.5 -7q-32 2 -54 24.5t-24 59.5q-8 -15 -24 -31.5t-38.5 -30t-51.5 -22t-63 -8.5q-71 0 -112.5 36t-41.5 96q0 62 47 104t161 62l119 21v39q0 72 -33.5 110t-99.5 38q-41 0 -69.5 -20.5t-28.5 -60.5q0 -18 12 -32
q-9 -12 -29 -22t-41 -12q-5 5 -12 15t-7 27q0 31 18 58t47 46.5t67 30.5t79 11q96 0 136 -43.5t40 -121.5v-251q0 -41 18 -56.5t42 -18.5zM251 38q52 0 88.5 24t52.5 62v144l-134 -24q-54 -10 -82.5 -34t-28.5 -69q0 -50 30.5 -76.5t73.5 -26.5zM427 779
q-14 -24 -37.5 -50.5t-50 -51.5t-53 -45t-47.5 -31q-9 0 -17.5 2.5t-12.5 7.5q35 33 69 75.5t61 82.5q23 13 60 13q16 0 28 -3z" />
    <glyph glyph-name="acircumflex" unicode="&#xe2;" horiz-adv-x="568" 
d="M533 37q-3 -5 -9.5 -12t-14.5 -13.5t-17.5 -11.5t-17.5 -7q-32 2 -54 24.5t-24 59.5q-8 -15 -24 -31.5t-38.5 -30t-51.5 -22t-63 -8.5q-71 0 -112.5 36t-41.5 96q0 62 47 104t161 62l119 21v39q0 72 -33.5 110t-99.5 38q-41 0 -69.5 -20.5t-28.5 -60.5q0 -18 12 -32
q-9 -12 -29 -22t-41 -12q-5 5 -12 15t-7 27q0 31 18 58t47 46.5t67 30.5t79 11q96 0 136 -43.5t40 -121.5v-251q0 -41 18 -56.5t42 -18.5zM251 38q52 0 88.5 24t52.5 62v144l-134 -24q-54 -10 -82.5 -34t-28.5 -69q0 -50 30.5 -76.5t73.5 -26.5zM322 784q28 -42 62 -88.5
t65 -82.5q-5 -5 -14 -7.5t-17 -2.5q-13 9 -28.5 22t-31.5 27t-31.5 29t-28.5 27q-13 -14 -28.5 -29t-31 -29t-31 -26.5t-28.5 -20.5q-8 0 -17 2.5t-14 7.5q35 38 67.5 78t61.5 82q9 5 21.5 8t23.5 3z" />
    <glyph glyph-name="atilde" unicode="&#xe3;" horiz-adv-x="568" 
d="M533 37q-3 -5 -9.5 -12t-14.5 -13.5t-17.5 -11.5t-17.5 -7q-32 2 -54 24.5t-24 59.5q-8 -15 -24 -31.5t-38.5 -30t-51.5 -22t-63 -8.5q-71 0 -112.5 36t-41.5 96q0 62 47 104t161 62l119 21v39q0 72 -33.5 110t-99.5 38q-41 0 -69.5 -20.5t-28.5 -60.5q0 -18 12 -32
q-9 -12 -29 -22t-41 -12q-5 5 -12 15t-7 27q0 31 18 58t47 46.5t67 30.5t79 11q96 0 136 -43.5t40 -121.5v-251q0 -41 18 -56.5t42 -18.5zM251 38q52 0 88.5 24t52.5 62v144l-134 -24q-54 -10 -82.5 -34t-28.5 -69q0 -50 30.5 -76.5t73.5 -26.5zM157 614q-8 1 -15.5 4.5
t-10.5 8.5q16 48 38.5 73t55.5 25q13 0 25.5 -3.5t24.5 -8.5l51 -18q17 -6 27.5 -9t18.5 -3q17 0 30 12t21 41q7 0 14.5 -3.5t11.5 -9.5q-13 -54 -34 -76t-53 -22q-14 0 -29.5 4.5t-30.5 9.5l-55 19q-11 4 -20.5 7t-17.5 3q-18 0 -30 -14t-22 -40z" />
    <glyph glyph-name="adieresis" unicode="&#xe4;" horiz-adv-x="568" 
d="M533 37q-3 -5 -9.5 -12t-14.5 -13.5t-17.5 -11.5t-17.5 -7q-32 2 -54 24.5t-24 59.5q-8 -15 -24 -31.5t-38.5 -30t-51.5 -22t-63 -8.5q-71 0 -112.5 36t-41.5 96q0 62 47 104t161 62l119 21v39q0 72 -33.5 110t-99.5 38q-41 0 -69.5 -20.5t-28.5 -60.5q0 -18 12 -32
q-9 -12 -29 -22t-41 -12q-5 5 -12 15t-7 27q0 31 18 58t47 46.5t67 30.5t79 11q96 0 136 -43.5t40 -121.5v-251q0 -41 18 -56.5t42 -18.5zM251 38q52 0 88.5 24t52.5 62v144l-134 -24q-54 -10 -82.5 -34t-28.5 -69q0 -50 30.5 -76.5t73.5 -26.5zM248 680q-4 -7 -11 -15
t-14.5 -15.5t-15.5 -13.5t-15 -10q-15 7 -32.5 23t-28.5 31q12 16 28.5 32t32.5 25q14 -8 30.5 -24.5t25.5 -32.5zM447 680q-4 -7 -11 -15t-14.5 -15.5t-15.5 -13.5t-15 -10q-15 7 -32.5 23t-28.5 31q12 16 28.5 32t32.5 25q14 -8 30.5 -24.5t25.5 -32.5z" />
    <glyph glyph-name="aring" unicode="&#xe5;" horiz-adv-x="568" 
d="M533 37q-3 -5 -9.5 -12t-14.5 -13.5t-17.5 -11.5t-17.5 -7q-32 2 -54 24.5t-24 59.5q-8 -15 -24 -31.5t-38.5 -30t-51.5 -22t-63 -8.5q-71 0 -112.5 36t-41.5 96q0 62 47 104t161 62l119 21v39q0 72 -33.5 110t-99.5 38q-41 0 -69.5 -20.5t-28.5 -60.5q0 -18 12 -32
q-9 -12 -29 -22t-41 -12q-5 5 -12 15t-7 27q0 31 18 58t47 46.5t67 30.5t79 11q96 0 136 -43.5t40 -121.5v-251q0 -41 18 -56.5t42 -18.5zM251 38q52 0 88.5 24t52.5 62v144l-134 -24q-54 -10 -82.5 -34t-28.5 -69q0 -50 30.5 -76.5t73.5 -26.5zM182 685q0 20 9.5 37
t25.5 29.5t37.5 19.5t45.5 7q51 0 74 -23t23 -55q0 -21 -9.5 -38.5t-25 -29.5t-36.5 -18.5t-44 -6.5q-43 0 -71.5 18.5t-28.5 59.5zM237 699q0 -35 18 -51t38 -16t34 13.5t14 42.5t-14 47.5t-40 18.5q-17 0 -33.5 -13t-16.5 -42z" />
    <glyph glyph-name="ae" unicode="&#xe6;" horiz-adv-x="906" 
d="M173 378q-9 -12 -28.5 -22t-41.5 -12q-6 5 -12.5 15.5t-6.5 26.5q0 31 18 58t47.5 46.5t68.5 30.5t81 11q69 0 112 -26t60 -73q35 45 83.5 72t107.5 27q56 0 93 -19t58.5 -48.5t30 -66t8.5 -70.5q-5 -8 -20 -19.5t-31 -15.5l-312 -35q2 -56 17.5 -96.5t41.5 -67
t60.5 -39.5t73.5 -13q48 0 83 13t66 41q14 -3 19 -19q-7 -11 -22.5 -27t-40.5 -31t-61 -25.5t-83 -10.5q-64 0 -115 27t-82 81q-13 -20 -31.5 -39t-44.5 -34t-60 -24t-76 -9q-78 0 -123.5 36.5t-45.5 96.5q0 61 47 104.5t157 58.5l140 19v45q0 66 -36.5 106t-108.5 40
q-20 0 -39 -5.5t-33 -16t-22.5 -25.5t-8.5 -35q0 -11 3.5 -18.5t8.5 -12.5zM253 243q-55 -8 -80.5 -33t-25.5 -68q0 -54 35 -81.5t89 -27.5q61 0 99.5 39t38.5 113v80zM635 487q-61 0 -102.5 -46.5t-45.5 -145.5l279 30q1 4 1.5 7.5t0.5 8.5q0 30 -8 56.5t-24 46.5
t-41.5 31.5t-59.5 11.5z" />
    <glyph glyph-name="ccedilla" unicode="&#xe7;" horiz-adv-x="549" 
d="M498 414q-6 -11 -23.5 -23t-43.5 -15q-3 17 -11.5 36.5t-24.5 36t-40 27t-58 10.5q-28 0 -56.5 -11t-51.5 -36t-37.5 -64t-14.5 -95q0 -60 16 -104.5t43 -74t62.5 -44t74.5 -14.5q51 0 86.5 15.5t60.5 44.5q6 -1 12 -7t8 -11q-8 -13 -23 -29t-37 -30.5t-51 -25.5t-66 -14
l-47 -59q57 -2 81 -23t24 -55q0 -47 -39.5 -74.5t-108.5 -27.5q-15 0 -27 2t-15 4q-4 6 -5.5 15.5t-1.5 16.5q9 -2 21.5 -3t22.5 -1q44 0 67.5 13t23.5 41q0 54 -70 54q-8 0 -15.5 -0.5t-11.5 -2.5q-6 4 -6 13l64 87q-47 3 -87.5 22t-71 52.5t-48 81t-17.5 108.5
q0 57 21 107.5t57.5 89t86.5 61t108 22.5q48 0 80 -13.5t51.5 -32t28.5 -38.5t9 -32z" />
    <glyph glyph-name="egrave" unicode="&#xe8;" horiz-adv-x="556" 
d="M136 258q3 -54 19.5 -94.5t42.5 -67.5t60.5 -40.5t73.5 -13.5q49 0 84.5 13t64.5 41q14 -3 19 -19q-7 -11 -22.5 -27t-41 -31t-61 -25.5t-82.5 -10.5q-50 0 -93 18t-75 52t-50.5 84t-18.5 113q0 58 20 109.5t54.5 89.5t81 60.5t99.5 22.5q57 0 94 -19t58.5 -49t30 -66
t8.5 -70q-8 -12 -21.5 -21t-29.5 -14zM285 487q-31 0 -58 -11t-47 -34t-32.5 -59t-13.5 -87l282 29q1 5 1 10v9q0 31 -8 57t-24.5 45t-41 30t-58.5 11zM368 602q-20 9 -46 28t-51.5 42.5t-48.5 48.5t-38 47q22 14 61 14q11 0 17 -2q26 -42 63 -86.5t75 -81.5
q-4 -5 -13.5 -7.5t-18.5 -2.5z" />
    <glyph glyph-name="eacute" unicode="&#xe9;" horiz-adv-x="556" 
d="M136 258q3 -54 19.5 -94.5t42.5 -67.5t60.5 -40.5t73.5 -13.5q49 0 84.5 13t64.5 41q14 -3 19 -19q-7 -11 -22.5 -27t-41 -31t-61 -25.5t-82.5 -10.5q-50 0 -93 18t-75 52t-50.5 84t-18.5 113q0 58 20 109.5t54.5 89.5t81 60.5t99.5 22.5q57 0 94 -19t58.5 -49t30 -66
t8.5 -70q-8 -12 -21.5 -21t-29.5 -14zM285 487q-31 0 -58 -11t-47 -34t-32.5 -59t-13.5 -87l282 29q1 5 1 10v9q0 31 -8 57t-24.5 45t-41 30t-58.5 11zM427 779q-14 -24 -37.5 -50.5t-50 -51.5t-53 -45t-47.5 -31q-9 0 -17.5 2.5t-12.5 7.5q35 33 69 75.5t61 82.5
q23 13 60 13q16 0 28 -3z" />
    <glyph glyph-name="ecircumflex" unicode="&#xea;" horiz-adv-x="556" 
d="M136 258q3 -54 19.5 -94.5t42.5 -67.5t60.5 -40.5t73.5 -13.5q49 0 84.5 13t64.5 41q14 -3 19 -19q-7 -11 -22.5 -27t-41 -31t-61 -25.5t-82.5 -10.5q-50 0 -93 18t-75 52t-50.5 84t-18.5 113q0 58 20 109.5t54.5 89.5t81 60.5t99.5 22.5q57 0 94 -19t58.5 -49t30 -66
t8.5 -70q-8 -12 -21.5 -21t-29.5 -14zM285 487q-31 0 -58 -11t-47 -34t-32.5 -59t-13.5 -87l282 29q1 5 1 10v9q0 31 -8 57t-24.5 45t-41 30t-58.5 11zM322 784q28 -42 62 -88.5t65 -82.5q-5 -5 -14 -7.5t-17 -2.5q-13 9 -28.5 22t-31.5 27t-31.5 29t-28.5 27
q-13 -14 -28.5 -29t-31 -29t-31 -26.5t-28.5 -20.5q-8 0 -17 2.5t-14 7.5q35 38 67.5 78t61.5 82q9 5 21.5 8t23.5 3z" />
    <glyph glyph-name="edieresis" unicode="&#xeb;" horiz-adv-x="556" 
d="M136 258q3 -54 19.5 -94.5t42.5 -67.5t60.5 -40.5t73.5 -13.5q49 0 84.5 13t64.5 41q14 -3 19 -19q-7 -11 -22.5 -27t-41 -31t-61 -25.5t-82.5 -10.5q-50 0 -93 18t-75 52t-50.5 84t-18.5 113q0 58 20 109.5t54.5 89.5t81 60.5t99.5 22.5q57 0 94 -19t58.5 -49t30 -66
t8.5 -70q-8 -12 -21.5 -21t-29.5 -14zM285 487q-31 0 -58 -11t-47 -34t-32.5 -59t-13.5 -87l282 29q1 5 1 10v9q0 31 -8 57t-24.5 45t-41 30t-58.5 11zM452 675q-4 -7 -11 -15t-14.5 -15.5t-15.5 -13.5t-15 -10q-15 7 -32.5 23t-28.5 31q12 16 28.5 32t32.5 25
q14 -8 30.5 -24.5t25.5 -32.5zM253 675q-4 -7 -11 -15t-14.5 -15.5t-15.5 -13.5t-15 -10q-15 7 -32.5 23t-28.5 31q12 16 28.5 32t32.5 25q14 -8 30.5 -24.5t25.5 -32.5z" />
    <glyph glyph-name="igrave" unicode="&#xec;" horiz-adv-x="267" 
d="M94 505q17 9 37.5 13t41.5 4v-514q-14 -8 -36.5 -11.5t-42.5 -3.5v512zM145 602q-20 9 -46 28t-51.5 42.5t-48.5 48.5t-38 47q22 14 61 14q11 0 17 -2q26 -42 63 -86.5t75 -81.5q-4 -5 -13.5 -7.5t-18.5 -2.5z" />
    <glyph glyph-name="iacute" unicode="&#xed;" horiz-adv-x="268" 
d="M95 505q17 9 37.5 13t41.5 4v-514q-14 -8 -36.5 -11.5t-42.5 -3.5v512zM312 779q-14 -24 -37.5 -50.5t-50 -51.5t-53 -45t-47.5 -31q-9 0 -17.5 2.5t-12.5 7.5q35 33 69 75.5t61 82.5q23 13 60 13q16 0 28 -3z" />
    <glyph glyph-name="icircumflex" unicode="&#xee;" horiz-adv-x="268" 
d="M95 505q17 9 37.5 13t41.5 4v-514q-14 -8 -36.5 -11.5t-42.5 -3.5v512zM161 784q28 -42 62 -88.5t65 -82.5q-5 -5 -14 -7.5t-17 -2.5q-13 9 -28.5 22t-31.5 27t-31.5 29t-28.5 27q-13 -14 -28.5 -29t-31 -29t-31 -26.5t-28.5 -20.5q-8 0 -17 2.5t-14 7.5q35 38 67.5 78
t61.5 82q9 5 21.5 8t23.5 3z" />
    <glyph glyph-name="idieresis" unicode="&#xef;" horiz-adv-x="268" 
d="M95 505q17 9 37.5 13t41.5 4v-514q-14 -8 -36.5 -11.5t-42.5 -3.5v512zM296 675q-4 -7 -11 -15t-14.5 -15.5t-15.5 -13.5t-15 -10q-15 7 -32.5 23t-28.5 31q12 16 28.5 32t32.5 25q14 -8 30.5 -24.5t25.5 -32.5zM97 675q-4 -7 -11 -15t-14.5 -15.5t-15.5 -13.5t-15 -10
q-15 7 -32.5 23t-28.5 31q12 16 28.5 32t32.5 25q14 -8 30.5 -24.5t25.5 -32.5z" />
    <glyph glyph-name="eth" unicode="&#xf0;" horiz-adv-x="604" 
d="M376 691q76 -62 118.5 -158.5t42.5 -210.5q0 -77 -14.5 -140t-46 -108t-80.5 -70t-118 -25q-47 0 -87.5 16t-70.5 46.5t-47 75t-17 102.5q0 63 22.5 112t59 83t84.5 52t99 18q42 0 71.5 -10t50.5 -27q-17 69 -48.5 121.5t-73.5 88.5l-106 -65q-7 5 -13 13t-7 17l94 59
q-35 23 -74.5 37t-82.5 19q3 22 18 35q55 -1 103 -16t90 -41l92 57q8 -4 14.5 -13t8.5 -17zM460 244q0 18 -0.5 34.5t-1.5 33.5q-7 27 -20.5 50t-33.5 40.5t-46.5 27.5t-59.5 10q-28 0 -56.5 -10.5t-51 -33.5t-37 -60t-14.5 -89q0 -110 45.5 -163.5t119.5 -53.5
q40 0 69 15.5t48.5 44t29 68t9.5 86.5z" />
    <glyph glyph-name="ntilde" unicode="&#xf1;" horiz-adv-x="633" 
d="M464 312q0 85 -35 124.5t-99 39.5q-23 0 -45.5 -8.5t-43 -22.5t-38.5 -32.5t-32 -38.5v-366q-14 -8 -36.5 -11.5t-42.5 -3.5v512q33 17 74 17v-99q13 17 33.5 36.5t46 35.5t56 26.5t65.5 10.5q81 0 128.5 -49t47.5 -140v-335q-14 -8 -36.5 -11.5t-42.5 -3.5v319zM197 614
q-8 1 -15.5 4.5t-10.5 8.5q16 48 38.5 73t55.5 25q13 0 25.5 -3.5t24.5 -8.5l51 -18q17 -6 27.5 -9t18.5 -3q17 0 30 12t21 41q7 0 14.5 -3.5t11.5 -9.5q-13 -54 -34 -76t-53 -22q-14 0 -29.5 4.5t-30.5 9.5l-55 19q-11 4 -20.5 7t-17.5 3q-18 0 -30 -14t-22 -40z" />
    <glyph glyph-name="ograve" unicode="&#xf2;" horiz-adv-x="628" 
d="M140 279q0 -63 15.5 -110t41 -78.5t59 -47.5t70.5 -16q80 0 122 53.5t42 161.5q0 52 -12 97t-35.5 78t-57.5 52t-78 19q-32 0 -62 -12t-53 -37.5t-37.5 -65t-14.5 -94.5zM56 248q0 61 22 113.5t59.5 90t88 59t107.5 21.5q62 0 107.5 -21t75 -56t44 -82t14.5 -99
q0 -61 -19 -114t-54.5 -92.5t-86.5 -62.5t-116 -23q-48 0 -92 18t-77.5 52t-53 83.5t-19.5 112.5zM358 602q-20 9 -46 28t-51.5 42.5t-48.5 48.5t-38 47q22 14 61 14q11 0 17 -2q26 -42 63 -86.5t75 -81.5q-4 -5 -13.5 -7.5t-18.5 -2.5z" />
    <glyph glyph-name="oacute" unicode="&#xf3;" horiz-adv-x="628" 
d="M140 279q0 -63 15.5 -110t41 -78.5t59 -47.5t70.5 -16q80 0 122 53.5t42 161.5q0 52 -12 97t-35.5 78t-57.5 52t-78 19q-32 0 -62 -12t-53 -37.5t-37.5 -65t-14.5 -94.5zM56 248q0 61 22 113.5t59.5 90t88 59t107.5 21.5q62 0 107.5 -21t75 -56t44 -82t14.5 -99
q0 -61 -19 -114t-54.5 -92.5t-86.5 -62.5t-116 -23q-48 0 -92 18t-77.5 52t-53 83.5t-19.5 112.5zM457 779q-14 -24 -37.5 -50.5t-50 -51.5t-53 -45t-47.5 -31q-9 0 -17.5 2.5t-12.5 7.5q35 33 69 75.5t61 82.5q23 13 60 13q16 0 28 -3z" />
    <glyph glyph-name="ocircumflex" unicode="&#xf4;" horiz-adv-x="628" 
d="M56 248q0 61 22 113.5t59.5 90t88 59t107.5 21.5q62 0 107.5 -21t75 -56t44 -82t14.5 -99q0 -61 -19 -114t-54.5 -92.5t-86.5 -62.5t-116 -23q-48 0 -92 18t-77.5 52t-53 83.5t-19.5 112.5zM140 279q0 -63 15.5 -110t41 -78.5t59 -47.5t70.5 -16q80 0 122 53.5t42 161.5
q0 52 -12 97t-35.5 78t-57.5 52t-78 19q-32 0 -62 -12t-53 -37.5t-37.5 -65t-14.5 -94.5zM348 784q28 -42 62 -88.5t65 -82.5q-5 -5 -14 -7.5t-17 -2.5q-13 9 -28.5 22t-31.5 27t-31.5 29t-28.5 27q-13 -14 -28.5 -29t-31 -29t-31 -26.5t-28.5 -20.5q-8 0 -17 2.5t-14 7.5
q35 38 67.5 78t61.5 82q9 5 21.5 8t23.5 3z" />
    <glyph glyph-name="otilde" unicode="&#xf5;" horiz-adv-x="628" 
d="M140 279q0 -63 15.5 -110t41 -78.5t59 -47.5t70.5 -16q80 0 122 53.5t42 161.5q0 52 -12 97t-35.5 78t-57.5 52t-78 19q-32 0 -62 -12t-53 -37.5t-37.5 -65t-14.5 -94.5zM56 248q0 61 22 113.5t59.5 90t88 59t107.5 21.5q62 0 107.5 -21t75 -56t44 -82t14.5 -99
q0 -61 -19 -114t-54.5 -92.5t-86.5 -62.5t-116 -23q-48 0 -92 18t-77.5 52t-53 83.5t-19.5 112.5zM187 614q-8 1 -15.5 4.5t-10.5 8.5q16 48 38.5 73t55.5 25q13 0 25.5 -3.5t24.5 -8.5l51 -18q17 -6 27.5 -9t18.5 -3q17 0 30 12t21 41q7 0 14.5 -3.5t11.5 -9.5
q-13 -54 -34 -76t-53 -22q-14 0 -29.5 4.5t-30.5 9.5l-55 19q-11 4 -20.5 7t-17.5 3q-18 0 -30 -14t-22 -40z" />
    <glyph glyph-name="odieresis" unicode="&#xf6;" horiz-adv-x="628" 
d="M140 279q0 -63 15.5 -110t41 -78.5t59 -47.5t70.5 -16q80 0 122 53.5t42 161.5q0 52 -12 97t-35.5 78t-57.5 52t-78 19q-32 0 -62 -12t-53 -37.5t-37.5 -65t-14.5 -94.5zM56 248q0 61 22 113.5t59.5 90t88 59t107.5 21.5q62 0 107.5 -21t75 -56t44 -82t14.5 -99
q0 -61 -19 -114t-54.5 -92.5t-86.5 -62.5t-116 -23q-48 0 -92 18t-77.5 52t-53 83.5t-19.5 112.5zM479 675q-4 -7 -11 -15t-14.5 -15.5t-15.5 -13.5t-15 -10q-15 7 -32.5 23t-28.5 31q12 16 28.5 32t32.5 25q14 -8 30.5 -24.5t25.5 -32.5zM280 675q-4 -7 -11 -15
t-14.5 -15.5t-15.5 -13.5t-15 -10q-15 7 -32.5 23t-28.5 31q12 16 28.5 32t32.5 25q14 -8 30.5 -24.5t25.5 -32.5z" />
    <glyph glyph-name="divide" unicode="&#xf7;" horiz-adv-x="577" 
d="M52 307q1 9 3.5 19t6.5 18.5t10 14t13 5.5h440q-2 -19 -10 -38t-23 -19h-440zM352 507q-9 -17 -28.5 -35.5t-34.5 -25.5q-17 7 -37 25.5t-31 35.5q11 17 31 36t37 27q15 -8 35 -27t28 -36zM352 152q-5 -9 -12.5 -18t-16 -17.5t-18 -15.5t-16.5 -11q-17 8 -37 26.5
t-31 35.5q11 17 31 36t37 27q7 -4 16.5 -11.5t18.5 -16t16.5 -18t11.5 -17.5z" />
    <glyph glyph-name="oslash" unicode="&#xf8;" horiz-adv-x="628" 
d="M56 248q0 61 22 113.5t59.5 90t88 59t107.5 21.5q70 0 121 -28l34 51q11 -2 19 -7.5t13 -12.5l-34 -51q45 -36 66.5 -91t21.5 -119q0 -61 -19 -114t-54.5 -92.5t-86.5 -62.5t-116 -23q-68 0 -124 34l-39 -59q-9 2 -19 8t-14 13l40 61q-39 34 -62.5 86.5t-23.5 122.5z
M490 242q0 53 -12.5 98t-35.5 78l-230 -345q24 -23 53 -34.5t61 -11.5q80 0 122 53.5t42 161.5zM140 279q0 -57 12 -100.5t34 -74.5l230 343q-22 20 -49.5 30.5t-59.5 10.5t-62 -12t-53 -37.5t-37.5 -65t-14.5 -94.5z" />
    <glyph glyph-name="ugrave" unicode="&#xf9;" horiz-adv-x="624" 
d="M308 40q48 0 87 27.5t59 74.5v363q17 9 37.5 13t41.5 4v-514q-14 -8 -34.5 -11.5t-40.5 -3.5v95q-10 -17 -27.5 -35.5t-41.5 -34t-54.5 -25.5t-67.5 -10t-69.5 11t-56.5 34.5t-38 59t-14 84.5v333q17 9 37.5 13t41.5 4v-320q0 -45 11 -76t30 -50t44.5 -27.5t54.5 -8.5z
M378 602q-20 9 -46 28t-51.5 42.5t-48.5 48.5t-38 47q22 14 61 14q11 0 17 -2q26 -42 63 -86.5t75 -81.5q-4 -5 -13.5 -7.5t-18.5 -2.5z" />
    <glyph glyph-name="uacute" unicode="&#xfa;" horiz-adv-x="624" 
d="M308 40q48 0 87 27.5t59 74.5v363q17 9 37.5 13t41.5 4v-514q-14 -8 -34.5 -11.5t-40.5 -3.5v95q-10 -17 -27.5 -35.5t-41.5 -34t-54.5 -25.5t-67.5 -10t-69.5 11t-56.5 34.5t-38 59t-14 84.5v333q17 9 37.5 13t41.5 4v-320q0 -45 11 -76t30 -50t44.5 -27.5t54.5 -8.5z
M457 779q-14 -24 -37.5 -50.5t-50 -51.5t-53 -45t-47.5 -31q-9 0 -17.5 2.5t-12.5 7.5q35 33 69 75.5t61 82.5q23 13 60 13q16 0 28 -3z" />
    <glyph glyph-name="ucircumflex" unicode="&#xfb;" horiz-adv-x="624" 
d="M308 40q48 0 87 27.5t59 74.5v363q17 9 37.5 13t41.5 4v-514q-14 -8 -34.5 -11.5t-40.5 -3.5v95q-10 -17 -27.5 -35.5t-41.5 -34t-54.5 -25.5t-67.5 -10t-69.5 11t-56.5 34.5t-38 59t-14 84.5v333q17 9 37.5 13t41.5 4v-320q0 -45 11 -76t30 -50t44.5 -27.5t54.5 -8.5z
M347 784q28 -42 62 -88.5t65 -82.5q-5 -5 -14 -7.5t-17 -2.5q-13 9 -28.5 22t-31.5 27t-31.5 29t-28.5 27q-13 -14 -28.5 -29t-31 -29t-31 -26.5t-28.5 -20.5q-8 0 -17 2.5t-14 7.5q35 38 67.5 78t61.5 82q9 5 21.5 8t23.5 3z" />
    <glyph glyph-name="udieresis" unicode="&#xfc;" horiz-adv-x="624" 
d="M308 40q48 0 87 27.5t59 74.5v363q17 9 37.5 13t41.5 4v-514q-14 -8 -34.5 -11.5t-40.5 -3.5v95q-10 -17 -27.5 -35.5t-41.5 -34t-54.5 -25.5t-67.5 -10t-69.5 11t-56.5 34.5t-38 59t-14 84.5v333q17 9 37.5 13t41.5 4v-320q0 -45 11 -76t30 -50t44.5 -27.5t54.5 -8.5z
M281 675q-4 -7 -11 -15t-14.5 -15.5t-15.5 -13.5t-15 -10q-15 7 -32.5 23t-28.5 31q12 16 28.5 32t32.5 25q14 -8 30.5 -24.5t25.5 -32.5zM480 675q-4 -7 -11 -15t-14.5 -15.5t-15.5 -13.5t-15 -10q-15 7 -32.5 23t-28.5 31q12 16 28.5 32t32.5 25q14 -8 30.5 -24.5
t25.5 -32.5z" />
    <glyph glyph-name="yacute" unicode="&#xfd;" horiz-adv-x="570" 
d="M124 522q14 -51 33.5 -109.5t43 -118.5t49 -119t51.5 -110l1 2q62 123 98.5 233.5t59.5 210.5q13 6 28.5 8.5t29.5 2.5h10.5t10.5 -1q-28 -90 -77 -208.5t-112 -245.5q-27 -55 -49.5 -99t-42.5 -81t-39 -69l-38 -64q-10 -5 -28.5 -8.5t-38.5 -3.5q-19 0 -32 3v4
q42 49 87 107t90 133q-30 53 -62 119t-60.5 134t-53 134.5t-39.5 121.5q16 11 38.5 17.5t41.5 6.5zM441 779q-14 -24 -37.5 -50.5t-50 -51.5t-53 -45t-47.5 -31q-9 0 -17.5 2.5t-12.5 7.5q35 33 69 75.5t61 82.5q23 13 60 13q16 0 28 -3z" />
    <glyph glyph-name="thorn" unicode="&#xfe;" horiz-adv-x="644" 
d="M94 755q17 9 37.5 13t41.5 4v-337q14 17 34 34.5t45 32t55 23.5t64 9q51 0 91 -18t67.5 -49.5t41.5 -75t14 -94.5q0 -66 -23 -124t-63.5 -101t-96 -67.5t-120.5 -24.5q-35 0 -62 8t-47 22v-254q-14 -8 -36.5 -11.5t-42.5 -3.5v1014zM333 477q-46 0 -89.5 -28t-70.5 -72
v-276q26 -37 64 -54.5t86 -17.5q37 0 69.5 14.5t57 43.5t38.5 72t14 101q0 54 -12.5 95t-35 68t-53.5 40.5t-68 13.5z" />
    <glyph glyph-name="ydieresis" unicode="&#xff;" horiz-adv-x="570" 
d="M124 522q14 -51 33.5 -109.5t43 -118.5t49 -119t51.5 -110q62 123 99 234.5t60 211.5q13 6 28.5 8.5t29.5 2.5h10.5t10.5 -1q-28 -90 -77 -208.5t-112 -245.5q-27 -55 -49.5 -99t-42.5 -81t-39 -69l-38 -64q-10 -5 -28.5 -8.5t-38.5 -3.5q-19 0 -32 3v4q42 49 87 107
t90 133q-30 53 -62 119t-60.5 134t-53 134.5t-39.5 121.5q16 11 38.5 17.5t41.5 6.5zM264 675q-4 -7 -11 -15t-14.5 -15.5t-15.5 -13.5t-15 -10q-15 7 -32.5 23t-28.5 31q12 16 28.5 32t32.5 25q14 -8 30.5 -24.5t25.5 -32.5zM463 675q-4 -7 -11 -15t-14.5 -15.5
t-15.5 -13.5t-15 -10q-15 7 -32.5 23t-28.5 31q12 16 28.5 32t32.5 25q14 -8 30.5 -24.5t25.5 -32.5z" />
    <glyph glyph-name="Amacron" unicode="&#x100;" horiz-adv-x="679" 
d="M22 -7q33 84 70 179.5t74.5 190t73 183t63.5 159.5q17 8 37 12t40 4l265 -717q-9 -5 -25 -8.5t-38 -3.5h-9.5t-9.5 1l-78 212h-320q-35 -107 -62 -204q-9 -5 -23.5 -7.5t-29.5 -2.5q-9 0 -16 0.5t-12 1.5zM324 647q-35 -91 -71.5 -191.5t-71.5 -202.5h287zM203 837
q2 21 12.5 37.5t21.5 16.5h263q-2 -22 -11.5 -38t-23.5 -16h-262z" />
    <glyph glyph-name="amacron" unicode="&#x101;" horiz-adv-x="568" 
d="M533 37q-3 -5 -9.5 -12t-14.5 -13.5t-17.5 -11.5t-17.5 -7q-32 2 -54 24.5t-24 59.5q-8 -15 -24 -31.5t-38.5 -30t-51.5 -22t-63 -8.5q-71 0 -112.5 36t-41.5 96q0 62 47 104t161 62l119 21v39q0 72 -33.5 110t-99.5 38q-41 0 -69.5 -20.5t-28.5 -60.5q0 -18 12 -32
q-9 -12 -29 -22t-41 -12q-5 5 -12 15t-7 27q0 31 18 58t47 46.5t67 30.5t79 11q96 0 136 -43.5t40 -121.5v-251q0 -41 18 -56.5t42 -18.5zM251 38q52 0 88.5 24t52.5 62v144l-134 -24q-54 -10 -82.5 -34t-28.5 -69q0 -50 30.5 -76.5t73.5 -26.5zM141 646q2 21 12.5 37.5
t21.5 16.5h263q-2 -22 -11.5 -38t-23.5 -16h-262z" />
    <glyph glyph-name="Abreve" unicode="&#x102;" horiz-adv-x="679" 
d="M22 -7q33 84 70 179.5t74.5 190t73 183t63.5 159.5q17 8 37 12t40 4l265 -717q-9 -5 -25 -8.5t-38 -3.5h-9.5t-9.5 1l-78 212h-320q-35 -107 -62 -204q-9 -5 -23.5 -7.5t-29.5 -2.5q-9 0 -16 0.5t-12 1.5zM324 647q-35 -91 -71.5 -191.5t-71.5 -202.5h287zM457 968
q21 0 33 -12q-2 -30 -11.5 -57.5t-27.5 -48.5t-44 -33t-62 -12q-60 0 -95.5 37t-37.5 99q8 11 24 19.5t34 9.5q3 -54 25 -85t70 -31q43 0 66 30t26 84z" />
    <glyph glyph-name="abreve" unicode="&#x103;" horiz-adv-x="568" 
d="M533 37q-3 -5 -9.5 -12t-14.5 -13.5t-17.5 -11.5t-17.5 -7q-32 2 -54 24.5t-24 59.5q-8 -15 -24 -31.5t-38.5 -30t-51.5 -22t-63 -8.5q-71 0 -112.5 36t-41.5 96q0 62 47 104t161 62l119 21v39q0 72 -33.5 110t-99.5 38q-41 0 -69.5 -20.5t-28.5 -60.5q0 -18 12 -32
q-9 -12 -29 -22t-41 -12q-5 5 -12 15t-7 27q0 31 18 58t47 46.5t67 30.5t79 11q96 0 136 -43.5t40 -121.5v-251q0 -41 18 -56.5t42 -18.5zM251 38q52 0 88.5 24t52.5 62v144l-134 -24q-54 -10 -82.5 -34t-28.5 -69q0 -50 30.5 -76.5t73.5 -26.5zM385 772q21 0 33 -12
q-2 -30 -11.5 -57.5t-27.5 -48.5t-44 -33t-62 -12q-60 0 -95.5 37t-37.5 99q8 11 24 19.5t34 9.5q3 -54 25 -85t70 -31q43 0 66 30t26 84z" />
    <glyph glyph-name="Aogonek" unicode="&#x104;" horiz-adv-x="679" 
d="M22 -7q33 84 70 179.5t74.5 190t73 183t63.5 159.5q17 8 37 12t40 4l265 -717q-11 -6 -29 -9q-48 -18 -79 -48t-31 -81q0 -38 22 -55.5t48 -17.5q23 0 39 9.5t27 20.5q8 -3 12 -13q-4 -11 -12 -22.5t-21 -22t-31 -17t-42 -6.5q-45 0 -76 28t-31 77q0 27 9.5 49.5t26 41.5
t38 35t45.5 28l-75 204h-320q-35 -107 -62 -204q-9 -5 -23.5 -7.5t-29.5 -2.5q-9 0 -16 0.5t-12 1.5zM324 647q-35 -91 -71.5 -191.5t-71.5 -202.5h287z" />
    <glyph glyph-name="aogonek" unicode="&#x105;" horiz-adv-x="568" 
d="M533 37q-5 -10 -21.5 -23.5t-33.5 -18.5q-21 -10 -39 -22.5t-32 -28t-22 -35t-8 -44.5q0 -39 22 -55.5t48 -16.5q23 0 39 9.5t27 20.5q8 -3 12 -13q-4 -11 -12 -22.5t-21 -22t-31 -17t-42 -6.5q-47 0 -77 28.5t-30 76.5q0 28 10.5 51t27.5 42.5t39.5 35.5t45.5 28
q-17 11 -27 29.5t-12 43.5q-8 -15 -24 -31.5t-38.5 -30t-51.5 -22t-63 -8.5q-71 0 -112.5 36t-41.5 96q0 62 47 104t161 62l119 21v39q0 72 -33.5 110t-99.5 38q-41 0 -69.5 -20.5t-28.5 -60.5q0 -18 12 -32q-9 -12 -29 -22t-41 -12q-5 5 -12 15t-7 27q0 31 18 58t47 46.5
t67 30.5t79 11q96 0 136 -43.5t40 -121.5v-251q0 -41 18 -56.5t42 -18.5zM251 38q52 0 88.5 24t52.5 62v144l-134 -24q-54 -10 -82.5 -34t-28.5 -69q0 -50 30.5 -76.5t73.5 -26.5z" />
    <glyph glyph-name="Cacute" unicode="&#x106;" horiz-adv-x="705" 
d="M647 582q-8 -15 -27 -28t-46 -17q-5 24 -16.5 49.5t-33 46.5t-54 35t-79.5 14q-42 0 -84 -16.5t-76 -52.5t-55.5 -93.5t-21.5 -139.5q0 -81 22 -144t60 -105.5t88.5 -64.5t108.5 -22q67 0 113.5 22.5t78.5 59.5q6 -2 14 -8t10 -12q-8 -14 -26 -35t-48.5 -40.5t-76 -34
t-108.5 -14.5q-62 0 -120 22.5t-103 68t-72 114t-27 159.5q0 80 29 150.5t78.5 122.5t115 82t139.5 30q60 0 101.5 -17t67 -41t37 -49.5t11.5 -41.5zM554 955q-17 -23 -43.5 -47t-55 -45t-57 -37.5t-50.5 -24.5q-7 0 -15 3t-10 7q17 15 35.5 32t36.5 35t34.5 36t29.5 34
q10 6 26.5 8.5t33.5 2.5q11 0 20 -1t15 -3z" />
    <glyph glyph-name="cacute" unicode="&#x107;" horiz-adv-x="549" 
d="M498 414q-6 -11 -23.5 -23t-43.5 -15q-3 17 -11.5 36.5t-24.5 36t-40 27t-58 10.5q-28 0 -56.5 -11t-51.5 -36t-37.5 -64t-14.5 -95q0 -60 16 -104.5t43 -74t62.5 -44t74.5 -14.5q51 0 86.5 15.5t60.5 44.5q6 -1 12 -7t8 -11q-8 -14 -24.5 -31.5t-41.5 -32.5t-58 -25.5
t-75 -10.5q-50 0 -94.5 17t-78 51t-53 83t-19.5 114q0 57 21 107.5t57.5 89t86.5 61t108 22.5q48 0 80 -13.5t51.5 -32t28.5 -38.5t9 -32zM447 779q-14 -24 -37.5 -50.5t-50 -51.5t-53 -45t-47.5 -31q-9 0 -17.5 2.5t-12.5 7.5q35 33 69 75.5t61 82.5q23 13 60 13
q16 0 28 -3z" />
    <glyph glyph-name="Ccircumflex" unicode="&#x108;" horiz-adv-x="705" 
d="M647 582q-8 -15 -27 -28t-46 -17q-5 24 -16.5 49.5t-33 46.5t-54 35t-79.5 14q-42 0 -84 -16.5t-76 -52.5t-55.5 -93.5t-21.5 -139.5q0 -81 22 -144t60 -105.5t88.5 -64.5t108.5 -22q67 0 113.5 22.5t78.5 59.5q6 -2 14 -8t10 -12q-8 -14 -26 -35t-48.5 -40.5t-76 -34
t-108.5 -14.5q-62 0 -120 22.5t-103 68t-72 114t-27 159.5q0 80 29 150.5t78.5 122.5t115 82t139.5 30q60 0 101.5 -17t67 -41t37 -49.5t11.5 -41.5zM430 967q28 -35 65.5 -76t72.5 -76q-5 -5 -14 -8t-17 -3q-16 7 -33 18.5t-34 24t-33 26t-29 24.5q-13 -12 -29.5 -25.5
t-34 -26.5t-34.5 -24t-32 -18q-8 0 -17 2.5t-14 8.5q37 34 72.5 71t65.5 73q8 5 22 7t23 2z" />
    <glyph glyph-name="ccircumflex" unicode="&#x109;" horiz-adv-x="549" 
d="M498 414q-6 -11 -23.5 -23t-43.5 -15q-3 17 -11.5 36.5t-24.5 36t-40 27t-58 10.5q-28 0 -56.5 -11t-51.5 -36t-37.5 -64t-14.5 -95q0 -60 16 -104.5t43 -74t62.5 -44t74.5 -14.5q51 0 86.5 15.5t60.5 44.5q6 -1 12 -7t8 -11q-8 -14 -24.5 -31.5t-41.5 -32.5t-58 -25.5
t-75 -10.5q-50 0 -94.5 17t-78 51t-53 83t-19.5 114q0 57 21 107.5t57.5 89t86.5 61t108 22.5q48 0 80 -13.5t51.5 -32t28.5 -38.5t9 -32zM330 784q28 -42 62 -88.5t65 -82.5q-5 -5 -14 -7.5t-17 -2.5q-13 9 -28.5 22t-31.5 27t-31.5 29t-28.5 27q-13 -14 -28.5 -29t-31 -29
t-31 -26.5t-28.5 -20.5q-8 0 -17 2.5t-14 7.5q35 38 67.5 78t61.5 82q9 5 21.5 8t23.5 3z" />
    <glyph glyph-name="Cdotaccent" unicode="&#x10a;" horiz-adv-x="705" 
d="M647 582q-8 -15 -27 -28t-46 -17q-5 24 -16.5 49.5t-33 46.5t-54 35t-79.5 14q-42 0 -84 -16.5t-76 -52.5t-55.5 -93.5t-21.5 -139.5q0 -81 22 -144t60 -105.5t88.5 -64.5t108.5 -22q67 0 113.5 22.5t78.5 59.5q6 -2 14 -8t10 -12q-8 -14 -26 -35t-48.5 -40.5t-76 -34
t-108.5 -14.5q-62 0 -120 22.5t-103 68t-72 114t-27 159.5q0 80 29 150.5t78.5 122.5t115 82t139.5 30q60 0 101.5 -17t67 -41t37 -49.5t11.5 -41.5zM477 861q-9 -16 -28 -33.5t-34 -24.5q-15 7 -34 24.5t-29 33.5q10 17 29 35t34 26q15 -8 34.5 -26t27.5 -35z" />
    <glyph glyph-name="cdotaccent" unicode="&#x10b;" horiz-adv-x="549" 
d="M498 414q-6 -11 -23.5 -23t-43.5 -15q-3 17 -11.5 36.5t-24.5 36t-40 27t-58 10.5q-28 0 -56.5 -11t-51.5 -36t-37.5 -64t-14.5 -95q0 -60 16 -104.5t43 -74t62.5 -44t74.5 -14.5q51 0 86.5 15.5t60.5 44.5q6 -1 12 -7t8 -11q-8 -14 -24.5 -31.5t-41.5 -32.5t-58 -25.5
t-75 -10.5q-50 0 -94.5 17t-78 51t-53 83t-19.5 114q0 57 21 107.5t57.5 89t86.5 61t108 22.5q48 0 80 -13.5t51.5 -32t28.5 -38.5t9 -32zM371 670q-9 -16 -28 -33.5t-34 -24.5q-15 7 -34 24.5t-29 33.5q10 17 29 35t34 26q15 -8 34.5 -26t27.5 -35z" />
    <glyph glyph-name="Ccaron" unicode="&#x10c;" horiz-adv-x="705" 
d="M647 582q-8 -15 -27 -28t-46 -17q-5 24 -16.5 49.5t-33 46.5t-54 35t-79.5 14q-42 0 -84 -16.5t-76 -52.5t-55.5 -93.5t-21.5 -139.5q0 -81 22 -144t60 -105.5t88.5 -64.5t108.5 -22q67 0 113.5 22.5t78.5 59.5q6 -2 14 -8t10 -12q-8 -14 -26 -35t-48.5 -40.5t-76 -34
t-108.5 -14.5q-62 0 -120 22.5t-103 68t-72 114t-27 159.5q0 80 29 150.5t78.5 122.5t115 82t139.5 30q60 0 101.5 -17t67 -41t37 -49.5t11.5 -41.5zM577 962q-35 -33 -70 -71.5l-65 -71.5q-9 -6 -21 -8.5t-23 -2.5q-33 37 -70.5 78.5t-71.5 73.5q6 6 16 8.5t17 2.5
q12 -5 28.5 -16t34 -24.5t35 -28t31.5 -26.5q13 12 29.5 25.5t33.5 26.5t33.5 24t30.5 19q8 0 18 -2.5t14 -6.5z" />
    <glyph glyph-name="ccaron" unicode="&#x10d;" horiz-adv-x="549" 
d="M498 414q-6 -11 -23.5 -23t-43.5 -15q-3 17 -11.5 36.5t-24.5 36t-40 27t-58 10.5q-28 0 -56.5 -11t-51.5 -36t-37.5 -64t-14.5 -95q0 -60 16 -104.5t43 -74t62.5 -44t74.5 -14.5q51 0 86.5 15.5t60.5 44.5q6 -1 12 -7t8 -11q-8 -14 -24.5 -31.5t-41.5 -32.5t-58 -25.5
t-75 -10.5q-50 0 -94.5 17t-78 51t-53 83t-19.5 114q0 57 21 107.5t57.5 89t86.5 61t108 22.5q48 0 80 -13.5t51.5 -32t28.5 -38.5t9 -32zM468 779q-33 -37 -65.5 -78t-61.5 -82q-8 -5 -20.5 -8t-21.5 -3q-30 44 -63.5 87t-69.5 84q5 4 13 7t19 3q27 -17 60.5 -47t59.5 -59
q27 29 59.5 58t58.5 48q10 0 18.5 -3t13.5 -7z" />
    <glyph glyph-name="Dcaron" unicode="&#x10e;" horiz-adv-x="771" 
d="M110 695q48 16 105.5 26t132.5 10q90 0 157 -27.5t111.5 -74t66.5 -108t22 -130.5q0 -98 -31 -174t-87 -128.5t-134.5 -79.5t-173.5 -27q-41 0 -86 4t-83 12v697zM313 686q-39 0 -68 -2.5t-53 -6.5v-627q25 -8 63.5 -12.5t77.5 -4.5q61 0 112.5 19t89.5 58.5t59.5 100.5
t21.5 146q0 68 -18 128t-55 104.5t-94 70.5t-136 26zM540 953q-35 -33 -70 -71.5l-65 -71.5q-9 -6 -21 -8.5t-23 -2.5q-33 37 -70.5 78.5t-71.5 73.5q6 6 16 8.5t17 2.5q12 -5 28.5 -16t34 -24.5t35 -28t31.5 -26.5q13 12 29.5 25.5t33.5 26.5t33.5 24t30.5 19q8 0 18 -2.5
t14 -6.5z" />
    <glyph glyph-name="dcaron" unicode="&#x10f;" horiz-adv-x="765" 
d="M462 69q-11 -15 -27 -30t-38.5 -27t-51.5 -20t-65 -8q-44 0 -84 16t-71.5 47.5t-50 78t-18.5 107.5q0 60 22.5 114.5t61.5 95.5t91.5 65t112.5 24q40 0 68.5 -9.5t49.5 -23.5v256q17 9 37.5 13t41.5 4v-764q-14 -8 -36.5 -11.5t-42.5 -3.5v76zM317 41q56 0 92.5 26.5
t52.5 61.5v271q-8 16 -20.5 31.5t-30.5 28t-41.5 20t-52.5 7.5q-33 0 -65 -13t-57.5 -39.5t-41 -67.5t-15.5 -96q0 -63 16.5 -106.5t42 -71t57.5 -40t63 -12.5zM745 685q0 -27 -9.5 -49.5t-23 -39.5t-29 -29t-27.5 -19q-7 0 -14.5 4.5t-9.5 10.5q20 14 36.5 36.5t16.5 52.5
q0 24 -11 43.5t-34 33.5q8 17 23 29t33 16q20 -11 34.5 -34t14.5 -55z" />
    <glyph glyph-name="Dcroat" unicode="&#x110;" horiz-adv-x="790" 
d="M129 338h-111q3 20 13 32.5t21 12.5h77v312q48 16 105.5 26t132.5 10q90 0 157 -27.5t111.5 -74t66.5 -108t22 -130.5q0 -98 -31 -174t-87 -128.5t-134.5 -79.5t-173.5 -27q-41 0 -86 4t-83 12v340zM332 686q-39 0 -68 -2.5t-53 -6.5v-294h223q-2 -18 -12 -31.5
t-22 -13.5h-189v-288q25 -8 63.5 -12.5t77.5 -4.5q61 0 112.5 19t89.5 58.5t59.5 100.5t21.5 146q0 68 -18 128t-55 104.5t-94 70.5t-136 26z" />
    <glyph glyph-name="dcroat" unicode="&#x111;" horiz-adv-x="634" 
d="M462 69q-11 -15 -27 -30t-38.5 -27t-51.5 -20t-65 -8q-44 0 -84 16t-71.5 47.5t-50 78t-18.5 107.5q0 60 22.5 114.5t61.5 95.5t91.5 65t112.5 24q40 0 68.5 -9.5t49.5 -23.5v136h-169q2 19 13 32t22 13h134v75q17 9 37.5 13t41.5 4v-92h103q-2 -19 -12 -32t-22 -13h-69
v-627q-14 -8 -36.5 -11.5t-42.5 -3.5v76zM317 41q56 0 92.5 26.5t52.5 61.5v271q-8 16 -20.5 31.5t-30.5 28t-41.5 20t-52.5 7.5q-33 0 -65 -13t-57.5 -39.5t-41 -67.5t-15.5 -96q0 -63 16.5 -106.5t42 -71t57.5 -40t63 -12.5z" />
    <glyph glyph-name="Emacron" unicode="&#x112;" horiz-adv-x="628" 
d="M110 -7v702q34 19 82 21q29 1 77.5 1.5t103 1.5t107 1.5t88.5 0.5q-2 -21 -11.5 -38t-21.5 -22q-34 0 -77 1.5t-89 3t-92 3.5t-85 4v-294l317 6q-2 -18 -10 -33t-18 -17q-73 1 -145 1.5t-144 2.5v-302q88 2 183 6.5t201 11.5q-3 -23 -12 -39.5t-20 -22.5h-434zM208 837
q2 21 12.5 37.5t21.5 16.5h263q-2 -22 -11.5 -38t-23.5 -16h-262z" />
    <glyph glyph-name="emacron" unicode="&#x113;" horiz-adv-x="556" 
d="M136 258q3 -54 19.5 -94.5t42.5 -67.5t60.5 -40.5t73.5 -13.5q49 0 84.5 13t64.5 41q14 -3 19 -19q-7 -11 -22.5 -27t-41 -31t-61 -25.5t-82.5 -10.5q-50 0 -93 18t-75 52t-50.5 84t-18.5 113q0 58 20 109.5t54.5 89.5t81 60.5t99.5 22.5q57 0 94 -19t58.5 -49t30 -66
t8.5 -70q-8 -12 -21.5 -21t-29.5 -14zM285 487q-31 0 -58 -11t-47 -34t-32.5 -59t-13.5 -87l282 29q1 5 1 10v9q0 31 -8 57t-24.5 45t-41 30t-58.5 11zM162 646q2 21 12.5 37.5t21.5 16.5h263q-2 -22 -11.5 -38t-23.5 -16h-262z" />
    <glyph glyph-name="Ebreve" unicode="&#x114;" horiz-adv-x="628" 
d="M110 -7v702q34 19 82 21q29 1 77.5 1.5t103 1.5t107 1.5t88.5 0.5q-2 -21 -11.5 -38t-21.5 -22q-34 0 -77 1.5t-89 3t-92 3.5t-85 4v-294l317 6q-2 -18 -10 -33t-18 -17q-73 1 -145 1.5t-144 2.5v-302q88 2 183 6.5t201 11.5q-3 -23 -12 -39.5t-20 -22.5h-434zM473 967
q21 0 33 -12q-2 -30 -11.5 -57.5t-27.5 -48.5t-44 -33t-62 -12q-60 0 -95.5 37t-37.5 99q8 11 24 19.5t34 9.5q3 -54 25 -85t70 -31q43 0 66 30t26 84z" />
    <glyph glyph-name="ebreve" unicode="&#x115;" horiz-adv-x="556" 
d="M136 258q3 -54 19.5 -94.5t42.5 -67.5t60.5 -40.5t73.5 -13.5q49 0 84.5 13t64.5 41q14 -3 19 -19q-7 -11 -22.5 -27t-41 -31t-61 -25.5t-82.5 -10.5q-50 0 -93 18t-75 52t-50.5 84t-18.5 113q0 58 20 109.5t54.5 89.5t81 60.5t99.5 22.5q57 0 94 -19t58.5 -49t30 -66
t8.5 -70q-8 -12 -21.5 -21t-29.5 -14zM285 487q-31 0 -58 -11t-47 -34t-32.5 -59t-13.5 -87l282 29q1 5 1 10v9q0 31 -8 57t-24.5 45t-41 30t-58.5 11zM419 772q21 0 33 -12q-2 -30 -11.5 -57.5t-27.5 -48.5t-44 -33t-62 -12q-60 0 -95.5 37t-37.5 99q8 11 24 19.5t34 9.5
q3 -54 25 -85t70 -31q43 0 66 30t26 84z" />
    <glyph glyph-name="Edotaccent" unicode="&#x116;" horiz-adv-x="628" 
d="M110 -7v702q34 19 82 21q29 1 77.5 1.5t103 1.5t107 1.5t88.5 0.5q-2 -21 -11.5 -38t-21.5 -22q-34 0 -77 1.5t-89 3t-92 3.5t-85 4v-294l317 6q-2 -18 -10 -33t-18 -17q-73 1 -145 1.5t-144 2.5v-302q88 2 183 6.5t201 11.5q-3 -23 -12 -39.5t-20 -22.5h-434zM424 861
q-9 -16 -28 -33.5t-34 -24.5q-15 7 -34 24.5t-29 33.5q10 17 29 35t34 26q15 -8 34.5 -26t27.5 -35z" />
    <glyph glyph-name="edotaccent" unicode="&#x117;" horiz-adv-x="556" 
d="M136 258q3 -54 19.5 -94.5t42.5 -67.5t60.5 -40.5t73.5 -13.5q49 0 84.5 13t64.5 41q14 -3 19 -19q-7 -11 -22.5 -27t-41 -31t-61 -25.5t-82.5 -10.5q-50 0 -93 18t-75 52t-50.5 84t-18.5 113q0 58 20 109.5t54.5 89.5t81 60.5t99.5 22.5q57 0 94 -19t58.5 -49t30 -66
t8.5 -70q-8 -12 -21.5 -21t-29.5 -14zM285 487q-31 0 -58 -11t-47 -34t-32.5 -59t-13.5 -87l282 29q1 5 1 10v9q0 31 -8 57t-24.5 45t-41 30t-58.5 11zM373 679q-9 -16 -28 -33.5t-34 -24.5q-15 7 -34 24.5t-29 33.5q10 17 29 35t34 26q15 -8 34.5 -26t27.5 -35z" />
    <glyph glyph-name="Eogonek" unicode="&#x118;" horiz-adv-x="628" 
d="M544 -7q-22 -9 -42.5 -20t-36 -26t-25 -35t-9.5 -47q0 -38 22 -55t48 -17q23 0 39 9.5t27 20.5q8 -3 12 -13q-4 -11 -12 -22.5t-21 -22t-31 -17t-42 -6.5q-47 0 -77 28.5t-30 76.5q0 25 9 47t24 40t34.5 33t40.5 26h-364v702q34 19 82 21q29 1 77.5 1.5t103 1.5t107 1.5
t88.5 0.5q-2 -21 -11.5 -38t-21.5 -22q-34 0 -77 1.5t-89 3t-92 3.5t-85 4v-294l317 6q-2 -18 -10 -33t-18 -17q-73 1 -145 1.5t-144 2.5v-302q88 2 183 6.5t201 11.5q-3 -23 -12 -39.5t-20 -22.5z" />
    <glyph glyph-name="eogonek" unicode="&#x119;" horiz-adv-x="556" 
d="M287 -131q0 35 17 65.5t47 53.5q-14 -2 -28 -3.5t-30 -1.5q-50 0 -93 18t-75 52t-50.5 84t-18.5 113q0 58 20 109.5t54.5 89.5t81 60.5t99.5 22.5q57 0 94 -19t58.5 -49t30 -66t8.5 -70q-8 -12 -21.5 -21t-29.5 -14l-315 -35q3 -54 19.5 -94.5t42.5 -67.5t60.5 -40.5
t73.5 -13.5q49 0 84.5 13t64.5 41q14 -3 19 -19q-8 -12 -24.5 -28.5t-42.5 -31.5q-16 -10 -31 -22t-26 -27.5t-18 -34.5t-7 -42q0 -38 22 -56t48 -18q23 0 39.5 9.5t27.5 20.5q8 -3 12 -13q-4 -11 -12 -22.5t-21 -22t-31 -17t-41 -6.5q-47 0 -77.5 27.5t-30.5 75.5zM285 487
q-31 0 -58 -11t-47 -34t-32.5 -59t-13.5 -87l282 29q1 5 1 10v9q0 31 -8 57t-24.5 45t-41 30t-58.5 11z" />
    <glyph glyph-name="Ecaron" unicode="&#x11a;" horiz-adv-x="628" 
d="M110 -7v702q34 19 82 21q29 1 77.5 1.5t103 1.5t107 1.5t88.5 0.5q-2 -21 -11.5 -38t-21.5 -22q-34 0 -77 1.5t-89 3t-92 3.5t-85 4v-294l317 6q-2 -18 -10 -33t-18 -17q-73 1 -145 1.5t-144 2.5v-302q88 2 183 6.5t201 11.5q-3 -23 -12 -39.5t-20 -22.5h-434zM520 962
q-35 -33 -70 -71.5l-65 -71.5q-9 -6 -21 -8.5t-23 -2.5q-33 37 -70.5 78.5t-71.5 73.5q6 6 16 8.5t17 2.5q12 -5 28.5 -16t34 -24.5t35 -28t31.5 -26.5q13 12 29.5 25.5t33.5 26.5t33.5 24t30.5 19q8 0 18 -2.5t14 -6.5z" />
    <glyph glyph-name="ecaron" unicode="&#x11b;" horiz-adv-x="556" 
d="M136 258q3 -54 19.5 -94.5t42.5 -67.5t60.5 -40.5t73.5 -13.5q49 0 84.5 13t64.5 41q14 -3 19 -19q-7 -11 -22.5 -27t-41 -31t-61 -25.5t-82.5 -10.5q-50 0 -93 18t-75 52t-50.5 84t-18.5 113q0 58 20 109.5t54.5 89.5t81 60.5t99.5 22.5q57 0 94 -19t58.5 -49t30 -66
t8.5 -70q-8 -12 -21.5 -21t-29.5 -14zM285 487q-31 0 -58 -11t-47 -34t-32.5 -59t-13.5 -87l282 29q1 5 1 10v9q0 31 -8 57t-24.5 45t-41 30t-58.5 11zM446 779q-33 -37 -65.5 -78t-61.5 -82q-8 -5 -20.5 -8t-21.5 -3q-30 44 -63.5 87t-69.5 84q5 4 13 7t19 3
q27 -17 60.5 -47t59.5 -59q27 29 59.5 58t58.5 48q10 0 18.5 -3t13.5 -7z" />
    <glyph glyph-name="Gcircumflex" unicode="&#x11c;" horiz-adv-x="771" 
d="M684 91q-10 -12 -31.5 -30.5t-56 -36t-81.5 -30t-107 -12.5q-66 0 -127 22.5t-108.5 68t-76 114t-28.5 160.5q0 79 28.5 149t79 122.5t118.5 82.5t148 30q67 0 111 -17t70.5 -40.5t38.5 -48t15 -40.5q-7 -14 -26.5 -26.5t-45.5 -16.5q-6 25 -20 50t-38.5 44.5t-60.5 31.5
t-85 12q-47 0 -91 -17.5t-78.5 -53.5t-55 -92t-20.5 -133q0 -92 24.5 -158t65 -108.5t92.5 -62.5t107 -20q64 0 100 13.5t57 25.5v248q-48 -2 -99 -3.5t-93 -1.5q2 17 9.5 31t16.5 19l248 -2v-274zM429 967q28 -35 65.5 -76t72.5 -76q-5 -5 -14 -8t-17 -3q-16 7 -33 18.5
t-34 24t-33 26t-29 24.5q-13 -12 -29.5 -25.5t-34 -26.5t-34.5 -24t-32 -18q-8 0 -17 2.5t-14 8.5q37 34 72.5 71t65.5 73q8 5 22 7t23 2z" />
    <glyph glyph-name="gcircumflex" unicode="&#x11d;" horiz-adv-x="571" 
d="M259 169q-15 0 -28.5 1.5t-27.5 3.5q-26 -10 -42 -25.5t-16 -34.5q0 -29 30 -40t88 -14l105 -5q47 -2 79.5 -15t52.5 -32.5t29 -43.5t9 -48q0 -41 -21 -75t-58.5 -58t-89.5 -37.5t-114 -13.5q-47 0 -86 8t-67.5 24.5t-44.5 40t-16 55.5q0 25 9.5 44t25 33t34.5 23.5
t38 14.5q5 -2 8 -8t4 -11q-18 -10 -31 -27t-13 -48q0 -26 13.5 -45.5t37.5 -32.5t57.5 -19t73.5 -6q85 0 127.5 30t42.5 75t-32 73t-111 33l-104 6q-75 5 -110 25.5t-35 62.5q0 18 7.5 34t20 29t28 23.5t30.5 17.5q-44 19 -69 56.5t-25 91.5q0 41 17.5 77t48.5 62.5t72.5 42
t89.5 15.5q17 0 32 -2t29 -5q5 -1 10.5 -1h13.5q44 0 60.5 14.5t16.5 36.5q0 13 -5 22.5t-13 16.5q31 29 74 29q9 -8 15 -21.5t6 -30.5q0 -42 -33.5 -64.5t-87.5 -24.5q38 -25 54.5 -63t16.5 -76q0 -44 -18 -79.5t-48.5 -61t-72 -39.5t-87.5 -14zM271 492q-25 0 -46.5 -8.5
t-38 -25t-26 -40.5t-9.5 -56q0 -36 10 -64.5t27.5 -48t41.5 -30t51 -10.5q25 0 47 7t38.5 22t26 39t9.5 58q0 31 -8.5 59t-25 50t-41 35t-56.5 13zM291 784q28 -42 62 -88.5t65 -82.5q-5 -5 -14 -7.5t-17 -2.5q-13 9 -28.5 22t-31.5 27t-31.5 29t-28.5 27q-13 -14 -28.5 -29
t-31 -29t-31 -26.5t-28.5 -20.5q-8 0 -17 2.5t-14 7.5q35 38 67.5 78t61.5 82q9 5 21.5 8t23.5 3z" />
    <glyph glyph-name="Gbreve" unicode="&#x11e;" horiz-adv-x="771" 
d="M684 91q-10 -12 -31.5 -30.5t-56 -36t-81.5 -30t-107 -12.5q-66 0 -127 22.5t-108.5 68t-76 114t-28.5 160.5q0 79 28.5 149t79 122.5t118.5 82.5t148 30q67 0 111 -17t70.5 -40.5t38.5 -48t15 -40.5q-7 -14 -26.5 -26.5t-45.5 -16.5q-6 25 -20 50t-38.5 44.5t-60.5 31.5
t-85 12q-47 0 -91 -17.5t-78.5 -53.5t-55 -92t-20.5 -133q0 -92 24.5 -158t65 -108.5t92.5 -62.5t107 -20q64 0 100 13.5t57 25.5v248q-48 -2 -99 -3.5t-93 -1.5q2 17 9.5 31t16.5 19l248 -2v-274zM548 967q21 0 33 -12q-2 -30 -11.5 -57.5t-27.5 -48.5t-44 -33t-62 -12
q-60 0 -95.5 37t-37.5 99q8 11 24 19.5t34 9.5q3 -54 25 -85t70 -31q43 0 66 30t26 84z" />
    <glyph glyph-name="gbreve" unicode="&#x11f;" horiz-adv-x="571" 
d="M259 169q-15 0 -28.5 1.5t-27.5 3.5q-26 -10 -42 -25.5t-16 -34.5q0 -29 30 -40t88 -14l105 -5q47 -2 79.5 -15t52.5 -32.5t29 -43.5t9 -48q0 -41 -21 -75t-58.5 -58t-89.5 -37.5t-114 -13.5q-47 0 -86 8t-67.5 24.5t-44.5 40t-16 55.5q0 25 9.5 44t25 33t34.5 23.5
t38 14.5q5 -2 8 -8t4 -11q-18 -10 -31 -27t-13 -48q0 -26 13.5 -45.5t37.5 -32.5t57.5 -19t73.5 -6q85 0 127.5 30t42.5 75t-32 73t-111 33l-104 6q-75 5 -110 25.5t-35 62.5q0 18 7.5 34t20 29t28 23.5t30.5 17.5q-44 19 -69 56.5t-25 91.5q0 41 17.5 77t48.5 62.5t72.5 42
t89.5 15.5q17 0 32 -2t29 -5q5 -1 10.5 -1h13.5q44 0 60.5 14.5t16.5 36.5q0 13 -5 22.5t-13 16.5q31 29 74 29q9 -8 15 -21.5t6 -30.5q0 -42 -33.5 -64.5t-87.5 -24.5q38 -25 54.5 -63t16.5 -76q0 -44 -18 -79.5t-48.5 -61t-72 -39.5t-87.5 -14zM271 492q-25 0 -46.5 -8.5
t-38 -25t-26 -40.5t-9.5 -56q0 -36 10 -64.5t27.5 -48t41.5 -30t51 -10.5q25 0 47 7t38.5 22t26 39t9.5 58q0 31 -8.5 59t-25 50t-41 35t-56.5 13zM398 802q21 0 33 -12q-2 -30 -11.5 -57.5t-27.5 -48.5t-44 -33t-62 -12q-60 0 -95.5 37t-37.5 99q8 11 24 19.5t34 9.5
q3 -54 25 -85t70 -31q43 0 66 30t26 84z" />
    <glyph glyph-name="Gdotaccent" unicode="&#x120;" horiz-adv-x="771" 
d="M684 91q-10 -12 -31.5 -30.5t-56 -36t-81.5 -30t-107 -12.5q-66 0 -127 22.5t-108.5 68t-76 114t-28.5 160.5q0 79 28.5 149t79 122.5t118.5 82.5t148 30q67 0 111 -17t70.5 -40.5t38.5 -48t15 -40.5q-7 -14 -26.5 -26.5t-45.5 -16.5q-6 25 -20 50t-38.5 44.5t-60.5 31.5
t-85 12q-47 0 -91 -17.5t-78.5 -53.5t-55 -92t-20.5 -133q0 -92 24.5 -158t65 -108.5t92.5 -62.5t107 -20q64 0 100 13.5t57 25.5v248q-48 -2 -99 -3.5t-93 -1.5q2 17 9.5 31t16.5 19l248 -2v-274zM495 861q-9 -16 -28 -33.5t-34 -24.5q-15 7 -34 24.5t-29 33.5q10 17 29 35
t34 26q15 -8 34.5 -26t27.5 -35z" />
    <glyph glyph-name="gdotaccent" unicode="&#x121;" horiz-adv-x="571" 
d="M259 169q-15 0 -28.5 1.5t-27.5 3.5q-26 -10 -42 -25.5t-16 -34.5q0 -29 30 -40t88 -14l105 -5q47 -2 79.5 -15t52.5 -32.5t29 -43.5t9 -48q0 -41 -21 -75t-58.5 -58t-89.5 -37.5t-114 -13.5q-47 0 -86 8t-67.5 24.5t-44.5 40t-16 55.5q0 25 9.5 44t25 33t34.5 23.5
t38 14.5q5 -2 8 -8t4 -11q-18 -10 -31 -27t-13 -48q0 -26 13.5 -45.5t37.5 -32.5t57.5 -19t73.5 -6q85 0 127.5 30t42.5 75t-32 73t-111 33l-104 6q-75 5 -110 25.5t-35 62.5q0 18 7.5 34t20 29t28 23.5t30.5 17.5q-44 19 -69 56.5t-25 91.5q0 41 17.5 77t48.5 62.5t72.5 42
t89.5 15.5q17 0 32 -2t29 -5q5 -1 10.5 -1h13.5q44 0 60.5 14.5t16.5 36.5q0 13 -5 22.5t-13 16.5q31 29 74 29q9 -8 15 -21.5t6 -30.5q0 -42 -33.5 -64.5t-87.5 -24.5q38 -25 54.5 -63t16.5 -76q0 -44 -18 -79.5t-48.5 -61t-72 -39.5t-87.5 -14zM271 492q-25 0 -46.5 -8.5
t-38 -25t-26 -40.5t-9.5 -56q0 -36 10 -64.5t27.5 -48t41.5 -30t51 -10.5q25 0 47 7t38.5 22t26 39t9.5 58q0 31 -8.5 59t-25 50t-41 35t-56.5 13zM351 679q-9 -16 -28 -33.5t-34 -24.5q-15 7 -34 24.5t-29 33.5q10 17 29 35t34 26q15 -8 34.5 -26t27.5 -35z" />
    <glyph glyph-name="Hcircumflex" unicode="&#x124;" horiz-adv-x="783" 
d="M673 9q-16 -9 -37.5 -12.5t-44.5 -3.5v351h-399v-335q-16 -9 -37.5 -12.5t-44.5 -3.5v710q34 18 82 18v-330h399v312q34 18 82 18v-712zM431 967q28 -35 65.5 -76t72.5 -76q-5 -5 -14 -8t-17 -3q-16 7 -33 18.5t-34 24t-33 26t-29 24.5q-13 -12 -29.5 -25.5t-34 -26.5
t-34.5 -24t-32 -18q-8 0 -17 2.5t-14 8.5q37 34 72.5 71t65.5 73q8 5 22 7t23 2z" />
    <glyph glyph-name="hcircumflex" unicode="&#x125;" horiz-adv-x="637" 
d="M467 312q0 85 -35 124.5t-99 39.5q-23 0 -46 -8.5t-43.5 -23t-38.5 -33t-32 -39.5v-364q-14 -8 -36.5 -11.5t-42.5 -3.5v762q17 9 37.5 13t41.5 4v-342q14 17 34 35t45 33t54.5 24.5t63.5 9.5q81 0 128.5 -49t47.5 -140v-335q-14 -8 -36.5 -11.5t-42.5 -3.5v319zM159 968
q28 -35 65.5 -76t72.5 -76q-5 -5 -14 -8t-17 -3q-16 7 -33 18.5t-34 24t-33 26t-29 24.5q-13 -12 -29.5 -25.5t-34 -26.5t-34.5 -24t-32 -18q-8 0 -17 2.5t-14 8.5q37 34 72.5 71t65.5 73q8 5 22 7t23 2z" />
    <glyph glyph-name="Hbar" unicode="&#x126;" horiz-adv-x="783" 
d="M673 589h103q-2 -19 -12 -32t-22 -13h-69v-535q-16 -9 -37.5 -12.5t-44.5 -3.5v351h-399v-335q-16 -9 -37.5 -12.5t-44.5 -3.5v551h-92q2 19 13 32t22 13h57v114q34 18 82 18v-132h399v114q34 18 82 18v-132zM192 391h399v153h-399v-153z" />
    <glyph glyph-name="hbar" unicode="&#x127;" horiz-adv-x="637" 
d="M94 635h-101q2 19 13 32t22 13h66v75q17 9 37.5 13t41.5 4v-92h171q-2 -19 -12 -32t-22 -13h-137v-205q14 17 34 35t45 33t54.5 24.5t63.5 9.5q81 0 128.5 -49t47.5 -140v-335q-14 -8 -36.5 -11.5t-42.5 -3.5v319q0 85 -35 124.5t-99 39.5q-23 0 -46 -8.5t-43.5 -23
t-38.5 -33t-32 -39.5v-364q-14 -8 -36.5 -11.5t-42.5 -3.5v642z" />
    <glyph glyph-name="Itilde" unicode="&#x128;" horiz-adv-x="304" 
d="M28 822q-8 1 -15.5 4.5t-10.5 8.5q16 48 38.5 73t55.5 25q13 0 25.5 -3.5t24.5 -8.5l51 -18q17 -6 27.5 -9t18.5 -3q17 0 30 12t21 41q7 0 14.5 -3.5t11.5 -9.5q-13 -54 -34 -76t-53 -22q-14 0 -29.5 4.5t-30.5 9.5l-55 19q-11 4 -20.5 7t-17.5 3q-18 0 -30 -14t-22 -40z
M193 9q-16 -9 -37.5 -12.5t-44.5 -3.5v710q34 18 82 18v-712z" />
    <glyph glyph-name="itilde" unicode="&#x129;" horiz-adv-x="271" 
d="M96 505q17 9 37.5 13t41.5 4v-514q-14 -8 -36.5 -11.5t-42.5 -3.5v512zM7 622q-8 1 -15.5 4.5t-10.5 8.5q16 48 38.5 73t55.5 25q13 0 25.5 -3.5t24.5 -8.5l51 -18q17 -6 27.5 -9t18.5 -3q17 0 30 12t21 41q7 0 14.5 -3.5t11.5 -9.5q-13 -54 -34 -76t-53 -22
q-14 0 -29.5 4.5t-30.5 9.5l-55 19q-11 4 -20.5 7t-17.5 3q-18 0 -30 -14t-22 -40z" />
    <glyph glyph-name="Imacron" unicode="&#x12a;" horiz-adv-x="304" 
d="M193 9q-16 -9 -37.5 -12.5t-44.5 -3.5v710q34 18 82 18v-712zM6 837q2 21 12.5 37.5t21.5 16.5h263q-2 -22 -11.5 -38t-23.5 -16h-262z" />
    <glyph glyph-name="imacron" unicode="&#x12b;" horiz-adv-x="268" 
d="M95 505q17 9 37.5 13t41.5 4v-514q-14 -8 -36.5 -11.5t-42.5 -3.5v512zM-14 646q2 21 12.5 37.5t21.5 16.5h263q-2 -22 -11.5 -38t-23.5 -16h-262z" />
    <glyph glyph-name="Iogonek" unicode="&#x12e;" horiz-adv-x="304" 
d="M193 9q-5 -2 -9.5 -4t-9.5 -4q-17 -8 -33 -20t-28.5 -27.5t-20.5 -36t-8 -45.5q0 -22 7 -37t18.5 -24.5t25 -14t27.5 -4.5q23 0 39 10t27 21q5 -2 8 -6t4 -7q-4 -11 -12 -22.5t-21 -22t-31 -17t-42 -6.5q-46 0 -79 28t-33 81q0 49 26.5 85t62.5 61v706q34 18 82 18v-712z
" />
    <glyph glyph-name="iogonek" unicode="&#x12f;" horiz-adv-x="268" 
d="M5 -149q0 50 26.5 86t63.5 61v507q17 9 37.5 13t41.5 4v-514q-7 -4 -17 -7q-17 -8 -33 -20t-28.5 -27.5t-20.5 -36t-8 -45.5q0 -22 7 -37t18.5 -24.5t25 -14t27.5 -4.5q23 0 39 10t27 21q5 -2 8 -6t4 -7q-4 -11 -12 -22.5t-21 -22t-31 -17t-42 -6.5q-46 0 -79 28t-33 81z
M199 679q-9 -16 -28 -33.5t-34 -24.5q-15 7 -34 24.5t-29 33.5q10 17 29 35t34 26q15 -8 34.5 -26t27.5 -35z" />
    <glyph glyph-name="Idotaccent" unicode="&#x130;" horiz-adv-x="304" 
d="M216 878q-9 -16 -28 -33.5t-34 -24.5q-15 7 -34 24.5t-29 33.5q10 17 29 35t34 26q15 -8 34.5 -26t27.5 -35zM193 9q-16 -9 -37.5 -12.5t-44.5 -3.5v710q34 18 82 18v-712z" />
    <glyph glyph-name="Jcircumflex" unicode="&#x134;" horiz-adv-x="312" 
d="M202 5q0 -54 -16 -98t-44.5 -76t-67 -49.5t-83.5 -17.5q-41 0 -68 13t-38 28q2 17 15 36t32 28q14 -18 36 -31.5t52 -13.5q19 0 37 5t32 19.5t22.5 40.5t8.5 68v746q34 18 82 18v-716zM184 967q28 -35 65.5 -76t72.5 -76q-5 -5 -14 -8t-17 -3q-16 7 -33 18.5t-34 24
t-33 26t-29 24.5q-13 -12 -29.5 -25.5t-34 -26.5t-34.5 -24t-32 -18q-8 0 -17 2.5t-14 8.5q37 34 72.5 71t65.5 73q8 5 22 7t23 2z" />
    <glyph glyph-name="jcircumflex" unicode="&#x135;" horiz-adv-x="271" 
d="M-36 -258q-52 0 -78.5 20.5t-34.5 41.5q5 15 21 29.5t35 19.5q9 -21 30.5 -38.5t57.5 -17.5q21 0 40 7t33 23t22 42t8 64v572q17 9 37.5 13t41.5 4v-531q0 -59 -19.5 -105t-50.5 -78t-69 -49t-74 -17zM161 784q28 -42 62 -88.5t65 -82.5q-5 -5 -14 -7.5t-17 -2.5
q-13 9 -28.5 22t-31.5 27t-31.5 29t-28.5 27q-13 -14 -28.5 -29t-31 -29t-31 -26.5t-28.5 -20.5q-8 0 -17 2.5t-14 7.5q35 38 67.5 78t61.5 82q9 5 21.5 8t23.5 3z" />
    <glyph glyph-name="kgreenlandic" unicode="&#x138;" horiz-adv-x="562" 
d="M94 505q17 9 37.5 13t41.5 4v-261q64 42 129.5 108t118.5 142q10 6 26.5 9t33.5 3q16 0 27 -3q-20 -27 -49 -59.5t-61.5 -65t-66 -61.5t-60.5 -48q25 -2 43.5 -16t43.5 -46l81 -107q17 -23 30 -39.5t24 -29t20 -21.5t19 -16v-5q-13 -7 -38 -10t-41 -3q-13 5 -29.5 22.5
t-44.5 55.5l-85 117q-22 30 -41 40.5t-44 10.5q-10 0 -19 -3t-17 -8v-220q-14 -8 -36.5 -11.5t-42.5 -3.5v512z" />
    <glyph glyph-name="Lacute" unicode="&#x139;" horiz-adv-x="584" 
d="M192 37q81 3 168 8t196 12q-2 -23 -11 -40.5t-20 -23.5h-415v710q34 18 82 18v-684zM335 955q-17 -23 -43.5 -47t-55 -45t-57 -37.5t-50.5 -24.5q-7 0 -15 3t-10 7q17 15 35.5 32t36.5 35t34.5 36t29.5 34q10 6 26.5 8.5t33.5 2.5q11 0 20 -1t15 -3z" />
    <glyph glyph-name="lacute" unicode="&#x13a;" horiz-adv-x="269" 
d="M95 755q17 9 37.5 13t41.5 4v-764q-14 -8 -36.5 -11.5t-42.5 -3.5v762zM335 985q-17 -23 -43.5 -47t-55 -45t-57 -37.5t-50.5 -24.5q-7 0 -15 3t-10 7q17 15 35.5 32t36.5 35t34.5 36t29.5 34q10 6 26.5 8.5t33.5 2.5q11 0 20 -1t15 -3z" />
    <glyph glyph-name="Lcaron" unicode="&#x13d;" horiz-adv-x="584" 
d="M192 37q81 3 168 8t196 12q-2 -23 -11 -40.5t-20 -23.5h-415v710q34 18 82 18v-684zM436 634q0 -27 -9.5 -49.5t-23 -39.5t-29 -29t-27.5 -19q-7 0 -14.5 4.5t-9.5 10.5q20 14 36.5 36.5t16.5 52.5q0 24 -11 43.5t-34 33.5q8 17 23 29t33 16q20 -11 34.5 -34t14.5 -55z
" />
    <glyph glyph-name="lcaron" unicode="&#x13e;" horiz-adv-x="399" 
d="M96 755q17 9 37.5 13t41.5 4v-764q-14 -8 -36.5 -11.5t-42.5 -3.5v762zM379 687q0 -27 -9.5 -49.5t-23 -39.5t-29 -29t-27.5 -19q-7 0 -14.5 4.5t-9.5 10.5q20 14 36.5 36.5t16.5 52.5q0 24 -11 43.5t-34 33.5q8 17 23 29t33 16q20 -11 34.5 -34t14.5 -55z" />
    <glyph glyph-name="Ldot" unicode="&#x13f;" horiz-adv-x="584" 
d="M192 37q81 3 168 8t196 12q-2 -23 -11 -40.5t-20 -23.5h-415v710q34 18 82 18v-684zM514 376q-11 -20 -30.5 -37.5t-36.5 -25.5q-18 8 -37 25.5t-30 37.5q11 19 30.5 37.5t36.5 26.5q20 -8 39 -26.5t28 -37.5z" />
    <glyph glyph-name="ldot" unicode="&#x140;" horiz-adv-x="334" 
d="M94 755q17 9 37.5 13t41.5 4v-764q-14 -8 -36.5 -11.5t-42.5 -3.5v762zM368 336q-11 -20 -30.5 -37.5t-36.5 -25.5q-18 8 -37 25.5t-30 37.5q11 19 30.5 37.5t36.5 26.5q20 -8 39 -26.5t28 -37.5z" />
    <glyph glyph-name="uni0122" unicode="&#x122;" horiz-adv-x="771" 
d="M684 91q-10 -12 -31.5 -30.5t-56 -36t-81.5 -30t-107 -12.5q-66 0 -127 22.5t-108.5 68t-76 114t-28.5 160.5q0 79 28.5 149t79 122.5t118.5 82.5t148 30q67 0 111 -17t70.5 -40.5t38.5 -48t15 -40.5q-7 -14 -26.5 -26.5t-45.5 -16.5q-6 25 -20 50t-38.5 44.5t-60.5 31.5
t-85 12q-47 0 -91 -17.5t-78.5 -53.5t-55 -92t-20.5 -133q0 -92 24.5 -158t65 -108.5t92.5 -62.5t107 -20q64 0 100 13.5t57 25.5v248q-48 -2 -99 -3.5t-93 -1.5q2 17 9.5 31t16.5 19l248 -2v-274zM470 -168q0 -27 -9.5 -49.5t-23 -39.5t-29 -29t-27.5 -19q-7 0 -14.5 4.5
t-9.5 10.5q20 14 36.5 36.5t16.5 52.5q0 24 -11 43.5t-34 33.5q8 17 23 29t33 16q20 -11 34.5 -34t14.5 -55z" />
    <glyph glyph-name="uni0123" unicode="&#x123;" horiz-adv-x="571" 
d="M259 169q-15 0 -28.5 1.5t-27.5 3.5q-26 -10 -42 -25.5t-16 -34.5q0 -29 30 -40t88 -14l105 -5q47 -2 79.5 -15t52.5 -32.5t29 -43.5t9 -48q0 -41 -21 -75t-58.5 -58t-89.5 -37.5t-114 -13.5q-47 0 -86 8t-67.5 24.5t-44.5 40t-16 55.5q0 25 9.5 44t25 33t34.5 23.5
t38 14.5q5 -2 8 -8t4 -11q-18 -10 -31 -27t-13 -48q0 -26 13.5 -45.5t37.5 -32.5t57.5 -19t73.5 -6q85 0 127.5 30t42.5 75t-32 73t-111 33l-104 6q-75 5 -110 25.5t-35 62.5q0 18 7.5 34t20 29t28 23.5t30.5 17.5q-44 19 -69 56.5t-25 91.5q0 41 17.5 77t48.5 62.5t72.5 42
t89.5 15.5q17 0 32 -2t29 -5q5 -1 10.5 -1h13.5q44 0 60.5 14.5t16.5 36.5q0 13 -5 22.5t-13 16.5q31 29 74 29q9 -8 15 -21.5t6 -30.5q0 -42 -33.5 -64.5t-87.5 -24.5q38 -25 54.5 -63t16.5 -76q0 -44 -18 -79.5t-48.5 -61t-72 -39.5t-87.5 -14zM271 492q-25 0 -46.5 -8.5
t-38 -25t-26 -40.5t-9.5 -56q0 -36 10 -64.5t27.5 -48t41.5 -30t51 -10.5q25 0 47 7t38.5 22t26 39t9.5 58q0 31 -8.5 59t-25 50t-41 35t-56.5 13zM215 707q0 29 10 52.5t25 41.5t31 30.5t28 20.5q7 0 14.5 -4.5t9.5 -10.5q-20 -15 -39 -38t-19 -57q0 -28 14 -46.5t38 -30.5
q-8 -20 -23.5 -33t-32.5 -16q-26 11 -41 34t-15 57z" />
    <glyph glyph-name="dotlessi" unicode="&#x131;" horiz-adv-x="267" 
d="M94 505q17 9 37.5 13t41.5 4v-514q-14 -8 -36.5 -11.5t-42.5 -3.5v512z" />
    <glyph glyph-name="uni0136" unicode="&#x136;" horiz-adv-x="695" 
d="M192 365q94 72 184.5 159.5t162.5 181.5q13 7 30 10.5t35 3.5q8 0 16.5 -0.5t12.5 -2.5q-36 -47 -77 -91.5t-84.5 -85.5t-87 -78t-84.5 -70q12 -2 22.5 -6.5t21.5 -13t23 -22t29 -33.5l152 -186q21 -26 37 -44t28.5 -31.5t23.5 -23.5t22 -19v-7q-8 -3 -20 -5.5t-26 -4
t-27 -2.5t-22 -1q-14 6 -32 26t-54 67l-156 204q-23 29 -39.5 39t-36.5 10q-18 0 -30.5 -4.5t-23.5 -12.5v-313q-16 -9 -37.5 -12.5t-44.5 -3.5v710q34 18 82 18v-356zM418 -148q0 -27 -9.5 -49.5t-23 -39.5t-29 -29t-27.5 -19q-7 0 -14.5 4.5t-9.5 10.5q20 14 36.5 36.5
t16.5 52.5q0 24 -11 43.5t-34 33.5q8 17 23 29t33 16q20 -11 34.5 -34t14.5 -55z" />
    <glyph glyph-name="uni0137" unicode="&#x137;" horiz-adv-x="569" 
d="M94 755q17 9 37.5 13t41.5 4v-494q30 18 61.5 43t63 55t62.5 64.5t59 70.5q10 6 27 9t34 3t28 -3q-20 -27 -49 -57t-60.5 -58.5t-63.5 -54.5t-59 -45q26 -5 44.5 -25t42.5 -52l83 -111q17 -23 30 -39.5t24 -29t20 -21.5t19 -16v-5q-13 -7 -38 -10t-41 -3
q-13 5 -29.5 22.5t-44.5 55.5l-85 117q-14 19 -24.5 33t-20 22t-19 12t-21.5 4t-23 -4.5t-20 -10.5v-236q-14 -8 -36.5 -11.5t-42.5 -3.5v762zM361 -168q0 -27 -9.5 -49.5t-23 -39.5t-29 -29t-27.5 -19q-7 0 -14.5 4.5t-9.5 10.5q20 14 36.5 36.5t16.5 52.5q0 24 -11 43.5
t-34 33.5q8 17 23 29t33 16q20 -11 34.5 -34t14.5 -55z" />
    <glyph glyph-name="Lslash" unicode="&#x141;" horiz-adv-x="584" 
d="M192 397l170 143q10 -4 18 -14t10 -18l-198 -165v-306q81 3 168 8t196 12q-2 -23 -11 -40.5t-20 -23.5h-415v281l-76 -63q-8 3 -16.5 13.5t-10.5 18.5l103 86v374q34 18 82 18v-324z" />
    <glyph glyph-name="lslash" unicode="&#x142;" horiz-adv-x="295" 
d="M108 333l-91 -79q-8 3 -16.5 13.5t-10.5 18.5l118 103v366q17 9 37.5 13t41.5 4v-313l105 92q10 -4 18 -14t10 -18l-133 -117v-394q-14 -8 -36.5 -11.5t-42.5 -3.5v340z" />
    <glyph glyph-name="uni013B" unicode="&#x13b;" horiz-adv-x="584" 
d="M192 37q81 3 168 8t196 12q-2 -23 -11 -40.5t-20 -23.5h-415v710q34 18 82 18v-684zM396 -168q0 -27 -9.5 -49.5t-23 -39.5t-29 -29t-27.5 -19q-7 0 -14.5 4.5t-9.5 10.5q20 14 36.5 36.5t16.5 52.5q0 24 -11 43.5t-34 33.5q8 17 23 29t33 16q20 -11 34.5 -34t14.5 -55z
" />
    <glyph glyph-name="uni013C" unicode="&#x13c;" horiz-adv-x="269" 
d="M95 755q17 9 37.5 13t41.5 4v-764q-14 -8 -36.5 -11.5t-42.5 -3.5v762zM189 -168q0 -27 -9.5 -49.5t-23 -39.5t-29 -29t-27.5 -19q-7 0 -14.5 4.5t-9.5 10.5q20 14 36.5 36.5t16.5 52.5q0 24 -11 43.5t-34 33.5q8 17 23 29t33 16q20 -11 34.5 -34t14.5 -55z" />
    <glyph glyph-name="Nacute" unicode="&#x143;" horiz-adv-x="773" 
d="M660 3q-6 -5 -18 -7.5t-21 -2.5l-464 637q1 -78 2.5 -154l3 -152t4 -153.5t6.5 -159.5q-11 -8 -33 -13t-42 -5q2 87 4 169.5t4 168t4 177t5 195.5q17 8 38.5 13t42.5 5l419 -580q-2 148 -4.5 291t-7.5 270q17 10 37.5 14.5t37.5 4.5q-5 -160 -9 -342t-9 -376zM545 955
q-17 -23 -43.5 -47t-55 -45t-57 -37.5t-50.5 -24.5q-7 0 -15 3t-10 7q17 15 35.5 32t36.5 35t34.5 36t29.5 34q10 6 26.5 8.5t33.5 2.5q11 0 20 -1t15 -3z" />
    <glyph glyph-name="nacute" unicode="&#x144;" horiz-adv-x="633" 
d="M464 312q0 85 -35 124.5t-99 39.5q-23 0 -45.5 -8.5t-43 -22.5t-38.5 -32.5t-32 -38.5v-366q-14 -8 -36.5 -11.5t-42.5 -3.5v512q33 17 74 17v-99q13 17 33.5 36.5t46 35.5t56 26.5t65.5 10.5q81 0 128.5 -49t47.5 -140v-335q-14 -8 -36.5 -11.5t-42.5 -3.5v319zM457 779
q-14 -24 -37.5 -50.5t-50 -51.5t-53 -45t-47.5 -31q-9 0 -17.5 2.5t-12.5 7.5q35 33 69 75.5t61 82.5q23 13 60 13q16 0 28 -3z" />
    <glyph glyph-name="uni0145" unicode="&#x145;" horiz-adv-x="773" 
d="M660 3q-6 -5 -18 -7.5t-21 -2.5l-464 637q1 -78 2.5 -154l3 -152t4 -153.5t6.5 -159.5q-11 -8 -33 -13t-42 -5q2 87 4 169.5t4 168t4 177t5 195.5q17 8 38.5 13t42.5 5l419 -580q-2 148 -4.5 291t-7.5 270q17 10 37.5 14.5t37.5 4.5q-5 -160 -9 -342t-9 -376zM446 -118
q0 -27 -9.5 -49.5t-23 -39.5t-29 -29t-27.5 -19q-7 0 -14.5 4.5t-9.5 10.5q20 14 36.5 36.5t16.5 52.5q0 24 -11 43.5t-34 33.5q8 17 23 29t33 16q20 -11 34.5 -34t14.5 -55z" />
    <glyph glyph-name="uni0146" unicode="&#x146;" horiz-adv-x="633" 
d="M464 312q0 85 -35 124.5t-99 39.5q-23 0 -45.5 -8.5t-43 -22.5t-38.5 -32.5t-32 -38.5v-366q-14 -8 -36.5 -11.5t-42.5 -3.5v512q33 17 74 17v-99q13 17 33.5 36.5t46 35.5t56 26.5t65.5 10.5q81 0 128.5 -49t47.5 -140v-335q-14 -8 -36.5 -11.5t-42.5 -3.5v319z
M365 -168q0 -27 -9.5 -49.5t-23 -39.5t-29 -29t-27.5 -19q-7 0 -14.5 4.5t-9.5 10.5q20 14 36.5 36.5t16.5 52.5q0 24 -11 43.5t-34 33.5q8 17 23 29t33 16q20 -11 34.5 -34t14.5 -55z" />
    <glyph glyph-name="Ncaron" unicode="&#x147;" horiz-adv-x="773" 
d="M660 3q-6 -5 -18 -7.5t-21 -2.5l-464 637q1 -78 2.5 -154l3 -152t4 -153.5t6.5 -159.5q-11 -8 -33 -13t-42 -5q2 87 4 169.5t4 168t4 177t5 195.5q17 8 38.5 13t42.5 5l419 -580q-2 148 -4.5 291t-7.5 270q17 10 37.5 14.5t37.5 4.5q-5 -160 -9 -342t-9 -376zM568 953
q-35 -33 -70 -71.5l-65 -71.5q-9 -6 -21 -8.5t-23 -2.5q-33 37 -70.5 78.5t-71.5 73.5q6 6 16 8.5t17 2.5q12 -5 28.5 -16t34 -24.5t35 -28t31.5 -26.5q13 12 29.5 25.5t33.5 26.5t33.5 24t30.5 19q8 0 18 -2.5t14 -6.5z" />
    <glyph glyph-name="ncaron" unicode="&#x148;" horiz-adv-x="633" 
d="M464 312q0 85 -35 124.5t-99 39.5q-23 0 -45.5 -8.5t-43 -22.5t-38.5 -32.5t-32 -38.5v-366q-14 -8 -36.5 -11.5t-42.5 -3.5v512q33 17 74 17v-99q13 17 33.5 36.5t46 35.5t56 26.5t65.5 10.5q81 0 128.5 -49t47.5 -140v-335q-14 -8 -36.5 -11.5t-42.5 -3.5v319zM488 779
q-33 -37 -65.5 -78t-61.5 -82q-8 -5 -20.5 -8t-21.5 -3q-30 44 -63.5 87t-69.5 84q5 4 13 7t19 3q27 -17 60.5 -47t59.5 -59q27 29 59.5 58t58.5 48q10 0 18.5 -3t13.5 -7z" />
    <glyph glyph-name="napostrophe" unicode="&#x149;" horiz-adv-x="730" 
d="M560 312q0 85 -35 124.5t-99 39.5q-23 0 -45.5 -8.5t-43 -22.5t-38.5 -32.5t-32 -38.5v-366q-14 -8 -36.5 -11.5t-42.5 -3.5v512q33 17 74 17v-99q13 17 33.5 36.5t46 35.5t56 26.5t65.5 10.5q81 0 128.5 -49t47.5 -140v-335q-14 -8 -36.5 -11.5t-42.5 -3.5v319zM138 687
q0 -27 -9.5 -49.5t-23 -39.5t-29 -29t-27.5 -19q-7 0 -14.5 4.5t-9.5 10.5q20 14 36.5 36.5t16.5 52.5q0 24 -11 43.5t-34 33.5q8 17 23 29t33 16q20 -11 34.5 -34t14.5 -55z" />
    <glyph glyph-name="Omacron" unicode="&#x14c;" horiz-adv-x="820" 
d="M157 379q0 -85 21.5 -150t57.5 -109.5t84.5 -67.5t102.5 -23q115 0 178.5 79t63.5 237q0 77 -19 139.5t-53.5 107t-83 68.5t-108.5 24q-48 0 -92.5 -18t-78 -55.5t-53.5 -95t-20 -136.5zM68 347q0 85 29.5 155.5t79 121.5t115 79t138.5 28q79 0 139.5 -27t101.5 -75
t62 -112.5t21 -139.5q0 -83 -24 -155t-70 -125t-112.5 -84t-150.5 -31q-67 0 -126.5 25t-104.5 72.5t-71.5 115t-26.5 152.5zM275 837q2 21 12.5 37.5t21.5 16.5h263q-2 -22 -11.5 -38t-23.5 -16h-262z" />
    <glyph glyph-name="omacron" unicode="&#x14d;" horiz-adv-x="628" 
d="M140 279q0 -63 15.5 -110t41 -78.5t59 -47.5t70.5 -16q80 0 122 53.5t42 161.5q0 52 -12 97t-35.5 78t-57.5 52t-78 19q-32 0 -62 -12t-53 -37.5t-37.5 -65t-14.5 -94.5zM56 248q0 61 22 113.5t59.5 90t88 59t107.5 21.5q62 0 107.5 -21t75 -56t44 -82t14.5 -99
q0 -61 -19 -114t-54.5 -92.5t-86.5 -62.5t-116 -23q-48 0 -92 18t-77.5 52t-53 83.5t-19.5 112.5zM180 646q2 21 12.5 37.5t21.5 16.5h263q-2 -22 -11.5 -38t-23.5 -16h-262z" />
    <glyph glyph-name="Ohungarumlaut" unicode="&#x150;" horiz-adv-x="820" 
d="M157 379q0 -85 21.5 -150t57.5 -109.5t84.5 -67.5t102.5 -23q115 0 178.5 79t63.5 237q0 77 -19 139.5t-53.5 107t-83 68.5t-108.5 24q-48 0 -92.5 -18t-78 -55.5t-53.5 -95t-20 -136.5zM68 347q0 85 29.5 155.5t79 121.5t115 79t138.5 28q79 0 139.5 -27t101.5 -75
t62 -112.5t21 -139.5q0 -83 -24 -155t-70 -125t-112.5 -84t-150.5 -31q-67 0 -126.5 25t-104.5 72.5t-71.5 115t-26.5 152.5zM640 956q-17 -24 -42 -48.5t-53 -45.5t-54.5 -37t-44.5 -23q-7 0 -14.5 3t-9.5 7q15 13 33.5 30t37 35.5t35.5 37t29 33.5q9 6 24 9t30 3
q8 0 16 -1t13 -3zM476 956q-17 -24 -42 -48.5t-53 -45.5t-54.5 -37t-44.5 -23q-7 0 -14.5 3t-9.5 7q15 13 33.5 30t37 35.5t35.5 37t29 33.5q9 6 24.5 9t30.5 3q8 0 15.5 -1t12.5 -3z" />
    <glyph glyph-name="ohungarumlaut" unicode="&#x151;" horiz-adv-x="628" 
d="M140 279q0 -63 15.5 -110t41 -78.5t59 -47.5t70.5 -16q80 0 122 53.5t42 161.5q0 52 -12 97t-35.5 78t-57.5 52t-78 19q-32 0 -62 -12t-53 -37.5t-37.5 -65t-14.5 -94.5zM56 248q0 61 22 113.5t59.5 90t88 59t107.5 21.5q62 0 107.5 -21t75 -56t44 -82t14.5 -99
q0 -61 -19 -114t-54.5 -92.5t-86.5 -62.5t-116 -23q-48 0 -92 18t-77.5 52t-53 83.5t-19.5 112.5zM531 782q-13 -23 -35 -49.5t-47 -52t-50 -46t-43 -31.5q-7 0 -15 2t-12 7q33 35 64.5 77t57.5 84q22 11 58 11q14 0 22 -2zM372 782q-13 -23 -35 -49.5t-47 -52t-50 -46
t-43 -31.5q-7 0 -15 2t-12 7q33 35 64.5 77t57.5 84q22 11 58 11q14 0 22 -2z" />
    <glyph glyph-name="OE" unicode="&#x152;" horiz-adv-x="1023" 
d="M417 24q30 0 55 3t46 12v614q-52 31 -120 31q-48 0 -92.5 -19t-78 -57.5t-54 -96.5t-20.5 -137q0 -87 21.5 -152.5t58 -109.5t84 -66t100.5 -22zM518 -7q-28 -8 -61 -12t-66 -4q-68 0 -127.5 24.5t-104 71t-70 114.5t-25.5 155q0 83 28.5 154t78 123t115.5 81.5t141 29.5
q33 0 63.5 -4.5t50.5 -10.5q17 0 49.5 0.5t72.5 1t85 1.5t87.5 1.5t79.5 1t61 0.5q-2 -21 -11.5 -38t-21.5 -22q-34 0 -77 1.5t-89 3t-92 3.5t-85 4v-294l317 6q-2 -18 -10 -33t-18 -17q-73 1 -145 1.5t-144 2.5v-302q88 2 183 6.5t201 11.5q-3 -23 -12 -39.5t-20 -22.5
h-434z" />
    <glyph glyph-name="oe" unicode="&#x153;" horiz-adv-x="996" 
d="M56 248q0 61 22 113.5t59.5 90t88 59t107.5 21.5q79 0 131 -32.5t79 -86.5q35 54 88.5 86.5t119.5 32.5q57 0 94 -19t58.5 -49t30 -66t8.5 -70q-8 -12 -21.5 -21t-29.5 -14l-315 -35q3 -54 19.5 -94.5t42.5 -67.5t60.5 -40.5t73.5 -13.5q49 0 84.5 13t64.5 41
q14 -3 19 -19q-7 -11 -22.5 -27t-41 -31t-61 -25.5t-82.5 -10.5q-66 0 -120 31t-85 90q-35 -56 -93 -89t-137 -33q-48 0 -92 18t-77.5 52t-53 83.5t-19.5 112.5zM140 279q0 -63 15.5 -110t41 -78.5t59 -47.5t70.5 -16q80 0 122 53.5t42 161.5q0 52 -12 97t-35.5 78t-57.5 52
t-78 19q-32 0 -62 -12t-53 -37.5t-37.5 -65t-14.5 -94.5zM725 487q-31 0 -58 -11t-47 -34t-32.5 -59t-13.5 -87l282 29q1 5 1 10v9q0 31 -8 57t-24.5 45t-41 30t-58.5 11z" />
    <glyph glyph-name="Racute" unicode="&#x154;" horiz-adv-x="678" 
d="M110 692q44 16 103.5 27.5t120.5 11.5q68 0 115.5 -15.5t77.5 -42t43.5 -61.5t13.5 -74q0 -48 -18 -84.5t-46.5 -63t-65.5 -44t-74 -26.5q17 -11 32 -27.5t32 -38.5l99 -128q31 -40 57 -69t44 -44v-6q-14 -7 -41 -10.5t-51 -3.5q-10 4 -26.5 21.5t-45.5 59.5l-118 167
q-13 18 -24.5 31t-25 21.5t-31 12t-42.5 3.5h-47v-300q-16 -9 -37.5 -12.5t-44.5 -3.5v699zM298 685q-24 0 -52 -3t-54 -9v-310q17 -5 39.5 -8t51.5 -3q98 0 155 40t57 123q0 36 -12 67.5t-36.5 54t-61.5 35.5t-87 13zM475 955q-17 -23 -43.5 -47t-55 -45t-57 -37.5
t-50.5 -24.5q-7 0 -15 3t-10 7q17 15 35.5 32t36.5 35t34.5 36t29.5 34q10 6 26.5 8.5t33.5 2.5q11 0 20 -1t15 -3z" />
    <glyph glyph-name="racute" unicode="&#x155;" horiz-adv-x="477" 
d="M92 505q33 17 75 17v-144q10 30 27 57.5t40.5 48.5t52.5 33.5t64 12.5q27 0 47 -8.5t33 -21t19.5 -28.5t7.5 -31q-8 -14 -27.5 -24t-38.5 -12q-5 27 -22 48t-57 21q-29 0 -53.5 -17t-43.5 -47.5t-30.5 -72.5t-14.5 -92v-237q-14 -8 -36.5 -11.5t-42.5 -3.5v512zM417 779
q-14 -24 -37.5 -50.5t-50 -51.5t-53 -45t-47.5 -31q-9 0 -17.5 2.5t-12.5 7.5q35 33 69 75.5t61 82.5q23 13 60 13q16 0 28 -3z" />
    <glyph glyph-name="uni0156" unicode="&#x156;" horiz-adv-x="678" 
d="M110 692q44 16 103.5 27.5t120.5 11.5q68 0 115.5 -15.5t77.5 -42t43.5 -61.5t13.5 -74q0 -48 -18 -84.5t-46.5 -63t-65.5 -44t-74 -26.5q17 -11 32 -27.5t32 -38.5l99 -128q31 -40 57 -69t44 -44v-6q-14 -7 -41 -10.5t-51 -3.5q-10 4 -26.5 21.5t-45.5 59.5l-118 167
q-13 18 -24.5 31t-25 21.5t-31 12t-42.5 3.5h-47v-300q-16 -9 -37.5 -12.5t-44.5 -3.5v699zM298 685q-24 0 -52 -3t-54 -9v-310q17 -5 39.5 -8t51.5 -3q98 0 155 40t57 123q0 36 -12 67.5t-36.5 54t-61.5 35.5t-87 13zM404 -118q0 -27 -9.5 -49.5t-23 -39.5t-29 -29
t-27.5 -19q-7 0 -14.5 4.5t-9.5 10.5q20 14 36.5 36.5t16.5 52.5q0 24 -11 43.5t-34 33.5q8 17 23 29t33 16q20 -11 34.5 -34t14.5 -55z" />
    <glyph glyph-name="uni0157" unicode="&#x157;" horiz-adv-x="477" 
d="M92 505q33 17 75 17v-144q10 30 27 57.5t40.5 48.5t52.5 33.5t64 12.5q27 0 47 -8.5t33 -21t19.5 -28.5t7.5 -31q-8 -14 -27.5 -24t-38.5 -12q-5 27 -22 48t-57 21q-29 0 -53.5 -17t-43.5 -47.5t-30.5 -72.5t-14.5 -92v-237q-14 -8 -36.5 -11.5t-42.5 -3.5v512zM194 -148
q0 -27 -9.5 -49.5t-23 -39.5t-29 -29t-27.5 -19q-7 0 -14.5 4.5t-9.5 10.5q20 14 36.5 36.5t16.5 52.5q0 24 -11 43.5t-34 33.5q8 17 23 29t33 16q20 -11 34.5 -34t14.5 -55z" />
    <glyph glyph-name="Rcaron" unicode="&#x158;" horiz-adv-x="678" 
d="M110 692q44 16 103.5 27.5t120.5 11.5q68 0 115.5 -15.5t77.5 -42t43.5 -61.5t13.5 -74q0 -48 -18 -84.5t-46.5 -63t-65.5 -44t-74 -26.5q17 -11 32 -27.5t32 -38.5l99 -128q31 -40 57 -69t44 -44v-6q-14 -7 -41 -10.5t-51 -3.5q-10 4 -26.5 21.5t-45.5 59.5l-118 167
q-13 18 -24.5 31t-25 21.5t-31 12t-42.5 3.5h-47v-300q-16 -9 -37.5 -12.5t-44.5 -3.5v699zM298 685q-24 0 -52 -3t-54 -9v-310q17 -5 39.5 -8t51.5 -3q98 0 155 40t57 123q0 36 -12 67.5t-36.5 54t-61.5 35.5t-87 13zM507 953q-35 -33 -70 -71.5l-65 -71.5q-9 -6 -21 -8.5
t-23 -2.5q-33 37 -70.5 78.5t-71.5 73.5q6 6 16 8.5t17 2.5q12 -5 28.5 -16t34 -24.5t35 -28t31.5 -26.5q13 12 29.5 25.5t33.5 26.5t33.5 24t30.5 19q8 0 18 -2.5t14 -6.5z" />
    <glyph glyph-name="rcaron" unicode="&#x159;" horiz-adv-x="477" 
d="M92 505q33 17 75 17v-144q10 30 27 57.5t40.5 48.5t52.5 33.5t64 12.5q27 0 47 -8.5t33 -21t19.5 -28.5t7.5 -31q-8 -14 -27.5 -24t-38.5 -12q-5 27 -22 48t-57 21q-29 0 -53.5 -17t-43.5 -47.5t-30.5 -72.5t-14.5 -92v-237q-14 -8 -36.5 -11.5t-42.5 -3.5v512zM438 779
q-33 -37 -65.5 -78t-61.5 -82q-8 -5 -20.5 -8t-21.5 -3q-30 44 -63.5 87t-69.5 84q5 4 13 7t19 3q27 -17 60.5 -47t59.5 -59q27 29 59.5 58t58.5 48q10 0 18.5 -3t13.5 -7z" />
    <glyph glyph-name="Sacute" unicode="&#x15a;" horiz-adv-x="639" 
d="M61 152q10 15 33 28t45 14q3 -28 16 -56.5t37.5 -51t60.5 -37t86 -14.5q73 0 116 37.5t43 98.5q0 58 -30 96t-109 58l-94 24q-36 9 -68 21t-56 31.5t-37.5 48t-13.5 69.5t20 79t55.5 67.5t83 47.5t102.5 18t94 -14t63 -34t35.5 -43.5t13.5 -41.5q-7 -14 -26 -25.5
t-44 -14.5q-4 22 -15 43.5t-31.5 39t-50.5 28.5t-71 11q-68 0 -109 -35.5t-41 -93.5q0 -33 10 -54.5t28 -36t42.5 -23.5t53.5 -16l88 -22q55 -14 91.5 -34t57.5 -44t29.5 -52.5t8.5 -58.5q0 -45 -19 -86t-55 -72.5t-86.5 -50t-113.5 -18.5q-61 0 -106 16t-75 40.5
t-45.5 54.5t-16.5 58zM474 955q-17 -23 -43.5 -47t-55 -45t-57 -37.5t-50.5 -24.5q-7 0 -15 3t-10 7q17 15 35.5 32t36.5 35t34.5 36t29.5 34q10 6 26.5 8.5t33.5 2.5q11 0 20 -1t15 -3z" />
    <glyph glyph-name="sacute" unicode="&#x15b;" horiz-adv-x="519" 
d="M50 106q8 14 26.5 26t39.5 14q7 -51 49.5 -84.5t108.5 -33.5q63 0 93.5 27.5t30.5 68.5t-28.5 64t-97.5 40l-59 15q-32 8 -57.5 18t-44 24.5t-28.5 34.5t-10 49q0 31 16 60.5t44.5 52.5t66 36.5t81.5 13.5q45 0 76 -10.5t51.5 -26t30 -33.5t10.5 -32q-7 -14 -24 -24.5
t-37 -12.5q-7 38 -39 66t-96 28q-21 0 -41.5 -5.5t-36.5 -16.5t-26 -26.5t-10 -36.5q0 -34 24 -54.5t84 -34.5l61 -15q87 -22 124.5 -55.5t37.5 -85.5q0 -33 -15 -64.5t-44 -56t-71 -39t-96 -14.5q-47 0 -82 11.5t-59.5 29.5t-37.5 39.5t-15 42.5zM407 779
q-14 -24 -37.5 -50.5t-50 -51.5t-53 -45t-47.5 -31q-9 0 -17.5 2.5t-12.5 7.5q35 33 69 75.5t61 82.5q23 13 60 13q16 0 28 -3z" />
    <glyph glyph-name="Scircumflex" unicode="&#x15c;" horiz-adv-x="639" 
d="M61 152q10 15 33 28t45 14q3 -28 16 -56.5t37.5 -51t60.5 -37t86 -14.5q73 0 116 37.5t43 98.5q0 58 -30 96t-109 58l-94 24q-36 9 -68 21t-56 31.5t-37.5 48t-13.5 69.5t20 79t55.5 67.5t83 47.5t102.5 18t94 -14t63 -34t35.5 -43.5t13.5 -41.5q-7 -14 -26 -25.5
t-44 -14.5q-4 22 -15 43.5t-31.5 39t-50.5 28.5t-71 11q-68 0 -109 -35.5t-41 -93.5q0 -33 10 -54.5t28 -36t42.5 -23.5t53.5 -16l88 -22q55 -14 91.5 -34t57.5 -44t29.5 -52.5t8.5 -58.5q0 -45 -19 -86t-55 -72.5t-86.5 -50t-113.5 -18.5q-61 0 -106 16t-75 40.5
t-45.5 54.5t-16.5 58zM375 966q28 -35 65.5 -76t72.5 -76q-5 -5 -14 -8t-17 -3q-16 7 -33 18.5t-34 24t-33 26t-29 24.5q-13 -12 -29.5 -25.5t-34 -26.5t-34.5 -24t-32 -18q-8 0 -17 2.5t-14 8.5q37 34 72.5 71t65.5 73q8 5 22 7t23 2z" />
    <glyph glyph-name="scircumflex" unicode="&#x15d;" horiz-adv-x="519" 
d="M50 106q8 14 26.5 26t39.5 14q7 -51 49.5 -84.5t108.5 -33.5q63 0 93.5 27.5t30.5 68.5t-28.5 64t-97.5 40l-59 15q-32 8 -57.5 18t-44 24.5t-28.5 34.5t-10 49q0 31 16 60.5t44.5 52.5t66 36.5t81.5 13.5q45 0 76 -10.5t51.5 -26t30 -33.5t10.5 -32q-7 -14 -24 -24.5
t-37 -12.5q-7 38 -39 66t-96 28q-21 0 -41.5 -5.5t-36.5 -16.5t-26 -26.5t-10 -36.5q0 -34 24 -54.5t84 -34.5l61 -15q87 -22 124.5 -55.5t37.5 -85.5q0 -33 -15 -64.5t-44 -56t-71 -39t-96 -14.5q-47 0 -82 11.5t-59.5 29.5t-37.5 39.5t-15 42.5zM301 784q28 -42 62 -88.5
t65 -82.5q-5 -5 -14 -7.5t-17 -2.5q-13 9 -28.5 22t-31.5 27t-31.5 29t-28.5 27q-13 -14 -28.5 -29t-31 -29t-31 -26.5t-28.5 -20.5q-8 0 -17 2.5t-14 7.5q35 38 67.5 78t61.5 82q9 5 21.5 8t23.5 3z" />
    <glyph glyph-name="Scedilla" unicode="&#x15e;" horiz-adv-x="639" 
d="M253 -112q-6 4 -6 13l61 82h-4q-61 0 -106 16t-75 40.5t-45.5 54.5t-16.5 58q10 15 33 28t45 14q3 -28 16 -56.5t37.5 -51t60.5 -37t86 -14.5q73 0 116 37.5t43 98.5q0 58 -30 96t-109 58l-94 24q-36 9 -68 21t-56 31.5t-37.5 48t-13.5 69.5t20 79t55.5 67.5t83 47.5
t102.5 18t94 -14t63 -34t35.5 -43.5t13.5 -41.5q-7 -14 -26 -25.5t-44 -14.5q-4 22 -15 43.5t-31.5 39t-50.5 28.5t-71 11q-68 0 -109 -35.5t-41 -93.5q0 -33 10 -54.5t28 -36t42.5 -23.5t53.5 -16l88 -22q55 -14 91.5 -34t57.5 -44t29.5 -52.5t8.5 -58.5q0 -41 -15.5 -78.5
t-45 -67.5t-71 -50.5t-93.5 -27.5l-46 -57q57 -2 81 -23t24 -55q0 -47 -39.5 -74.5t-108.5 -27.5q-15 0 -27 2t-15 4q-4 6 -5.5 15.5t-1.5 16.5q9 -2 21.5 -3t22.5 -1q44 0 67.5 13t23.5 41q0 54 -70 54q-8 0 -15.5 -0.5t-11.5 -2.5z" />
    <glyph glyph-name="scedilla" unicode="&#x15f;" horiz-adv-x="519" 
d="M206 -112q-6 4 -6 13l61 83q-5 -1 -8.5 -1h-8.5q-47 0 -82 11.5t-59.5 29.5t-37.5 39.5t-15 42.5q8 14 26.5 26t39.5 14q7 -51 49.5 -84.5t108.5 -33.5q63 0 93.5 27.5t30.5 68.5t-28.5 64t-97.5 40l-59 15q-32 8 -57.5 18t-44 24.5t-28.5 34.5t-10 49q0 31 16 60.5
t44.5 52.5t66 36.5t81.5 13.5q45 0 76 -10.5t51.5 -26t30 -33.5t10.5 -32q-7 -14 -24 -24.5t-37 -12.5q-7 38 -39 66t-96 28q-21 0 -41.5 -5.5t-36.5 -16.5t-26 -26.5t-10 -36.5q0 -34 24 -54.5t84 -34.5l61 -15q87 -22 124.5 -55.5t37.5 -85.5q0 -28 -10.5 -54.5t-31 -49
t-50.5 -39t-69 -24.5l-49 -61q57 -2 81 -23t24 -55q0 -47 -39.5 -74.5t-108.5 -27.5q-15 0 -27 2t-15 4q-4 6 -5.5 15.5t-1.5 16.5q9 -2 21.5 -3t22.5 -1q44 0 67.5 13t23.5 41q0 54 -70 54q-8 0 -15.5 -0.5t-11.5 -2.5z" />
    <glyph glyph-name="Scaron" unicode="&#x160;" horiz-adv-x="639" 
d="M61 152q10 15 33 28t45 14q3 -28 16 -56.5t37.5 -51t60.5 -37t86 -14.5q73 0 116 37.5t43 98.5q0 58 -30 96t-109 58l-94 24q-36 9 -68 21t-56 31.5t-37.5 48t-13.5 69.5t20 79t55.5 67.5t83 47.5t102.5 18t94 -14t63 -34t35.5 -43.5t13.5 -41.5q-7 -14 -26 -25.5
t-44 -14.5q-4 22 -15 43.5t-31.5 39t-50.5 28.5t-71 11q-68 0 -109 -35.5t-41 -93.5q0 -33 10 -54.5t28 -36t42.5 -23.5t53.5 -16l88 -22q55 -14 91.5 -34t57.5 -44t29.5 -52.5t8.5 -58.5q0 -45 -19 -86t-55 -72.5t-86.5 -50t-113.5 -18.5q-61 0 -106 16t-75 40.5
t-45.5 54.5t-16.5 58zM507 953q-35 -33 -70 -71.5l-65 -71.5q-9 -6 -21 -8.5t-23 -2.5q-33 37 -70.5 78.5t-71.5 73.5q6 6 16 8.5t17 2.5q12 -5 28.5 -16t34 -24.5t35 -28t31.5 -26.5q13 12 29.5 25.5t33.5 26.5t33.5 24t30.5 19q8 0 18 -2.5t14 -6.5z" />
    <glyph glyph-name="scaron" unicode="&#x161;" horiz-adv-x="519" 
d="M50 106q8 14 26.5 26t39.5 14q7 -51 49.5 -84.5t108.5 -33.5q63 0 93.5 27.5t30.5 68.5t-28.5 64t-97.5 40l-59 15q-32 8 -57.5 18t-44 24.5t-28.5 34.5t-10 49q0 31 16 60.5t44.5 52.5t66 36.5t81.5 13.5q45 0 76 -10.5t51.5 -26t30 -33.5t10.5 -32q-7 -14 -24 -24.5
t-37 -12.5q-7 38 -39 66t-96 28q-21 0 -41.5 -5.5t-36.5 -16.5t-26 -26.5t-10 -36.5q0 -34 24 -54.5t84 -34.5l61 -15q87 -22 124.5 -55.5t37.5 -85.5q0 -33 -15 -64.5t-44 -56t-71 -39t-96 -14.5q-47 0 -82 11.5t-59.5 29.5t-37.5 39.5t-15 42.5zM418 779
q-33 -37 -65.5 -78t-61.5 -82q-8 -5 -20.5 -8t-21.5 -3q-30 44 -63.5 87t-69.5 84q5 4 13 7t19 3q27 -17 60.5 -47t59.5 -59q27 29 59.5 58t58.5 48q10 0 18.5 -3t13.5 -7z" />
    <glyph glyph-name="uni021A" unicode="&#x21a;" horiz-adv-x="630" 
d="M610 719q-2 -20 -10.5 -38t-18.5 -26q-45 4 -106 10.5t-117 11.5v-668q-16 -9 -37.5 -12.5t-44.5 -3.5v684l-65 -6.5t-69 -6.5t-64.5 -5.5t-51.5 -3.5q2 22 9.5 38.5t18.5 25.5h556zM368 -168q0 -27 -9.5 -49.5t-23 -39.5t-29 -29t-27.5 -19q-7 0 -14.5 4.5t-9.5 10.5
q20 14 36.5 36.5t16.5 52.5q0 24 -11 43.5t-34 33.5q8 17 23 29t33 16q20 -11 34.5 -34t14.5 -55z" />
    <glyph glyph-name="uni021B" unicode="&#x21b;" horiz-adv-x="427" 
d="M22 481q8 11 25.5 20.5t38.5 9.5h32v144q16 13 37.5 19.5t41.5 6.5v-170h196q-1 -17 -9.5 -28.5t-21.5 -11.5h-165v-328q0 -32 7.5 -51.5t20.5 -30.5t30 -15t35 -4q33 0 55 13t36 27q14 -4 18 -17q-5 -8 -16 -21t-29 -25.5t-43 -21.5t-56 -9q-28 0 -53 7t-43.5 23
t-29.5 43t-11 67v343h-96v10zM312 -168q0 -27 -9.5 -49.5t-23 -39.5t-29 -29t-27.5 -19q-7 0 -14.5 4.5t-9.5 10.5q20 14 36.5 36.5t16.5 52.5q0 24 -11 43.5t-34 33.5q8 17 23 29t33 16q20 -11 34.5 -34t14.5 -55z" />
    <glyph glyph-name="Tcaron" unicode="&#x164;" horiz-adv-x="630" 
d="M610 719q-2 -20 -10.5 -38t-18.5 -26q-45 4 -106 10.5t-117 11.5v-668q-16 -9 -37.5 -12.5t-44.5 -3.5v684l-65 -6.5t-69 -6.5t-64.5 -5.5t-51.5 -3.5q2 22 9.5 38.5t18.5 25.5h556zM480 952q-35 -33 -70 -71.5l-65 -71.5q-9 -6 -21 -8.5t-23 -2.5q-33 37 -70.5 78.5
t-71.5 73.5q6 6 16 8.5t17 2.5q12 -5 28.5 -16t34 -24.5t35 -28t31.5 -26.5q13 12 29.5 25.5t33.5 26.5t33.5 24t30.5 19q8 0 18 -2.5t14 -6.5z" />
    <glyph glyph-name="tcaron" unicode="&#x165;" horiz-adv-x="427" 
d="M22 481q8 11 25.5 20.5t38.5 9.5h32v144q16 13 37.5 19.5t41.5 6.5v-170h196q-1 -17 -9.5 -28.5t-21.5 -11.5h-165v-328q0 -32 7.5 -51.5t20.5 -30.5t30 -15t35 -4q33 0 55 13t36 27q14 -4 18 -17q-5 -8 -16 -21t-29 -25.5t-43 -21.5t-56 -9q-28 0 -53 7t-43.5 23
t-29.5 43t-11 67v343h-96v10zM382 753q0 -27 -9.5 -49.5t-23 -39.5t-29 -29t-27.5 -19q-7 0 -14.5 4.5t-9.5 10.5q20 14 36.5 36.5t16.5 52.5q0 24 -11 43.5t-34 33.5q8 17 23 29t33 16q20 -11 34.5 -34t14.5 -55z" />
    <glyph glyph-name="Utilde" unicode="&#x168;" horiz-adv-x="763" 
d="M189 274q0 -64 15.5 -108.5t44 -72.5t67.5 -40.5t87 -12.5q63 0 102 21.5t61.5 61.5t30.5 97.5t8 128.5q0 77 -2.5 167t-6.5 190q17 8 36.5 11.5t38.5 3.5q-2 -63 -2 -119.5t-1 -111.5t-3 -109.5t-6 -112.5q-6 -81 -31 -135.5t-63 -88t-88.5 -47.5t-107.5 -14
q-53 0 -100.5 15t-83.5 46.5t-57 81t-21 118.5v459q34 18 82 18v-447zM278 807q-8 1 -15.5 4.5t-10.5 8.5q16 48 38.5 73t55.5 25q13 0 25.5 -3.5t24.5 -8.5l51 -18q17 -6 27.5 -9t18.5 -3q17 0 30 12t21 41q7 0 14.5 -3.5t11.5 -9.5q-13 -54 -34 -76t-53 -22
q-14 0 -29.5 4.5t-30.5 9.5l-55 19q-11 4 -20.5 7t-17.5 3q-18 0 -30 -14t-22 -40z" />
    <glyph glyph-name="utilde" unicode="&#x169;" horiz-adv-x="624" 
d="M308 40q48 0 87 27.5t59 74.5v363q17 9 37.5 13t41.5 4v-514q-14 -8 -34.5 -11.5t-40.5 -3.5v95q-10 -17 -27.5 -35.5t-41.5 -34t-54.5 -25.5t-67.5 -10t-69.5 11t-56.5 34.5t-38 59t-14 84.5v333q17 9 37.5 13t41.5 4v-320q0 -45 11 -76t30 -50t44.5 -27.5t54.5 -8.5z
M194 614q-8 1 -15.5 4.5t-10.5 8.5q16 48 38.5 73t55.5 25q13 0 25.5 -3.5t24.5 -8.5l51 -18q17 -6 27.5 -9t18.5 -3q17 0 30 12t21 41q7 0 14.5 -3.5t11.5 -9.5q-13 -54 -34 -76t-53 -22q-14 0 -29.5 4.5t-30.5 9.5l-55 19q-11 4 -20.5 7t-17.5 3q-18 0 -30 -14t-22 -40z
" />
    <glyph glyph-name="Umacron" unicode="&#x16a;" horiz-adv-x="763" 
d="M189 274q0 -64 15.5 -108.5t44 -72.5t67.5 -40.5t87 -12.5q63 0 102 21.5t61.5 61.5t30.5 97.5t8 128.5q0 77 -2.5 167t-6.5 190q17 8 36.5 11.5t38.5 3.5q-2 -63 -2 -119.5t-1 -111.5t-3 -109.5t-6 -112.5q-6 -81 -31 -135.5t-63 -88t-88.5 -47.5t-107.5 -14
q-53 0 -100.5 15t-83.5 46.5t-57 81t-21 118.5v459q34 18 82 18v-447zM262 837q2 21 12.5 37.5t21.5 16.5h263q-2 -22 -11.5 -38t-23.5 -16h-262z" />
    <glyph glyph-name="umacron" unicode="&#x16b;" horiz-adv-x="624" 
d="M308 40q48 0 87 27.5t59 74.5v363q17 9 37.5 13t41.5 4v-514q-14 -8 -34.5 -11.5t-40.5 -3.5v95q-10 -17 -27.5 -35.5t-41.5 -34t-54.5 -25.5t-67.5 -10t-69.5 11t-56.5 34.5t-38 59t-14 84.5v333q17 9 37.5 13t41.5 4v-320q0 -45 11 -76t30 -50t44.5 -27.5t54.5 -8.5z
M181 646q2 21 12.5 37.5t21.5 16.5h263q-2 -22 -11.5 -38t-23.5 -16h-262z" />
    <glyph glyph-name="Ubreve" unicode="&#x16c;" horiz-adv-x="763" 
d="M189 274q0 -64 15.5 -108.5t44 -72.5t67.5 -40.5t87 -12.5q63 0 102 21.5t61.5 61.5t30.5 97.5t8 128.5q0 77 -2.5 167t-6.5 190q17 8 36.5 11.5t38.5 3.5q-2 -63 -2 -119.5t-1 -111.5t-3 -109.5t-6 -112.5q-6 -81 -31 -135.5t-63 -88t-88.5 -47.5t-107.5 -14
q-53 0 -100.5 15t-83.5 46.5t-57 81t-21 118.5v459q34 18 82 18v-447zM518 967q21 0 33 -12q-2 -30 -11.5 -57.5t-27.5 -48.5t-44 -33t-62 -12q-60 0 -95.5 37t-37.5 99q8 11 24 19.5t34 9.5q3 -54 25 -85t70 -31q43 0 66 30t26 84z" />
    <glyph glyph-name="ubreve" unicode="&#x16d;" horiz-adv-x="624" 
d="M308 40q48 0 87 27.5t59 74.5v363q17 9 37.5 13t41.5 4v-514q-14 -8 -34.5 -11.5t-40.5 -3.5v95q-10 -17 -27.5 -35.5t-41.5 -34t-54.5 -25.5t-67.5 -10t-69.5 11t-56.5 34.5t-38 59t-14 84.5v333q17 9 37.5 13t41.5 4v-320q0 -45 11 -76t30 -50t44.5 -27.5t54.5 -8.5z
M435 772q21 0 33 -12q-2 -30 -11.5 -57.5t-27.5 -48.5t-44 -33t-62 -12q-60 0 -95.5 37t-37.5 99q8 11 24 19.5t34 9.5q3 -54 25 -85t70 -31q43 0 66 30t26 84z" />
    <glyph glyph-name="Uring" unicode="&#x16e;" horiz-adv-x="763" 
d="M189 274q0 -64 15.5 -108.5t44 -72.5t67.5 -40.5t87 -12.5q63 0 102 21.5t61.5 61.5t30.5 97.5t8 128.5q0 77 -2.5 167t-6.5 190q17 8 36.5 11.5t38.5 3.5q-2 -63 -2 -119.5t-1 -111.5t-3 -109.5t-6 -112.5q-6 -81 -31 -135.5t-63 -88t-88.5 -47.5t-107.5 -14
q-53 0 -100.5 15t-83.5 46.5t-57 81t-21 118.5v459q34 18 82 18v-447zM349 894q0 -35 17.5 -51t37.5 -16t33.5 13.5t13.5 42.5t-13.5 47.5t-39.5 18.5q-17 0 -33 -13t-16 -42zM293 880q0 20 9.5 37t25.5 29.5t37.5 19.5t45.5 7q51 0 74 -23t23 -55q0 -21 -9 -38.5
t-24.5 -29.5t-36.5 -18.5t-44 -6.5q-41 0 -71 18.5t-30 59.5z" />
    <glyph glyph-name="uring" unicode="&#x16f;" horiz-adv-x="624" 
d="M308 40q48 0 87 27.5t59 74.5v363q17 9 37.5 13t41.5 4v-514q-14 -8 -34.5 -11.5t-40.5 -3.5v95q-10 -17 -27.5 -35.5t-41.5 -34t-54.5 -25.5t-67.5 -10t-69.5 11t-56.5 34.5t-38 59t-14 84.5v333q17 9 37.5 13t41.5 4v-320q0 -45 11 -76t30 -50t44.5 -27.5t54.5 -8.5z
M210 679q0 20 9.5 37t25.5 29.5t37.5 19.5t45.5 7q51 0 74 -23t23 -55q0 -21 -9.5 -38.5t-25 -29.5t-36.5 -18.5t-44 -6.5q-43 0 -71.5 18.5t-28.5 59.5zM265 693q0 -35 18 -51t38 -16t34 13.5t14 42.5t-14 47.5t-40 18.5q-17 0 -33.5 -13t-16.5 -42z" />
    <glyph glyph-name="Uhungarumlaut" unicode="&#x170;" horiz-adv-x="763" 
d="M189 274q0 -64 15.5 -108.5t44 -72.5t67.5 -40.5t87 -12.5q63 0 102 21.5t61.5 61.5t30.5 97.5t8 128.5q0 77 -2.5 167t-6.5 190q17 8 36.5 11.5t38.5 3.5q-2 -63 -2 -119.5t-1 -111.5t-3 -109.5t-6 -112.5q-6 -81 -31 -135.5t-63 -88t-88.5 -47.5t-107.5 -14
q-53 0 -100.5 15t-83.5 46.5t-57 81t-21 118.5v459q34 18 82 18v-447zM624 956q-17 -24 -42 -48.5t-53 -45.5t-54.5 -37t-44.5 -23q-7 0 -14.5 3t-9.5 7q15 13 33.5 30t37 35.5t35.5 37t29 33.5q9 6 24 9t30 3q8 0 16 -1t13 -3zM460 956q-17 -24 -42 -48.5t-53 -45.5
t-54.5 -37t-44.5 -23q-7 0 -14.5 3t-9.5 7q15 13 33.5 30t37 35.5t35.5 37t29 33.5q9 6 24.5 9t30.5 3q8 0 15.5 -1t12.5 -3z" />
    <glyph glyph-name="uhungarumlaut" unicode="&#x171;" horiz-adv-x="631" 
d="M308 40q48 0 87 27.5t59 74.5v363q17 9 37.5 13t41.5 4v-514q-14 -8 -34.5 -11.5t-40.5 -3.5v95q-10 -17 -27.5 -35.5t-41.5 -34t-54.5 -25.5t-67.5 -10t-69.5 11t-56.5 34.5t-38 59t-14 84.5v333q17 9 37.5 13t41.5 4v-320q0 -45 11 -76t30 -50t44.5 -27.5t54.5 -8.5z
M383 782q-13 -23 -35 -49.5t-47 -52t-50 -46t-43 -31.5q-7 0 -15 2t-12 7q33 35 64.5 77t57.5 84q22 11 58 11q14 0 22 -2zM542 782q-13 -23 -35 -49.5t-47 -52t-50 -46t-43 -31.5q-7 0 -15 2t-12 7q33 35 64.5 77t57.5 84q22 11 58 11q14 0 22 -2z" />
    <glyph glyph-name="Uogonek" unicode="&#x172;" horiz-adv-x="763" 
d="M189 274q0 -64 15.5 -108.5t44 -72.5t67.5 -40.5t87 -12.5q63 0 102 21.5t61.5 61.5t30.5 97.5t8 128.5q0 77 -2.5 167t-6.5 190q17 8 36.5 11.5t38.5 3.5q-2 -63 -2 -119.5t-1 -111.5t-3 -109.5t-6 -112.5q-5 -65 -22 -112.5t-43 -80.5t-60.5 -53t-75.5 -29
q-21 -8 -40 -19.5t-34 -27t-24 -36t-9 -45.5q0 -39 22.5 -55.5t48.5 -16.5q23 0 39 9.5t27 20.5q8 -3 12 -13q-4 -11 -12 -22.5t-21 -22t-31 -17t-42 -6.5q-47 0 -77.5 28.5t-30.5 76.5q0 45 25 79t61 57q-55 0 -103.5 15t-84.5 47t-56.5 81t-20.5 118v459q34 18 82 18v-447
z" />
    <glyph glyph-name="uogonek" unicode="&#x173;" horiz-adv-x="629" 
d="M308 40q48 0 87 27.5t59 74.5v363q17 9 37.5 13t41.5 4v-514q-9 -5 -21 -8t-25 -5q-21 -10 -39.5 -22.5t-32.5 -28t-22 -35t-8 -44.5q0 -39 22 -55.5t48 -16.5q23 0 39 9.5t27 20.5q8 -3 12 -13q-4 -11 -12 -22.5t-21 -22t-31 -17t-42 -6.5q-47 0 -77 28.5t-30 76.5
q0 30 12 55t31.5 45t44.5 36.5t50 28.5v76q-10 -17 -27.5 -35.5t-41.5 -34t-54.5 -25.5t-67.5 -10t-69.5 11t-56.5 34.5t-38 59t-14 84.5v333q17 9 37.5 13t41.5 4v-320q0 -45 11 -76t30 -50t44.5 -27.5t54.5 -8.5z" />
    <glyph glyph-name="Wcircumflex" unicode="&#x174;" horiz-adv-x="1005" 
d="M335 13q-10 -9 -32 -14.5t-43 -5.5q-32 83 -61 173.5t-53.5 182t-45.5 181.5t-37 173q17 9 38 13.5t41 4.5q13 -72 31 -152t39.5 -163.5t46.5 -167t53 -163.5q24 61 48.5 133.5t47 146t41 143.5t30.5 126q31 17 74 17q33 -146 79 -291t101 -288q26 75 48 157.5
t40.5 166.5t32.5 167t24 158q22 10 50 10q17 0 25 -2q-12 -72 -32.5 -160.5t-46 -182.5t-56 -187.5t-62.5 -176.5q-11 -8 -30.5 -13.5t-42.5 -5.5q-26 60 -51.5 128.5t-49 138.5t-43.5 138t-34 127q-15 -59 -34.5 -125.5t-42 -133.5t-46 -132t-47.5 -121zM556 966
q28 -35 65.5 -76t72.5 -76q-5 -5 -14 -8t-17 -3q-16 7 -33 18.5t-34 24t-33 26t-29 24.5q-13 -12 -29.5 -25.5t-34 -26.5t-34.5 -24t-32 -18q-8 0 -17 2.5t-14 8.5q37 34 72.5 71t65.5 73q8 5 22 7t23 2z" />
    <glyph glyph-name="wcircumflex" unicode="&#x175;" horiz-adv-x="863" 
d="M292 10q-12 -8 -33 -12.5t-40 -4.5q-23 53 -46.5 117.5t-45 132t-40 134t-30.5 125.5q33 20 78 20q8 -48 22 -104.5t32 -117.5t39 -122.5t42 -119.5q21 51 41 107.5t38 113.5t33 113.5t26 107.5q17 10 37 14t37 4q9 -48 24.5 -106t34.5 -119.5t40.5 -123t43.5 -118.5
q21 53 39.5 112t34 119t27 118.5t19.5 110.5q24 11 53 11q17 0 23 -2q-14 -59 -32.5 -123t-41 -130t-48 -131t-52.5 -126q-12 -8 -34 -12.5t-39 -4.5q-19 44 -38.5 96t-38 107t-35.5 110.5t-30 108.5q-11 -44 -27 -96t-35 -106t-39 -106t-39 -97zM474 784q28 -42 62 -88.5
t65 -82.5q-5 -5 -14 -7.5t-17 -2.5q-13 9 -28.5 22t-31.5 27t-31.5 29t-28.5 27q-13 -14 -28.5 -29t-31 -29t-31 -26.5t-28.5 -20.5q-8 0 -17 2.5t-14 7.5q35 38 67.5 78t61.5 82q9 5 21.5 8t23.5 3z" />
    <glyph glyph-name="Ycircumflex" unicode="&#x176;" horiz-adv-x="669" 
d="M132 721q42 -93 101 -197.5t125 -201.5q60 90 111 187t89 201q14 7 28 9.5t31 2.5q13 0 21 -2q-17 -43 -46 -97.5t-63.5 -112.5t-72 -114t-71.5 -101v-286q-16 -9 -37.5 -12.5t-44.5 -3.5v280q-74 104 -137 209t-115 216q14 10 35 16.5t46 6.5zM389 966q28 -35 65.5 -76
t72.5 -76q-5 -5 -14 -8t-17 -3q-16 7 -33 18.5t-34 24t-33 26t-29 24.5q-13 -12 -29.5 -25.5t-34 -26.5t-34.5 -24t-32 -18q-8 0 -17 2.5t-14 8.5q37 34 72.5 71t65.5 73q8 5 22 7t23 2z" />
    <glyph glyph-name="ycircumflex" unicode="&#x177;" horiz-adv-x="570" 
d="M124 522q14 -51 33.5 -109.5t43 -118.5t49 -119t51.5 -110q62 123 99 234.5t60 211.5q13 6 28.5 8.5t29.5 2.5h10.5t10.5 -1q-28 -90 -77 -208.5t-112 -245.5q-27 -55 -49.5 -99t-42.5 -81t-39 -69l-38 -64q-10 -5 -28.5 -8.5t-38.5 -3.5q-19 0 -32 3v4q42 49 87 107
t90 133q-30 53 -62 119t-60.5 134t-53 134.5t-39.5 121.5q16 11 38.5 17.5t41.5 6.5zM337 784q28 -42 62 -88.5t65 -82.5q-5 -5 -14 -7.5t-17 -2.5q-13 9 -28.5 22t-31.5 27t-31.5 29t-28.5 27q-13 -14 -28.5 -29t-31 -29t-31 -26.5t-28.5 -20.5q-8 0 -17 2.5t-14 7.5
q35 38 67.5 78t61.5 82q9 5 21.5 8t23.5 3z" />
    <glyph glyph-name="Ydieresis" unicode="&#x178;" horiz-adv-x="669" 
d="M132 721q42 -93 101 -197.5t125 -201.5q60 90 111 187t89 201q14 7 28 9.5t31 2.5q13 0 21 -2q-17 -43 -46 -97.5t-63.5 -112.5t-72 -114t-71.5 -101v-286q-16 -9 -37.5 -12.5t-44.5 -3.5v280q-74 104 -137 209t-115 216q14 10 35 16.5t46 6.5zM312 856q-4 -7 -11 -15
t-14.5 -15.5t-15.5 -13.5t-15 -10q-15 7 -32.5 23t-28.5 31q12 16 28.5 32t32.5 25q14 -8 30.5 -24.5t25.5 -32.5zM511 856q-4 -7 -11 -15t-14.5 -15.5t-15.5 -13.5t-15 -10q-15 7 -32.5 23t-28.5 31q12 16 28.5 32t32.5 25q14 -8 30.5 -24.5t25.5 -32.5z" />
    <glyph glyph-name="Zacute" unicode="&#x179;" horiz-adv-x="639" 
d="M146 37q106 4 213.5 8.5t235.5 11.5q-2 -24 -12.5 -41t-22.5 -23h-501q-6 2 -12 9.5t-8 12.5l450 657q-108 -5 -211 -9t-191 -6q3 21 12 38t19 24h466q4 -2 8.5 -7.5t6.5 -11.5zM480 955q-17 -23 -43.5 -47t-55 -45t-57 -37.5t-50.5 -24.5q-7 0 -15 3t-10 7
q17 15 35.5 32t36.5 35t34.5 36t29.5 34q10 6 26.5 8.5t33.5 2.5q11 0 20 -1t15 -3z" />
    <glyph glyph-name="zacute" unicode="&#x17a;" horiz-adv-x="503" 
d="M456 522q9 -6 13 -19l-341 -471q39 1 78 2.5t80 3.5t86 4.5t97 7.5q-2 -20 -11 -35.5t-21 -21.5h-393q-4 2 -8 7.5t-6 10.5l339 470q-78 -5 -156 -8t-142 -7q2 38 24 56h361zM417 779q-14 -24 -37.5 -50.5t-50 -51.5t-53 -45t-47.5 -31q-9 0 -17.5 2.5t-12.5 7.5
q35 33 69 75.5t61 82.5q23 13 60 13q16 0 28 -3z" />
    <glyph glyph-name="Zdotaccent" unicode="&#x17b;" horiz-adv-x="639" 
d="M146 37q106 4 213.5 8.5t235.5 11.5q-2 -24 -12.5 -41t-22.5 -23h-501q-6 2 -12 9.5t-8 12.5l450 657q-108 -5 -211 -9t-191 -6q3 21 12 38t19 24h466q4 -2 8.5 -7.5t6.5 -11.5zM416 861q-9 -16 -28 -33.5t-34 -24.5q-15 7 -34 24.5t-29 33.5q10 17 29 35t34 26
q15 -8 34.5 -26t27.5 -35z" />
    <glyph glyph-name="zdotaccent" unicode="&#x17c;" horiz-adv-x="503" 
d="M456 522q9 -6 13 -19l-341 -471q39 1 78 2.5t80 3.5t86 4.5t97 7.5q-2 -20 -11 -35.5t-21 -21.5h-393q-4 2 -8 7.5t-6 10.5l339 470q-78 -5 -156 -8t-142 -7q2 38 24 56h361zM343 669q-9 -16 -28 -33.5t-34 -24.5q-15 7 -34 24.5t-29 33.5q10 17 29 35t34 26
q15 -8 34.5 -26t27.5 -35z" />
    <glyph glyph-name="Zcaron" unicode="&#x17d;" horiz-adv-x="639" 
d="M146 37q106 4 213.5 8.5t235.5 11.5q-2 -24 -12.5 -41t-22.5 -23h-501q-6 2 -12 9.5t-8 12.5l450 657q-108 -5 -211 -9t-191 -6q3 21 12 38t19 24h466q4 -2 8.5 -7.5t6.5 -11.5zM495 962q-35 -33 -70 -71.5l-65 -71.5q-9 -6 -21 -8.5t-23 -2.5q-33 37 -70.5 78.5
t-71.5 73.5q6 6 16 8.5t17 2.5q12 -5 28.5 -16t34 -24.5t35 -28t31.5 -26.5q13 12 29.5 25.5t33.5 26.5t33.5 24t30.5 19q8 0 18 -2.5t14 -6.5z" />
    <glyph glyph-name="zcaron" unicode="&#x17e;" horiz-adv-x="503" 
d="M456 522q9 -6 13 -19l-341 -471q39 1 78 2.5t80 3.5t86 4.5t97 7.5q-2 -20 -11 -35.5t-21 -21.5h-393q-4 2 -8 7.5t-6 10.5l339 470q-78 -5 -156 -8t-142 -7q2 38 24 56h361zM422 779q-33 -37 -65.5 -78t-61.5 -82q-8 -5 -20.5 -8t-21.5 -3q-30 44 -63.5 87t-69.5 84
q5 4 13 7t19 3q27 -17 60.5 -47t59.5 -59q27 29 59.5 58t58.5 48q10 0 18.5 -3t13.5 -7z" />
    <glyph glyph-name="uni0259" unicode="&#x259;" horiz-adv-x="566" 
d="M53 183q3 6 10 13.5t20.5 15t35 14t53.5 10.5l259 30q-7 106 -60 158t-132 52q-49 0 -88 -15t-69 -43q-5 2 -9 6.5t-6 9.5q7 11 23 28t42 32.5t61.5 27t82.5 11.5q51 0 94 -17.5t74.5 -51.5t49.5 -84.5t18 -117.5q0 -57 -16.5 -108.5t-49 -90.5t-80 -61.5t-109.5 -22.5
q-53 0 -91.5 18.5t-63.5 48t-37 66t-12 71.5zM283 25q71 0 110 47.5t41 156.5l-249 -28q-37 -3 -48 -14q-1 -3 -1 -6.5v-6.5q0 -30 10.5 -57.5t29.5 -47.5t46 -32t61 -12z" />
    <glyph glyph-name="florin" unicode="&#x192;" horiz-adv-x="589" 
d="M126 458q8 11 26.5 22t37.5 11h35l4 33q7 65 32 112.5t60 79t76 47t81 15.5q34 0 56.5 -9t37 -22t20.5 -27.5t7 -26.5q-8 -13 -27 -24t-40 -13q-3 12 -9 24t-17 22t-27 16.5t-39 6.5q-47 0 -83.5 -31.5t-44.5 -107.5l-10 -95h203q-2 -18 -11.5 -30t-19.5 -12h-176
l-40 -397q-7 -69 -28.5 -119t-52.5 -81.5t-67.5 -46.5t-73.5 -15q-32 0 -55 8.5t-38 21t-23 28t-10 30.5q8 15 27.5 27t37.5 14q5 -32 27 -53.5t62 -21.5q19 0 37 5.5t33 20t25.5 40.5t14.5 68l47 471h-95v9z" />
    <glyph glyph-name="Ohorn" unicode="&#x1a0;" horiz-adv-x="820" 
d="M68 347q0 85 29.5 155.5t79 121.5t115 79t138.5 28q65 0 120 -20h16q38 0 65.5 17t27.5 49q0 16 -7 28t-18 20q10 13 29 23t40 10q13 -10 21 -25.5t8 -36.5q0 -51 -35 -80t-88 -34q72 -45 108.5 -125t36.5 -180q0 -83 -24 -155t-70 -125t-112.5 -84t-150.5 -31
q-67 0 -126.5 25t-104.5 72.5t-71.5 115t-26.5 152.5zM157 379q0 -85 21.5 -150t57.5 -109.5t84.5 -67.5t102.5 -23q115 0 178.5 79t63.5 237q0 77 -19 139.5t-53.5 107t-83 68.5t-108.5 24q-48 0 -92.5 -18t-78 -55.5t-53.5 -95t-20 -136.5z" />
    <glyph glyph-name="ohorn" unicode="&#x1a1;" horiz-adv-x="632" 
d="M56 248q0 61 22 113.5t59.5 90t88 59t107.5 21.5q21 0 40.5 -2.5t36.5 -7.5h9q38 0 65.5 17t27.5 49q0 16 -7 28t-18 20q10 13 29 23t40 10q13 -10 21 -25.5t8 -36.5q0 -49 -32.5 -77.5t-81.5 -35.5q53 -35 78 -93t25 -127q0 -61 -19 -114t-54.5 -92.5t-86.5 -62.5
t-116 -23q-48 0 -92 18t-77.5 52t-53 83.5t-19.5 112.5zM140 279q0 -63 15.5 -110t41 -78.5t59 -47.5t70.5 -16q80 0 122 53.5t42 161.5q0 52 -12 97t-35.5 78t-57.5 52t-78 19q-32 0 -62 -12t-53 -37.5t-37.5 -65t-14.5 -94.5z" />
    <glyph glyph-name="Uhorn" unicode="&#x1af;" horiz-adv-x="829" 
d="M189 274q0 -64 15.5 -108.5t44 -72.5t67.5 -40.5t87 -12.5q63 0 102 21.5t61.5 61.5t30.5 97.5t8 128.5q0 77 -2.5 167t-6.5 190q17 8 36.5 11.5t38.5 3.5l-2 -86h4q38 0 65.5 17t27.5 49q0 16 -7 28t-18 20q10 13 29 23t40 10q13 -10 21 -25.5t8 -36.5q0 -27 -11 -48.5
t-30 -36t-44.5 -22t-54.5 -7.5h-15.5t-14.5 1v-32q-1 -78 -2.5 -152t-7.5 -155t-31 -135.5t-63 -88t-88.5 -47.5t-107.5 -14q-53 0 -100.5 15t-83.5 46.5t-57 81t-21 118.5v459q34 18 82 18v-447z" />
    <glyph glyph-name="uhorn" unicode="&#x1b0;" horiz-adv-x="704" 
d="M308 40q48 0 87 27.5t59 74.5v363q17 9 37.5 13t41.5 4v-70h11q38 0 65.5 17t27.5 49q0 16 -7 28t-18 20q10 13 29 23t40 10q13 -10 21 -25.5t8 -36.5q0 -27 -11 -48.5t-30 -36t-44.5 -22t-54.5 -7.5h-19.5t-17.5 2v-417q-14 -8 -34.5 -11.5t-40.5 -3.5v95
q-10 -17 -27.5 -35.5t-41.5 -34t-54.5 -25.5t-67.5 -10t-69.5 11t-56.5 34.5t-38 59t-14 84.5v333q17 9 37.5 13t41.5 4v-320q0 -45 11 -76t30 -50t44.5 -27.5t54.5 -8.5z" />
    <glyph glyph-name="Gcaron" unicode="&#x1e6;" horiz-adv-x="771" 
d="M684 91q-10 -12 -31.5 -30.5t-56 -36t-81.5 -30t-107 -12.5q-66 0 -127 22.5t-108.5 68t-76 114t-28.5 160.5q0 79 28.5 149t79 122.5t118.5 82.5t148 30q67 0 111 -17t70.5 -40.5t38.5 -48t15 -40.5q-7 -14 -26.5 -26.5t-45.5 -16.5q-6 25 -20 50t-38.5 44.5t-60.5 31.5
t-85 12q-47 0 -91 -17.5t-78.5 -53.5t-55 -92t-20.5 -133q0 -92 24.5 -158t65 -108.5t92.5 -62.5t107 -20q64 0 100 13.5t57 25.5v248q-48 -2 -99 -3.5t-93 -1.5q2 17 9.5 31t16.5 19l248 -2v-274zM597 953q-35 -33 -70 -71.5l-65 -71.5q-9 -6 -21 -8.5t-23 -2.5
q-33 37 -70.5 78.5t-71.5 73.5q6 6 16 8.5t17 2.5q12 -5 28.5 -16t34 -24.5t35 -28t31.5 -26.5q13 12 29.5 25.5t33.5 26.5t33.5 24t30.5 19q8 0 18 -2.5t14 -6.5z" />
    <glyph glyph-name="gcaron" unicode="&#x1e7;" horiz-adv-x="571" 
d="M259 169q-15 0 -28.5 1.5t-27.5 3.5q-26 -10 -42 -25.5t-16 -34.5q0 -29 30 -40t88 -14l105 -5q47 -2 79.5 -15t52.5 -32.5t29 -43.5t9 -48q0 -41 -21 -75t-58.5 -58t-89.5 -37.5t-114 -13.5q-47 0 -86 8t-67.5 24.5t-44.5 40t-16 55.5q0 25 9.5 44t25 33t34.5 23.5
t38 14.5q5 -2 8 -8t4 -11q-18 -10 -31 -27t-13 -48q0 -26 13.5 -45.5t37.5 -32.5t57.5 -19t73.5 -6q85 0 127.5 30t42.5 75t-32 73t-111 33l-104 6q-75 5 -110 25.5t-35 62.5q0 18 7.5 34t20 29t28 23.5t30.5 17.5q-44 19 -69 56.5t-25 91.5q0 41 17.5 77t48.5 62.5t72.5 42
t89.5 15.5q17 0 32 -2t29 -5q5 -1 10.5 -1h13.5q44 0 60.5 14.5t16.5 36.5q0 13 -5 22.5t-13 16.5q31 29 74 29q9 -8 15 -21.5t6 -30.5q0 -42 -33.5 -64.5t-87.5 -24.5q38 -25 54.5 -63t16.5 -76q0 -44 -18 -79.5t-48.5 -61t-72 -39.5t-87.5 -14zM271 492q-25 0 -46.5 -8.5
t-38 -25t-26 -40.5t-9.5 -56q0 -36 10 -64.5t27.5 -48t41.5 -30t51 -10.5q25 0 47 7t38.5 22t26 39t9.5 58q0 31 -8.5 59t-25 50t-41 35t-56.5 13zM444 782q-33 -37 -65.5 -78t-61.5 -82q-8 -5 -20.5 -8t-21.5 -3q-30 44 -63.5 87t-69.5 84q5 4 13 7t19 3q27 -17 60.5 -47
t59.5 -59q27 29 59.5 58t58.5 48q10 0 18.5 -3t13.5 -7z" />
    <glyph glyph-name="uni0218" unicode="&#x218;" horiz-adv-x="639" 
d="M61 152q10 15 33 28t45 14q3 -28 16 -56.5t37.5 -51t60.5 -37t86 -14.5q73 0 116 37.5t43 98.5q0 58 -30 96t-109 58l-94 24q-36 9 -68 21t-56 31.5t-37.5 48t-13.5 69.5t20 79t55.5 67.5t83 47.5t102.5 18t94 -14t63 -34t35.5 -43.5t13.5 -41.5q-7 -14 -26 -25.5
t-44 -14.5q-4 22 -15 43.5t-31.5 39t-50.5 28.5t-71 11q-68 0 -109 -35.5t-41 -93.5q0 -33 10 -54.5t28 -36t42.5 -23.5t53.5 -16l88 -22q55 -14 91.5 -34t57.5 -44t29.5 -52.5t8.5 -58.5q0 -45 -19 -86t-55 -72.5t-86.5 -50t-113.5 -18.5q-61 0 -106 16t-75 40.5
t-45.5 54.5t-16.5 58zM385 -168q0 -27 -9.5 -49.5t-23 -39.5t-29 -29t-27.5 -19q-7 0 -14.5 4.5t-9.5 10.5q20 14 36.5 36.5t16.5 52.5q0 24 -11 43.5t-34 33.5q8 17 23 29t33 16q20 -11 34.5 -34t14.5 -55z" />
    <glyph glyph-name="uni0219" unicode="&#x219;" horiz-adv-x="519" 
d="M50 106q8 14 26.5 26t39.5 14q7 -51 49.5 -84.5t108.5 -33.5q63 0 93.5 27.5t30.5 68.5t-28.5 64t-97.5 40l-59 15q-32 8 -57.5 18t-44 24.5t-28.5 34.5t-10 49q0 31 16 60.5t44.5 52.5t66 36.5t81.5 13.5q45 0 76 -10.5t51.5 -26t30 -33.5t10.5 -32q-7 -14 -24 -24.5
t-37 -12.5q-7 38 -39 66t-96 28q-21 0 -41.5 -5.5t-36.5 -16.5t-26 -26.5t-10 -36.5q0 -34 24 -54.5t84 -34.5l61 -15q87 -22 124.5 -55.5t37.5 -85.5q0 -33 -15 -64.5t-44 -56t-71 -39t-96 -14.5q-47 0 -82 11.5t-59.5 29.5t-37.5 39.5t-15 42.5zM325 -168
q0 -27 -9.5 -49.5t-23 -39.5t-29 -29t-27.5 -19q-7 0 -14.5 4.5t-9.5 10.5q20 14 36.5 36.5t16.5 52.5q0 24 -11 43.5t-34 33.5q8 17 23 29t33 16q20 -11 34.5 -34t14.5 -55z" />
    <glyph glyph-name="Wgrave" unicode="&#x1e80;" horiz-adv-x="1005" 
d="M335 13q-10 -9 -32 -14.5t-43 -5.5q-32 83 -61 173.5t-53.5 182t-45.5 181.5t-37 173q17 9 38 13.5t41 4.5q13 -72 31 -152t39.5 -163.5t46.5 -167t53 -163.5q24 61 48.5 133.5t47 146t41 143.5t30.5 126q31 17 74 17q33 -146 79 -291t101 -288q26 75 48 157.5
t40.5 166.5t32.5 167t24 158q22 10 50 10q17 0 25 -2q-12 -72 -32.5 -160.5t-46 -182.5t-56 -187.5t-62.5 -176.5q-11 -8 -30.5 -13.5t-42.5 -5.5q-26 60 -51.5 128.5t-49 138.5t-43.5 138t-34 127q-15 -59 -34.5 -125.5t-42 -133.5t-46 -132t-47.5 -121zM414 956
q13 -16 30 -34.5t36 -37.5t38.5 -37.5t38.5 -34.5q-3 -4 -11.5 -7t-16.5 -3q-24 9 -51.5 24t-54.5 33.5t-51 39.5t-42 41q13 8 30.5 12.5t35.5 4.5h9t9 -1z" />
    <glyph glyph-name="wgrave" unicode="&#x1e81;" horiz-adv-x="863" 
d="M292 10q-12 -8 -33 -12.5t-40 -4.5q-23 53 -46.5 117.5t-45 132t-40 134t-30.5 125.5q33 20 78 20q8 -48 22 -104.5t32 -117.5t39 -122.5t42 -119.5q21 51 41 107.5t38 113.5t33 113.5t26 107.5q17 10 37 14t37 4q9 -48 24.5 -106t34.5 -119.5t40.5 -123t43.5 -118.5
q21 53 39.5 112t34 119t27 118.5t19.5 110.5q24 11 53 11q17 0 23 -2q-14 -59 -32.5 -123t-41 -130t-48 -131t-52.5 -126q-12 -8 -34 -12.5t-39 -4.5q-19 44 -38.5 96t-38 107t-35.5 110.5t-30 108.5q-11 -44 -27 -96t-35 -106t-39 -106t-39 -97zM450 602q-20 9 -46 28
t-51.5 42.5t-48.5 48.5t-38 47q22 14 61 14q11 0 17 -2q26 -42 63 -86.5t75 -81.5q-4 -5 -13.5 -7.5t-18.5 -2.5z" />
    <glyph glyph-name="Wacute" unicode="&#x1e82;" horiz-adv-x="1005" 
d="M335 13q-10 -9 -32 -14.5t-43 -5.5q-32 83 -61 173.5t-53.5 182t-45.5 181.5t-37 173q17 9 38 13.5t41 4.5q13 -72 31 -152t39.5 -163.5t46.5 -167t53 -163.5q24 61 48.5 133.5t47 146t41 143.5t30.5 126q31 17 74 17q33 -146 79 -291t101 -288q26 75 48 157.5
t40.5 166.5t32.5 167t24 158q22 10 50 10q17 0 25 -2q-12 -72 -32.5 -160.5t-46 -182.5t-56 -187.5t-62.5 -176.5q-11 -8 -30.5 -13.5t-42.5 -5.5q-26 60 -51.5 128.5t-49 138.5t-43.5 138t-34 127q-15 -59 -34.5 -125.5t-42 -133.5t-46 -132t-47.5 -121zM715 955
q-17 -23 -43.5 -47t-55 -45t-57 -37.5t-50.5 -24.5q-7 0 -15 3t-10 7q17 15 35.5 32t36.5 35t34.5 36t29.5 34q10 6 26.5 8.5t33.5 2.5q11 0 20 -1t15 -3z" />
    <glyph glyph-name="wacute" unicode="&#x1e83;" horiz-adv-x="863" 
d="M292 10q-12 -8 -33 -12.5t-40 -4.5q-23 53 -46.5 117.5t-45 132t-40 134t-30.5 125.5q33 20 78 20q8 -48 22 -104.5t32 -117.5t39 -122.5t42 -119.5q21 51 41 107.5t38 113.5t33 113.5t26 107.5q17 10 37 14t37 4q9 -48 24.5 -106t34.5 -119.5t40.5 -123t43.5 -118.5
q21 53 39.5 112t34 119t27 118.5t19.5 110.5q24 11 53 11q17 0 23 -2q-14 -59 -32.5 -123t-41 -130t-48 -131t-52.5 -126q-12 -8 -34 -12.5t-39 -4.5q-19 44 -38.5 96t-38 107t-35.5 110.5t-30 108.5q-11 -44 -27 -96t-35 -106t-39 -106t-39 -97zM627 779
q-14 -24 -37.5 -50.5t-50 -51.5t-53 -45t-47.5 -31q-9 0 -17.5 2.5t-12.5 7.5q35 33 69 75.5t61 82.5q23 13 60 13q16 0 28 -3z" />
    <glyph glyph-name="Wdieresis" unicode="&#x1e84;" horiz-adv-x="1005" 
d="M335 13q-10 -9 -32 -14.5t-43 -5.5q-32 83 -61 173.5t-53.5 182t-45.5 181.5t-37 173q17 9 38 13.5t41 4.5q13 -72 31 -152t39.5 -163.5t46.5 -167t53 -163.5q24 61 48.5 133.5t47 146t41 143.5t30.5 126q31 17 74 17q33 -146 79 -291t101 -288q26 75 48 157.5
t40.5 166.5t32.5 167t24 158q22 10 50 10q17 0 25 -2q-12 -72 -32.5 -160.5t-46 -182.5t-56 -187.5t-62.5 -176.5q-11 -8 -30.5 -13.5t-42.5 -5.5q-26 60 -51.5 128.5t-49 138.5t-43.5 138t-34 127q-15 -59 -34.5 -125.5t-42 -133.5t-46 -132t-47.5 -121zM677 861
q-4 -7 -11 -15t-14.5 -15.5t-15.5 -13.5t-15 -10q-15 7 -32.5 23t-28.5 31q12 16 28.5 32t32.5 25q14 -8 30.5 -24.5t25.5 -32.5zM478 861q-4 -7 -11 -15t-14.5 -15.5t-15.5 -13.5t-15 -10q-15 7 -32.5 23t-28.5 31q12 16 28.5 32t32.5 25q14 -8 30.5 -24.5t25.5 -32.5z" />
    <glyph glyph-name="wdieresis" unicode="&#x1e85;" horiz-adv-x="863" 
d="M292 10q-12 -8 -33 -12.5t-40 -4.5q-23 53 -46.5 117.5t-45 132t-40 134t-30.5 125.5q33 20 78 20q8 -48 22 -104.5t32 -117.5t39 -122.5t42 -119.5q21 51 41 107.5t38 113.5t33 113.5t26 107.5q17 10 37 14t37 4q9 -48 24.5 -106t34.5 -119.5t40.5 -123t43.5 -118.5
q21 53 39.5 112t34 119t27 118.5t19.5 110.5q24 11 53 11q17 0 23 -2q-14 -59 -32.5 -123t-41 -130t-48 -131t-52.5 -126q-12 -8 -34 -12.5t-39 -4.5q-19 44 -38.5 96t-38 107t-35.5 110.5t-30 108.5q-11 -44 -27 -96t-35 -106t-39 -106t-39 -97zM604 678q-4 -7 -11 -15
t-14.5 -15.5t-15.5 -13.5t-15 -10q-15 7 -32.5 23t-28.5 31q12 16 28.5 32t32.5 25q14 -8 30.5 -24.5t25.5 -32.5zM405 678q-4 -7 -11 -15t-14.5 -15.5t-15.5 -13.5t-15 -10q-15 7 -32.5 23t-28.5 31q12 16 28.5 32t32.5 25q14 -8 30.5 -24.5t25.5 -32.5z" />
    <glyph glyph-name="Ygrave" unicode="&#x1ef2;" horiz-adv-x="669" 
d="M132 721q42 -93 101 -197.5t125 -201.5q60 90 111 187t89 201q14 7 28 9.5t31 2.5q13 0 21 -2q-17 -43 -46 -97.5t-63.5 -112.5t-72 -114t-71.5 -101v-286q-16 -9 -37.5 -12.5t-44.5 -3.5v280q-74 104 -137 209t-115 216q14 10 35 16.5t46 6.5zM304 956q13 -16 30 -34.5
t36 -37.5t38.5 -37.5t38.5 -34.5q-3 -4 -11.5 -7t-16.5 -3q-24 9 -51.5 24t-54.5 33.5t-51 39.5t-42 41q13 8 30.5 12.5t35.5 4.5h9t9 -1z" />
    <glyph glyph-name="ygrave" unicode="&#x1ef3;" horiz-adv-x="570" 
d="M124 522q14 -51 33.5 -109.5t43 -118.5t49 -119t51.5 -110q62 123 99 234.5t60 211.5q13 6 28.5 8.5t29.5 2.5h10.5t10.5 -1q-28 -90 -77 -208.5t-112 -245.5q-27 -55 -49.5 -99t-42.5 -81t-39 -69l-38 -64q-10 -5 -28.5 -8.5t-38.5 -3.5q-19 0 -32 3v4q42 49 87 107
t90 133q-30 53 -62 119t-60.5 134t-53 134.5t-39.5 121.5q16 11 38.5 17.5t41.5 6.5zM348 602q-20 9 -46 28t-51.5 42.5t-48.5 48.5t-38 47q22 14 61 14q11 0 17 -2q26 -42 63 -86.5t75 -81.5q-4 -5 -13.5 -7.5t-18.5 -2.5z" />
    <glyph glyph-name="circumflex" unicode="&#x2c6;" horiz-adv-x="361" 
d="M211 784q28 -42 62 -88.5t65 -82.5q-5 -5 -14 -7.5t-17 -2.5q-13 9 -28.5 22t-31.5 27t-31.5 29t-28.5 27q-13 -14 -28.5 -29t-31 -29t-31 -26.5t-28.5 -20.5q-8 0 -17 2.5t-14 7.5q35 38 67.5 78t61.5 82q9 5 21.5 8t23.5 3z" />
    <glyph glyph-name="caron" unicode="&#x2c7;" horiz-adv-x="363" 
d="M338 779q-33 -37 -65.5 -78t-61.5 -82q-8 -5 -20.5 -8t-21.5 -3q-30 44 -63.5 87t-69.5 84q5 4 13 7t19 3q27 -17 60.5 -47t59.5 -59q27 29 59.5 58t58.5 48q10 0 18.5 -3t13.5 -7z" />
    <glyph glyph-name="breve" unicode="&#x2d8;" horiz-adv-x="349" 
d="M284 772q21 0 33 -12q-2 -30 -11.5 -57.5t-27.5 -48.5t-44 -33t-62 -12q-60 0 -95.5 37t-37.5 99q8 11 24 19.5t34 9.5q3 -54 25 -85t70 -31q43 0 66 30t26 84z" />
    <glyph glyph-name="dotaccent" unicode="&#x2d9;" horiz-adv-x="120" 
d="M123 679q-9 -16 -28 -33.5t-34 -24.5q-15 7 -34 24.5t-29 33.5q10 17 29 35t34 26q15 -8 34.5 -26t27.5 -35z" />
    <glyph glyph-name="ring" unicode="&#x2da;" horiz-adv-x="215" 
d="M55 699q0 -35 18 -51t38 -16t34 13.5t14 42.5t-14 47.5t-40 18.5q-17 0 -33.5 -13t-16.5 -42zM0 685q0 20 9.5 37t25.5 29.5t37.5 19.5t45.5 7q51 0 74 -23t23 -55q0 -21 -9.5 -38.5t-25 -29.5t-36.5 -18.5t-44 -6.5q-43 0 -71.5 18.5t-28.5 59.5z" />
    <glyph glyph-name="ogonek" unicode="&#x2db;" horiz-adv-x="245" 
d="M204 -1q-22 -10 -42.5 -22.5t-36 -28.5t-24.5 -36.5t-9 -46.5q0 -39 22 -55.5t48 -16.5q23 0 39 9.5t27 20.5q8 -3 12 -13q-4 -11 -12 -22.5t-21 -22t-31 -17t-42 -6.5q-47 0 -77 28.5t-30 76.5q0 32 14 58.5t36.5 48t49.5 38t54 28.5z" />
    <glyph glyph-name="tilde" unicode="&#x2dc;" horiz-adv-x="388" 
d="M74 614q-8 1 -15.5 4.5t-10.5 8.5q16 48 38.5 73t55.5 25q13 0 25.5 -3.5t24.5 -8.5l51 -18q17 -6 27.5 -9t18.5 -3q17 0 30 12t21 41q7 0 14.5 -3.5t11.5 -9.5q-13 -54 -34 -76t-53 -22q-14 0 -29.5 4.5t-30.5 9.5l-55 19q-11 4 -20.5 7t-17.5 3q-18 0 -30 -14t-22 -40z
" />
    <glyph glyph-name="hungarumlaut" unicode="&#x2dd;" horiz-adv-x="310" 
d="M352 782q-13 -23 -35 -49.5t-47 -52t-50 -46t-43 -31.5q-7 0 -15 2t-12 7q33 35 64.5 77t57.5 84q22 11 58 11q14 0 22 -2zM193 782q-13 -23 -35 -49.5t-47 -52t-50 -46t-43 -31.5q-7 0 -15 2t-12 7q33 35 64.5 77t57.5 84q22 11 58 11q14 0 22 -2z" />
    <glyph glyph-name="gravecomb" unicode="&#x300;" horiz-adv-x="314" 
d="M248 602q-20 9 -46 28t-51.5 42.5t-48.5 48.5t-38 47q22 14 61 14q11 0 17 -2q26 -42 63 -86.5t75 -81.5q-4 -5 -13.5 -7.5t-18.5 -2.5z" />
    <glyph glyph-name="acutecomb" unicode="&#x301;" horiz-adv-x="310" 
d="M287 779q-14 -24 -37.5 -50.5t-50 -51.5t-53 -45t-47.5 -31q-9 0 -17.5 2.5t-12.5 7.5q35 33 69 75.5t61 82.5q23 13 60 13q16 0 28 -3z" />
    <glyph glyph-name="tildecomb" unicode="&#x303;" horiz-adv-x="388" 
d="M74 614q-8 1 -15.5 4.5t-10.5 8.5q16 48 38.5 73t55.5 25q13 0 25.5 -3.5t24.5 -8.5l51 -18q17 -6 27.5 -9t18.5 -3q17 0 30 12t21 41q7 0 14.5 -3.5t11.5 -9.5q-13 -54 -34 -76t-53 -22q-14 0 -29.5 4.5t-30.5 9.5l-55 19q-11 4 -20.5 7t-17.5 3q-18 0 -30 -14t-22 -40z
" />
    <glyph glyph-name="hookabovecomb" unicode="&#x309;" horiz-adv-x="273" 
d="M101 706q-5 -8 -21 -15t-28 -7q-7 7 -9 16t-2 15q0 35 29 59t74 24q42 0 67 -22.5t25 -55.5q0 -25 -13 -42t-28.5 -30t-28.5 -23.5t-13 -21.5q0 -7 2.5 -12.5t4.5 -9.5q-5 -6 -17 -9.5t-21 -3.5q-5 4 -8.5 11.5t-3.5 17.5q0 17 11 29.5t23.5 25.5t23.5 28.5t11 39.5
q0 23 -12.5 36t-32.5 13q-18 0 -29.5 -11t-11.5 -28q0 -5 1.5 -11t6.5 -13z" />
    <glyph glyph-name="dotbelowcomb" unicode="&#x323;" horiz-adv-x="120" 
d="M122 -154q-9 -15 -27.5 -32t-32.5 -25q-16 7 -34.5 24t-29.5 33q12 17 29.5 34t34.5 26q16 -9 33 -26t27 -34z" />
    <glyph glyph-name="uni02BC" unicode="&#x2bc;" horiz-adv-x="234" 
d="M186 617q0 -28 -10.5 -53t-26.5 -45.5t-35 -35t-36 -22.5q-7 0 -14.5 5.5t-9.5 11.5q25 17 46 41.5t21 65.5q0 31 -16 50.5t-43 32.5q7 19 23 34t35 19q26 -10 46 -36t20 -68z" />
    <glyph glyph-name="uni02BB" unicode="&#x2bb;" horiz-adv-x="234" 
d="M54 566q0 30 10.5 55t27 44.5t35.5 33.5t36 22q8 -1 15 -6t9 -11q-26 -17 -47 -42t-21 -64q0 -33 16.5 -52t43.5 -32q-7 -18 -22.5 -32.5t-33.5 -18.5q-25 8 -47 33.5t-22 69.5z" />
    <glyph glyph-name="uni02C9" unicode="&#x2c9;" horiz-adv-x="334" 
d="M15 646q2 21 12.5 37.5t21.5 16.5h263q-2 -22 -11.5 -38t-23.5 -16h-262z" />
    <glyph glyph-name="uni02CB" unicode="&#x2cb;" horiz-adv-x="346" 
d="M248 602q-20 9 -46 28t-51.5 42.5t-48.5 48.5t-38 47q22 14 61 14q11 0 17 -2q26 -42 63 -86.5t75 -81.5q-4 -5 -13.5 -7.5t-18.5 -2.5z" />
    <glyph glyph-name="uni02BF" unicode="&#x2bf;" horiz-adv-x="215" 
d="M115 777q1 -2 1 -7q0 -8 -5 -15q-26 0 -40.5 -16t-14.5 -44q0 -29 16 -47t42 -18q1 -2 1 -7q0 -9 -4 -13q-9 -3 -26 -3q-42 0 -64 22.5t-22 56.5q0 42 28.5 67.5t68.5 25.5q6 0 11.5 -0.5t7.5 -1.5z" />
    <glyph glyph-name="uni02BE" unicode="&#x2be;" horiz-adv-x="127" 
d="M1 609q-1 2 -1 4v4q0 8 4 14q26 0 42 16t16 46q0 28 -14.5 45.5t-40.5 17.5q-1 4 -1 9q0 8 3 11q9 3 26 3q42 0 63 -22.5t21 -53.5q0 -44 -29 -70t-71 -26q-12 0 -18 2z" />
    <glyph glyph-name="uni02CA" unicode="&#x2ca;" horiz-adv-x="310" 
d="M287 779q-14 -24 -37.5 -50.5t-50 -51.5t-53 -45t-47.5 -31q-9 0 -17.5 2.5t-12.5 7.5q35 33 69 75.5t61 82.5q23 13 60 13q16 0 28 -3z" />
    <glyph glyph-name="uni02CC" unicode="&#x2cc;" horiz-adv-x="304" 
d="M111 -22q12 8 29 11.5t31 3.5v-194q-9 -7 -27 -10.5t-33 -3.5v193z" />
    <glyph glyph-name="uni02C8" unicode="&#x2c8;" horiz-adv-x="355" 
d="M111 848q12 8 29 11.5t31 3.5v-194q-9 -7 -27.5 -10.5t-32.5 -3.5v193z" />
    <glyph glyph-name="uni0308" unicode="&#x308;" horiz-adv-x="388" 
d="M352 675q-4 -7 -11 -15t-14.5 -15.5t-15.5 -13.5t-15 -10q-15 7 -32.5 23t-28.5 31q12 16 28.5 32t32.5 25q14 -8 30.5 -24.5t25.5 -32.5zM153 675q-4 -7 -11 -15t-14.5 -15.5t-15.5 -13.5t-15 -10q-15 7 -32.5 23t-28.5 31q12 16 28.5 32t32.5 25q14 -8 30.5 -24.5
t25.5 -32.5z" />
    <glyph glyph-name="uni0307" unicode="&#x307;" horiz-adv-x="120" 
d="M123 679q-9 -16 -28 -33.5t-34 -24.5q-15 7 -34 24.5t-29 33.5q10 17 29 35t34 26q15 -8 34.5 -26t27.5 -35z" />
    <glyph glyph-name="uni030B" unicode="&#x30b;" horiz-adv-x="286" 
d="M352 782q-13 -23 -35 -49.5t-47 -52t-50 -46t-43 -31.5q-7 0 -15 2t-12 7q33 35 64.5 77t57.5 84q22 11 58 11q14 0 22 -2zM193 782q-13 -23 -35 -49.5t-47 -52t-50 -46t-43 -31.5q-7 0 -15 2t-12 7q33 35 64.5 77t57.5 84q22 11 58 11q14 0 22 -2z" />
    <glyph glyph-name="uni0302" unicode="&#x302;" horiz-adv-x="361" 
d="M211 784q28 -42 62 -88.5t65 -82.5q-5 -5 -14 -7.5t-17 -2.5q-13 9 -28.5 22t-31.5 27t-31.5 29t-28.5 27q-13 -14 -28.5 -29t-31 -29t-31 -26.5t-28.5 -20.5q-8 0 -17 2.5t-14 7.5q35 38 67.5 78t61.5 82q9 5 21.5 8t23.5 3z" />
    <glyph glyph-name="uni030C" unicode="&#x30c;" horiz-adv-x="381" 
d="M338 779q-33 -37 -65.5 -78t-61.5 -82q-8 -5 -20.5 -8t-21.5 -3q-30 44 -63.5 87t-69.5 84q5 4 13 7t19 3q27 -17 60.5 -47t59.5 -59q27 29 59.5 58t58.5 48q10 0 18.5 -3t13.5 -7z" />
    <glyph glyph-name="uni0306" unicode="&#x306;" horiz-adv-x="349" 
d="M275 772q21 0 33 -12q-2 -30 -11.5 -57.5t-27.5 -48.5t-44 -33t-62 -12q-60 0 -95.5 37t-37.5 99q8 11 24 19.5t34 9.5q3 -54 25 -85t70 -31q43 0 66 30t26 84z" />
    <glyph glyph-name="uni030A" unicode="&#x30a;" horiz-adv-x="215" 
d="M55 699q0 -35 18 -51t38 -16t34 13.5t14 42.5t-14 47.5t-40 18.5q-17 0 -33.5 -13t-16.5 -42zM0 685q0 20 9.5 37t25.5 29.5t37.5 19.5t45.5 7q51 0 74 -23t23 -55q0 -21 -9.5 -38.5t-25 -29.5t-36.5 -18.5t-44 -6.5q-43 0 -71.5 18.5t-28.5 59.5z" />
    <glyph glyph-name="uni0304" unicode="&#x304;" horiz-adv-x="292" 
d="M-5 646q2 21 12.5 37.5t21.5 16.5h263q-2 -22 -11.5 -38t-23.5 -16h-262z" />
    <glyph glyph-name="uni030F" unicode="&#x30f;" horiz-adv-x="483" 
d="M241 777q27 16 55 16h7t7 -1q27 -43 61 -88t74 -90q-8 -8 -27 -10q-20 12 -44 31t-48.5 42.5t-46.5 49.5t-38 50zM74 777q27 16 55 16h7t7 -1q27 -43 61 -88t74 -90q-8 -8 -27 -10q-20 12 -44 31t-48.5 42.5t-46.5 49.5t-38 50z" />
    <glyph glyph-name="uni0311" unicode="&#x311;" horiz-adv-x="353" 
d="M67 610q-11 0 -20.5 5t-14.5 10q4 32 17.5 59t34 47t47.5 31.5t60 11.5q36 0 62 -12.5t42.5 -32t24 -43.5t8.5 -47q-8 -10 -25 -17.5t-35 -9.5q-2 22 -8.5 42.5t-18.5 36t-29.5 25t-41.5 9.5q-42 0 -70 -30.5t-33 -84.5z" />
    <glyph glyph-name="uni0312" unicode="&#x312;" horiz-adv-x="202" 
d="M47 617q0 30 10.5 55t27 44.5t35.5 33.5t36 22q8 -1 15 -6t9 -11q-26 -17 -47 -42t-21 -64q0 -33 16.5 -52t43.5 -32q-7 -18 -22.5 -32.5t-33.5 -18.5q-25 8 -47 33.5t-22 69.5z" />
    <glyph glyph-name="uni031B" unicode="&#x31b;" horiz-adv-x="228" 
d="M21 516q6 -1 10 -1h9q38 0 65.5 17t27.5 49q0 16 -7 28t-18 20q10 13 29 23t40 10q13 -10 21 -25.5t8 -36.5q0 -27 -11 -48.5t-30 -36t-44.5 -22t-54.5 -7.5q-13 0 -25 1t-22 3z" />
    <glyph glyph-name="uni0324" unicode="&#x324;" horiz-adv-x="388" 
d="M158 -115q-8 -14 -24 -29t-29 -21q-14 6 -30 21t-27 29q11 15 27 30.5t30 23.5q13 -8 29 -23.5t24 -30.5zM341 -115q-8 -14 -24 -29t-29 -21q-14 6 -30 21t-27 29q11 15 27 30.5t30 23.5q13 -8 29 -23.5t24 -30.5z" />
    <glyph glyph-name="uni0326" unicode="&#x326;" horiz-adv-x="123" 
d="M116 -168q0 -27 -9.5 -49.5t-23 -39.5t-29 -29t-27.5 -19q-7 0 -14.5 4.5t-9.5 10.5q20 14 36.5 36.5t16.5 52.5q0 24 -11 43.5t-34 33.5q8 17 23 29t33 16q20 -11 34.5 -34t14.5 -55z" />
    <glyph glyph-name="uni0327" unicode="&#x327;" horiz-adv-x="204" 
d="M40 -103q-5 5 -6 13l78 96h44l-63 -74q106 -5 106 -76q0 -47 -39.5 -74.5t-108.5 -27.5q-15 0 -26.5 2.5t-14.5 4.5q-4 5 -5.5 13t-1.5 16q10 -2 21.5 -3t21.5 -1q88 0 88 56q0 26 -18 41.5t-52 15.5q-5 0 -12 -0.5t-12 -1.5z" />
    <glyph glyph-name="uni0328" unicode="&#x328;" horiz-adv-x="245" 
d="M206 1q-21 -7 -42 -16t-38 -21.5t-27.5 -30t-10.5 -40.5q0 -35 21 -52.5t47 -17.5q23 0 38.5 7t26.5 17q8 -4 11 -13q-3 -9 -11 -20.5t-21 -21.5t-30 -16.5t-39 -6.5q-42 0 -73 26t-31 74q0 29 13 52t34.5 41t49.5 31.5t59 23.5z" />
    <glyph glyph-name="uni032E" unicode="&#x32e;" horiz-adv-x="325" 
d="M290 -72q8 0 18 -3.5t15 -8.5q-4 -24 -14 -49t-28.5 -45.5t-46 -33.5t-66.5 -13q-32 0 -56.5 11t-41.5 28.5t-27 40t-11 46.5q9 11 25.5 19t33.5 10q6 -42 30 -73.5t71 -31.5q44 0 67 30t31 73z" />
    <glyph glyph-name="uni0331" unicode="&#x331;" horiz-adv-x="334" 
d="M12 -164q2 21 12.5 37.5t21.5 16.5h269q-3 -23 -12 -38.5t-23 -15.5h-268z" />
    <glyph glyph-name="periodcentered.loclCAT" horiz-adv-x="74" 
d="M104 336q-11 -20 -30.5 -37.5t-36.5 -25.5q-18 8 -37 25.5t-30 37.5q11 19 30.5 37.5t36.5 26.5q20 -8 39 -26.5t28 -37.5z" />
    <glyph glyph-name="periodcentered.loclCAT.case" horiz-adv-x="0" 
d="M-71 376q-11 -20 -30.5 -37.5t-36.5 -25.5q-18 8 -37 25.5t-30 37.5q11 19 30.5 37.5t36.5 26.5q20 -8 39 -26.5t28 -37.5z" />
    <glyph glyph-name="figuredash" unicode="&#x2012;" horiz-adv-x="628" 
d="M48 306q2 21 12 39t24 18h496q-2 -22 -12.5 -39.5t-23.5 -17.5h-496z" />
    <glyph glyph-name="endash" unicode="&#x2013;" horiz-adv-x="483" 
d="M435 319q-2 -20 -11.5 -38.5t-24.5 -18.5h-351q2 22 12.5 39.5t23.5 17.5h351z" />
    <glyph glyph-name="emdash" unicode="&#x2014;" horiz-adv-x="871" 
d="M823 321q-2 -20 -11.5 -38.5t-24.5 -18.5h-739q2 22 12.5 39.5t23.5 17.5h739z" />
    <glyph glyph-name="uni2015" unicode="&#x2015;" horiz-adv-x="871" 
d="M823 341q-2 -20 -11.5 -38.5t-24.5 -18.5h-739q2 22 12.5 39.5t23.5 17.5h739z" />
    <glyph glyph-name="uni2010" unicode="&#x2010;" horiz-adv-x="385" 
d="M48 272q2 21 12 41.5t24 20.5h253q-2 -26 -12 -44t-24 -18h-253z" />
    <glyph glyph-name="quoteleft" unicode="&#x2018;" horiz-adv-x="202" 
d="M47 617q0 30 10.5 55t27 44.5t35.5 33.5t36 22q8 -1 15 -6t9 -11q-26 -17 -47 -42t-21 -64q0 -33 16.5 -52t43.5 -32q-7 -18 -22.5 -32.5t-33.5 -18.5q-25 8 -47 33.5t-22 69.5z" />
    <glyph glyph-name="quoteright" unicode="&#x2019;" horiz-adv-x="201" 
d="M157 672q0 -28 -10.5 -53t-26.5 -45.5t-35 -35t-36 -22.5q-7 0 -14.5 5.5t-9.5 11.5q25 17 46 41.5t21 65.5q0 31 -16 50.5t-43 32.5q7 19 23 34t35 19q26 -10 46 -36t20 -68z" />
    <glyph glyph-name="quotesinglbase" unicode="&#x201a;" horiz-adv-x="201" 
d="M157 -10q0 -28 -10.5 -53t-26.5 -45.5t-35 -35t-36 -22.5q-7 0 -14.5 5.5t-9.5 11.5q25 17 46 41.5t21 65.5q0 31 -16 50.5t-43 32.5q7 19 23 34t35 19q26 -10 46 -36t20 -68z" />
    <glyph glyph-name="quotedblleft" unicode="&#x201c;" horiz-adv-x="383" 
d="M228 617q0 30 10.5 55t27 44.5t35.5 33.5t36 22q8 -1 15 -6t9 -11q-26 -17 -47 -42t-21 -64q0 -33 16.5 -52t43.5 -32q-7 -18 -22.5 -32.5t-33.5 -18.5q-25 8 -47 33.5t-22 69.5zM47 617q0 30 10.5 55t27 44.5t35.5 33.5t36 22q8 -1 15 -6t9 -11q-26 -17 -47 -42t-21 -64
q0 -33 16.5 -52t43.5 -32q-7 -18 -22.5 -32.5t-33.5 -18.5q-25 8 -47 33.5t-22 69.5z" />
    <glyph glyph-name="quotedblright" unicode="&#x201d;" horiz-adv-x="382" 
d="M157 672q0 -28 -10.5 -53t-26.5 -45.5t-35 -35t-36 -22.5q-7 0 -14.5 5.5t-9.5 11.5q25 17 46 41.5t21 65.5q0 31 -16 50.5t-43 32.5q7 19 23 34t35 19q26 -10 46 -36t20 -68zM338 672q0 -28 -10.5 -53t-26.5 -45.5t-35 -35t-36 -22.5q-7 0 -14.5 5.5t-9.5 11.5
q25 17 46 41.5t21 65.5q0 31 -16 50.5t-43 32.5q7 19 23 34t35 19q26 -10 46 -36t20 -68z" />
    <glyph glyph-name="quotedblbase" unicode="&#x201e;" horiz-adv-x="371" 
d="M157 -10q0 -28 -10.5 -53t-26.5 -45.5t-35 -35t-36 -22.5q-7 0 -14.5 5.5t-9.5 11.5q25 17 46 41.5t21 65.5q0 31 -16 50.5t-43 32.5q7 19 23 34t35 19q26 -10 46 -36t20 -68zM327 -10q0 -28 -10.5 -53t-26.5 -45.5t-35 -35t-36 -22.5q-7 0 -14.5 5.5t-9.5 11.5
q25 17 46 41.5t21 65.5q0 31 -16 50.5t-43 32.5q7 19 23 34t35 19q26 -10 46 -36t20 -68z" />
    <glyph glyph-name="dagger" unicode="&#x2020;" horiz-adv-x="565" 
d="M495 418q-19 1 -43 2.5t-50 4t-52.5 4.5t-51.5 4q5 -46 10.5 -104.5t7.5 -111.5q-5 -110 -16 -217t-25 -217h-12q-8 108 -16.5 216t-11.5 217q4 54 12 111.5t14 105.5q-25 -2 -54.5 -4t-59 -3.5t-56.5 -3t-46 -1.5q1 18 8.5 40t18.5 30q17 -1 39.5 -2.5t48 -4t51.5 -4.5
t50 -4q-6 54 -13 111t-9 117q17 9 39.5 13t46.5 4q-1 -28 -4 -59t-6.5 -63.5t-7.5 -64t-8 -59.5q25 1 56 3.5t62 4t58.5 3t46.5 1.5q-1 -18 -9 -39.5t-18 -29.5z" />
    <glyph glyph-name="daggerdbl" unicode="&#x2021;" horiz-adv-x="598" 
d="M512 418q-38 2 -92 6.5t-104 8.5q4 -39 7.5 -78t5.5 -81q-2 -42 -6 -83t-8 -83q25 1 55.5 3l61 4t58 3.5t45.5 1.5q-1 -17 -8.5 -39t-18.5 -30q-37 2 -90.5 7t-102.5 9q5 -59 11 -129.5t9 -133.5q-17 -9 -39.5 -12.5t-42.5 -3.5q1 30 3.5 66t6 73.5t7.5 74t7 65.5
q-25 -2 -55 -4l-60 -4t-57.5 -3.5t-46.5 -1.5q2 18 9.5 40t17.5 30q18 -1 41 -2.5t49 -4t52.5 -4.5t50.5 -4q-5 42 -8.5 82.5t-4.5 82.5q3 41 6 80t8 79q-25 -2 -55 -4t-59.5 -3.5t-56 -3t-45.5 -1.5q1 18 8.5 40t17.5 30q17 -1 40 -2.5t48 -4t51 -4.5t50 -4
q-5 54 -12 110.5t-9 116.5q18 10 40.5 14t45.5 4q-2 -56 -10.5 -122t-15.5 -124q25 2 56 4t61.5 4t58.5 3t46 1q-1 -18 -8.5 -39.5t-18.5 -29.5z" />
    <glyph glyph-name="bullet" unicode="&#x2022;" horiz-adv-x="453" 
d="M333 362q-8 -15 -21 -30.5t-27.5 -29.5t-30 -25t-27.5 -17q-13 6 -28.5 17.5t-30.5 25.5t-28 29.5t-21 29.5q8 14 21 29.5t28 30t30.5 26.5t28.5 18q15 -6 31 -18t30.5 -26.5t26 -30.5t18.5 -29z" />
    <glyph glyph-name="ellipsis" unicode="&#x2026;" horiz-adv-x="736" 
d="M179 41q-11 -20 -30.5 -37.5t-36.5 -25.5q-18 8 -37 25.5t-30 37.5q11 19 30.5 37.5t36.5 26.5q20 -8 39 -26.5t28 -37.5zM435 41q-11 -20 -30.5 -37.5t-36.5 -25.5q-18 8 -37 25.5t-30 37.5q11 19 30.5 37.5t36.5 26.5q20 -8 39 -26.5t28 -37.5zM691 41
q-11 -20 -30.5 -37.5t-36.5 -25.5q-18 8 -37 25.5t-30 37.5q11 19 30.5 37.5t36.5 26.5q20 -8 39 -26.5t28 -37.5z" />
    <glyph glyph-name="perthousand" unicode="&#x2030;" horiz-adv-x="1308" 
d="M656 721q14 -2 26.5 -10.5t17.5 -18.5l-488 -699q-14 1 -26.5 10t-17.5 19zM550 169q0 -33 8.5 -59.5t23 -44.5t34 -28t41.5 -10q44 0 67.5 29.5t23.5 90.5q0 30 -7 55.5t-20 44.5t-32 30t-44 11q-37 0 -66 -29t-29 -90zM478 145q0 38 15 70.5t40.5 56.5t59 38t70.5 14
q39 0 68.5 -12.5t49 -33.5t29.5 -48.5t10 -57.5q0 -39 -13.5 -72.5t-37.5 -57.5t-57 -37.5t-73 -13.5q-38 0 -67.5 12t-50.5 32.5t-32 48.5t-11 61zM986 169q0 -33 8.5 -59.5t23 -44.5t33.5 -28t41 -10q44 0 68 29.5t24 90.5q0 30 -7 55.5t-20 44.5t-32.5 30t-44.5 11
q-18 0 -35 -7t-30 -21.5t-21 -37t-8 -53.5zM914 145q0 38 15 70.5t40.5 56.5t59 38t70.5 14q39 0 68 -12.5t49 -33.5t30 -48.5t10 -57.5q0 -39 -13.5 -72.5t-37.5 -57.5t-57.5 -37.5t-73.5 -13.5q-38 0 -67.5 12t-50 32.5t-31.5 48.5t-11 61zM126 576q0 -33 8.5 -59.5
t23 -45t34 -28.5t41.5 -10q43 0 67 29.5t24 91.5q0 30 -7 55.5t-20 44t-32 29.5t-44 11q-18 0 -35.5 -7t-30.5 -21.5t-21 -37t-8 -52.5zM54 551q0 38 15 71t40.5 57t59 37.5t70.5 13.5q39 0 68.5 -12.5t49 -33.5t29.5 -48.5t10 -57.5q0 -39 -13.5 -72.5t-37.5 -57.5
t-57.5 -37.5t-73.5 -13.5q-37 0 -66.5 12t-50.5 32.5t-32 48.5t-11 61z" />
    <glyph glyph-name="guilsinglleft" unicode="&#x2039;" horiz-adv-x="334" 
d="M268 402q-18 -13 -39.5 -28.5t-44 -32t-44.5 -33.5t-41 -33q15 -20 40 -46t52.5 -52.5t54 -49.5t43.5 -36q-5 -14 -18.5 -28.5t-28.5 -20.5q-18 12 -48 38.5t-60.5 56.5t-57 58.5t-36.5 46.5q0 10 3 18q12 18 42 48t66 62t72 61.5t59 45.5q1 -4 1 -14q0 -16 -4 -33
t-11 -28z" />
    <glyph glyph-name="guilsinglright" unicode="&#x203a;" horiz-adv-x="334" 
d="M66 116q18 12 39 27.5t43.5 32t44.5 34t42 33.5q-15 20 -40.5 46t-53 52.5t-53.5 49t-43 36.5q5 14 18.5 28.5t28.5 20.5q18 -12 48 -38.5t60.5 -56.5t56.5 -58.5t37 -46.5q0 -11 -3 -18q-12 -18 -42 -48t-66 -62t-72 -61.5t-59 -45.5q-1 5 -1 15q0 16 4 32.5t11 27.5z
" />
    <glyph glyph-name="fraction" unicode="&#x2044;" horiz-adv-x="109" 
d="M-138 -3q-14 -7 -38 -7q-15 0 -24 3l448 723q15 8 37 8q15 0 24 -3z" />
    <glyph glyph-name="trademark" unicode="&#x2122;" horiz-adv-x="756" 
d="M519 475q-8 -5 -21 -8.5t-24 -3.5l-83 197q-5 -53 -9 -112.5t-6 -113.5q-10 -7 -24 -9t-24 -2q9 68 20 143t21 142q9 6 23.5 9.5t26.5 3.5l84 -208q22 54 41.5 100.5t42.5 97.5q19 10 49 10l36 -288q-8 -5 -23 -7.5t-28 -2.5l-28 233q-19 -46 -36.5 -89t-37.5 -92z
M316 721q-2 -26 -13 -37q-19 1 -43 4.5t-51 6.5v-260q-8 -7 -23.5 -9.5t-28.5 -2.5v272q-27 -3 -55.5 -6t-49.5 -5q0 8 3 20t9 17h252z" />
    <glyph glyph-name="estimated" unicode="&#x212e;" horiz-adv-x="799" 
d="M176 306q-6 0 -6 -4v-177q0 -8 10 -20q41 -45 97.5 -70.5t122.5 -25.5q71 0 130.5 28.5t102.5 78.5h53q-50 -58 -124 -92t-163 -34q-74 0 -140 25.5t-115 69.5t-77.5 103t-28.5 126q0 68 28.5 127.5t77.5 103.5t115 69.5t140 25.5q75 0 140.5 -25.5t115 -69.5t78 -103.5
t28.5 -127.5v-8h-585zM629 507q0 12 -10 22q-42 42 -98 66.5t-121 24.5q-66 0 -121.5 -25.5t-98.5 -68.5q-10 -12 -10 -23v-173q0 -5 6 -5h448q5 0 5 5v177z" />
    <glyph glyph-name="pi" unicode="&#x3c0;" horiz-adv-x="584" 
d="M517 32q-3 -6 -11 -12.5t-18 -12.5t-20 -10t-19 -4q-35 5 -59.5 33t-24.5 83v371h-153v-469q-14 -10 -36.5 -14t-42.5 -4v487h-97q5 19 14 30.5t22 11.5h477q-3 -17 -12.5 -29.5t-23.5 -12.5h-69v-345q0 -26 6 -43t15.5 -28.5t22.5 -17.5t28 -10z" />
    <glyph glyph-name="partialdiff" unicode="&#x2202;" horiz-adv-x="602" 
d="M179 631q-7 5 -10 14t-3 17q8 9 23 21t36.5 22.5t48.5 18t60 7.5q91 0 143.5 -65.5t52.5 -199.5q0 -108 -27 -197.5t-72 -154t-102 -100t-117 -35.5q-72 0 -116 42.5t-44 128.5q0 65 25.5 124t67 103.5t94 71t106.5 26.5q37 0 63 -11t43 -29q0 66 -10.5 113.5t-30.5 77.5
t-48 44t-63 14q-37 0 -67 -15.5t-53 -37.5zM249 40q31 0 61 18t56.5 52.5t46 85.5t29.5 118q-13 45 -46.5 75t-88.5 30q-33 0 -65 -16.5t-56.5 -47t-40 -73t-15.5 -93.5q0 -80 31.5 -114.5t87.5 -34.5z" />
    <glyph glyph-name="product" unicode="&#x220f;" horiz-adv-x="664" 
d="M649 721q-2 -21 -12 -34t-24 -13h-72v-664q-11 -8 -30.5 -12.5t-41.5 -4.5v681h-274v-664q-11 -8 -31 -12.5t-41 -4.5v681h-105q2 21 12 34t24 13h595z" />
    <glyph glyph-name="summation" unicode="&#x2211;" horiz-adv-x="593" 
d="M558 721q-2 -21 -12 -36t-24 -15h-370l253 -288q0 -12 -3 -22l-281 -312h438q-2 -26 -14 -40.5t-26 -14.5h-471q-5 3 -9.5 10t-6.5 14l300 330l-277 323q5 15 16 30.5t20 20.5h467z" />
    <glyph glyph-name="minus" unicode="&#x2212;" horiz-adv-x="569" 
d="M48 306q3 26 14.5 41.5t25.5 15.5h433q-2 -29 -13.5 -43t-26.5 -14h-433z" />
    <glyph glyph-name="radical" unicode="&#x221a;" horiz-adv-x="641" 
d="M361 81l228 794q29 0 47 -11l-250 -852q-10 -10 -29.5 -14.5t-37.5 -4.5l-171 479h-115q1 20 9 35t19 15h143z" />
    <glyph glyph-name="infinity" unicode="&#x221e;" horiz-adv-x="906" 
d="M647 177q-34 0 -61.5 8t-52 23.5t-46.5 39.5t-46 56q-17 -26 -39 -49.5t-49 -41t-60 -28t-73 -10.5q-39 0 -72.5 12.5t-58 35t-38.5 54.5t-14 70q0 45 19.5 82t50.5 63.5t69 41t76 14.5q40 0 69.5 -9t53.5 -26.5t45 -42.5t44 -58q19 27 41 51.5t50 44t62 31t76 11.5
q47 0 80.5 -14.5t55.5 -38t32 -53t10 -59.5q0 -44 -17.5 -82t-48 -66t-71.5 -44t-87 -16zM658 495q-27 0 -50.5 -9.5t-44.5 -26t-39.5 -37.5t-34.5 -45l5 -7q28 -40 50.5 -68t43.5 -45.5t42 -25.5t46 -8q56 0 87 32t31 95q0 30 -8.5 56.5t-26 46t-43 31t-58.5 11.5zM253 234
q48 0 88.5 27.5t74.5 76.5l-25 37q-22 32 -41 56t-38 40t-39 24t-44 8q-23 0 -44 -8t-36.5 -23.5t-25 -39t-9.5 -54.5q0 -66 37.5 -105t101.5 -39z" />
    <glyph glyph-name="integral" unicode="&#x222b;" horiz-adv-x="401" 
d="M207 -51q0 54 -10 125.5t-22 148.5l-38 233q-7 43 -12 80.5t-5 68.5q0 59 16.5 105t43.5 78t61.5 48.5t70.5 16.5q27 0 47 -7.5t33.5 -19t20 -25t8.5 -25.5q-8 -14 -24.5 -25.5t-35.5 -14.5q-6 24 -23.5 43.5t-52.5 19.5q-20 0 -38 -6.5t-31.5 -21t-22 -37.5t-8.5 -55
q0 -37 4 -76.5t12 -85.5l42 -256q11 -71 19.5 -132.5t8.5 -105.5q0 -63 -15.5 -109.5t-41.5 -77.5t-60 -46.5t-72 -15.5q-27 0 -47.5 7.5t-34 18.5t-21.5 25t-9 26q8 16 24.5 27.5t36.5 14.5q6 -27 25 -46t54 -19q20 0 38 6.5t31 20.5t20.5 37.5t7.5 56.5z" />
    <glyph glyph-name="approxequal" unicode="&#x2248;" horiz-adv-x="608" 
d="M533 304q9 -1 16 -5.5t11 -10.5q-6 -14 -18 -31.5t-30.5 -32.5t-43.5 -25.5t-58 -10.5q-23 0 -46.5 5t-56.5 20l-63 29q-25 11 -44 18t-39 7q-29 0 -50.5 -15t-37.5 -34q-8 1 -15.5 6.5t-9.5 11.5q25 40 63 67t83 27q24 0 45.5 -6.5t43.5 -17.5l57 -27q39 -19 60 -23.5
t42 -4.5q35 0 55.5 14t35.5 39zM533 510q9 -1 16 -5.5t11 -10.5q-6 -14 -18 -31.5t-30.5 -32.5t-43.5 -25.5t-58 -10.5q-23 0 -46.5 5t-56.5 20l-63 29q-25 11 -44 18t-39 7q-29 0 -50.5 -15t-37.5 -34q-8 1 -15.5 6.5t-9.5 11.5q25 40 63 67t83 27q24 0 45.5 -6.5
t43.5 -17.5l57 -27q39 -19 60 -23.5t42 -4.5q35 0 55.5 14t35.5 39z" />
    <glyph glyph-name="notequal" unicode="&#x2260;" horiz-adv-x="519" 
d="M242 208l-71 -174q-7 -3 -17 -4.5t-21 -1.5q-13 0 -18 1l73 179h-140q2 21 12 39t24 18h127l57 141h-209q2 20 11.5 38t24.5 18h196l57 139q7 4 16.5 5.5t20.5 1.5h9.5t9.5 -1l-59 -145h126q-2 -22 -12.5 -39t-23.5 -17h-113l-57 -141h195q-2 -22 -12 -39.5t-24 -17.5
h-182z" />
    <glyph glyph-name="lessequal" unicode="&#x2264;" horiz-adv-x="512" 
d="M448 564q-78 -33 -164 -69t-163 -73q36 -25 78.5 -51.5t87.5 -52.5t91 -50t89 -44q-3 -19 -16 -36t-26 -25q-43 21 -92.5 47.5t-98.5 55.5t-95 59t-83 58q2 14 5.5 27t10.5 24q20 13 50 30.5t66 37.5t74.5 41t75 39.5t69 34t56.5 25.5q2 -8 2 -15q0 -17 -4.5 -36
t-12.5 -27zM48 -7q2 21 12 38.5t24 17.5h380q-2 -21 -12 -38.5t-24 -17.5h-380z" />
    <glyph glyph-name="greaterequal" unicode="&#x2265;" horiz-adv-x="516" 
d="M77 240q78 33 163 68.5t163 73.5q-37 25 -79 50.5t-87 51t-91 49t-89 43.5q4 19 16 37.5t27 26.5q43 -20 92.5 -46.5t98.5 -56t95 -59.5t82 -58q-2 -13 -5.5 -26t-9.5 -24q-20 -13 -50.5 -30.5t-66 -37.5t-74 -41t-75.5 -40t-69.5 -35t-55.5 -25q-2 8 -2 16q0 17 5 35.5
t12 27.5zM45 -7q2 21 12 38.5t24 17.5h380q-2 -21 -12 -38.5t-24 -17.5h-380z" />
    <glyph glyph-name="lozenge" unicode="&#x25ca;" horiz-adv-x="641" 
d="M43 338q0 6 2 12l270 363q8 4 17 6.5t18 2.5l248 -355q0 -10 -2 -16l-264 -353q-4 -3 -14 -6t-18 -3zM333 59l202 274l-222 316l-207 -277z" />
    <glyph glyph-name="Oslashacute" unicode="&#x1fe;" horiz-adv-x="808" 
d="M68 347q0 85 29.5 155.5t79 121.5t115 79t138.5 28q55 0 100.5 -13.5t82.5 -38.5l45 67q11 -2 19.5 -7.5t12.5 -12.5l-47 -69q55 -48 83 -120.5t28 -159.5q0 -83 -24 -155t-70 -125t-112.5 -84t-150.5 -31q-95 0 -172 49l-56 -84q-8 1 -18.5 7.5t-14.5 13.5l57 85
q-57 48 -91 122t-34 172zM157 379q0 -86 21.5 -151t58.5 -110l334 498q-33 32 -76 50t-94 18q-48 0 -92.5 -18t-78 -55.5t-53.5 -95t-20 -136.5zM665 345q0 75 -18 135.5t-51 105.5l-332 -497q33 -30 73.5 -45t85.5 -15q115 0 178.5 79t63.5 237zM550 955q-17 -23 -43.5 -47
t-55 -45t-57 -37.5t-50.5 -24.5q-7 0 -15 3t-10 7q17 15 35.5 32t36.5 35t34.5 36t29.5 34q10 6 26.5 8.5t33.5 2.5q11 0 20 -1t15 -3z" />
    <glyph glyph-name="oslashacute" unicode="&#x1ff;" horiz-adv-x="628" 
d="M56 248q0 61 22 113.5t59.5 90t88 59t107.5 21.5q70 0 121 -28l34 51q11 -2 19 -7.5t13 -12.5l-34 -51q45 -36 66.5 -91t21.5 -119q0 -61 -19 -114t-54.5 -92.5t-86.5 -62.5t-116 -23q-68 0 -124 34l-39 -59q-9 2 -19 8t-14 13l40 61q-39 34 -62.5 86.5t-23.5 122.5z
M490 242q0 53 -12.5 98t-35.5 78l-230 -345q24 -23 53 -34.5t61 -11.5q80 0 122 53.5t42 161.5zM140 279q0 -57 12 -100.5t34 -74.5l230 343q-22 20 -49.5 30.5t-59.5 10.5t-62 -12t-53 -37.5t-37.5 -65t-14.5 -94.5zM457 779q-14 -24 -37.5 -50.5t-50 -51.5t-53 -45
t-47.5 -31q-9 0 -17.5 2.5t-12.5 7.5q35 33 69 75.5t61 82.5q23 13 60 13q16 0 28 -3z" />
    <glyph glyph-name="Obreve" unicode="&#x14e;" horiz-adv-x="820" 
d="M157 379q0 -85 21.5 -150t57.5 -109.5t84.5 -67.5t102.5 -23q115 0 178.5 79t63.5 237q0 77 -19 139.5t-53.5 107t-83 68.5t-108.5 24q-48 0 -92.5 -18t-78 -55.5t-53.5 -95t-20 -136.5zM68 347q0 85 29.5 155.5t79 121.5t115 79t138.5 28q79 0 139.5 -27t101.5 -75
t62 -112.5t21 -139.5q0 -83 -24 -155t-70 -125t-112.5 -84t-150.5 -31q-67 0 -126.5 25t-104.5 72.5t-71.5 115t-26.5 152.5zM524 965q21 0 33 -12q-2 -30 -11.5 -57.5t-27.5 -48.5t-44 -33t-62 -12q-60 0 -95.5 37t-37.5 99q8 11 24 19.5t34 9.5q3 -54 25 -85t70 -31
q43 0 66 30t26 84z" />
    <glyph glyph-name="obreve" unicode="&#x14f;" horiz-adv-x="628" 
d="M140 279q0 -63 15.5 -110t41 -78.5t59 -47.5t70.5 -16q80 0 122 53.5t42 161.5q0 52 -12 97t-35.5 78t-57.5 52t-78 19q-32 0 -62 -12t-53 -37.5t-37.5 -65t-14.5 -94.5zM56 248q0 61 22 113.5t59.5 90t88 59t107.5 21.5q62 0 107.5 -21t75 -56t44 -82t14.5 -99
q0 -61 -19 -114t-54.5 -92.5t-86.5 -62.5t-116 -23q-48 0 -92 18t-77.5 52t-53 83.5t-19.5 112.5zM427 772q21 0 33 -12q-2 -30 -11.5 -57.5t-27.5 -48.5t-44 -33t-62 -12q-60 0 -95.5 37t-37.5 99q8 11 24 19.5t34 9.5q3 -54 25 -85t70 -31q43 0 66 30t26 84z" />
    <glyph glyph-name="AEacute" unicode="&#x1fc;" horiz-adv-x="1037" 
d="M765 955q-17 -23 -43.5 -47t-55 -45t-57 -37.5t-50.5 -24.5q-7 0 -15 3t-10 7q17 15 35.5 32t36.5 35t34.5 36t29.5 34q10 6 26.5 8.5t33.5 2.5q11 0 20 -1t15 -3zM524 639q-66 -90 -131 -188t-125 -198h256v386zM606 37q88 2 183 6.5t201 11.5q-3 -24 -12 -39.5
t-20 -22.5h-434v212h-285q-32 -53 -61 -104t-56 -100q-11 -5 -29 -7.5t-35 -2.5q-9 0 -16.5 0.5t-13.5 1.5q31 50 70 109t82 122t88.5 127.5t90 126t86.5 117.5t79 102q16 9 37.5 13.5t44.5 5.5q29 1 77.5 1.5t103 1.5t107 1.5t88.5 0.5q-2 -19 -11 -35.5t-22 -24.5
q-35 1 -78 2t-89 2.5t-91.5 3.5t-84.5 4v-294l317 6q-2 -18 -10 -33t-18 -17q-73 1 -145 1.5t-144 2.5v-302z" />
    <glyph glyph-name="aeacute" unicode="&#x1fd;" horiz-adv-x="906" 
d="M173 378q-9 -12 -28.5 -22t-41.5 -12q-6 5 -12.5 15.5t-6.5 26.5q0 31 18 58t47.5 46.5t68.5 30.5t81 11q69 0 112 -26t60 -73q35 45 83.5 72t107.5 27q56 0 93 -19t58.5 -48.5t30 -66t8.5 -70.5q-5 -8 -20 -19.5t-31 -15.5l-312 -35q2 -56 17.5 -96.5t41.5 -67
t60.5 -39.5t73.5 -13q48 0 83 13t66 41q14 -3 19 -19q-7 -11 -22.5 -27t-40.5 -31t-61 -25.5t-83 -10.5q-64 0 -115 27t-82 81q-13 -20 -31.5 -39t-44.5 -34t-60 -24t-76 -9q-78 0 -123.5 36.5t-45.5 96.5q0 61 47 104.5t157 58.5l140 19v45q0 66 -36.5 106t-108.5 40
q-20 0 -39 -5.5t-33 -16t-22.5 -25.5t-8.5 -35q0 -11 3.5 -18.5t8.5 -12.5zM253 243q-55 -8 -80.5 -33t-25.5 -68q0 -54 35 -81.5t89 -27.5q61 0 99.5 39t38.5 113v80zM635 487q-61 0 -102.5 -46.5t-45.5 -145.5l279 30q1 4 1.5 7.5t0.5 8.5q0 30 -8 56.5t-24 46.5
t-41.5 31.5t-59.5 11.5zM627 779q-14 -24 -37.5 -50.5t-50 -51.5t-53 -45t-47.5 -31q-9 0 -17.5 2.5t-12.5 7.5q35 33 69 75.5t61 82.5q23 13 60 13q16 0 28 -3z" />
    <glyph glyph-name="Tbar" unicode="&#x166;" horiz-adv-x="630" 
d="M610 719q-2 -20 -10.5 -38t-18.5 -26q-45 4 -106 10.5t-117 11.5v-266h159q-2 -19 -12 -32t-22 -13h-125v-357q-16 -9 -37.5 -12.5t-44.5 -3.5v373h-152q2 19 13 32t22 13h117v266l-65 -6.5t-69 -6.5t-64.5 -5.5t-51.5 -3.5q2 22 9.5 38.5t18.5 25.5h556z" />
    <glyph glyph-name="tbar" unicode="&#x167;" horiz-adv-x="427" 
d="M22 481q8 11 25.5 20.5t38.5 9.5h32v144q16 13 37.5 19.5t41.5 6.5v-170h196q-1 -17 -9.5 -28.5t-21.5 -11.5h-165v-150h193q-2 -19 -12 -32t-22 -13h-159v-133q0 -32 7.5 -51.5t20.5 -30.5t30 -15t35 -4q33 0 55 13t36 27q14 -4 18 -17q-5 -8 -16 -21t-29 -25.5
t-43 -21.5t-56 -9q-28 0 -53 7t-43.5 23t-29.5 43t-11 67v148h-96q2 19 13 32t22 13h61v150h-96v10z" />
    <glyph glyph-name="Eng" unicode="&#x14a;" horiz-adv-x="773" 
d="M660 3q0 -53 -16.5 -97t-45 -75.5t-67 -49t-82.5 -17.5q-41 0 -68 13t-38 28q2 17 15 36t32 28q14 -18 36 -31.5t52 -13.5q19 0 41.5 5t42 19.5t32.5 40.5t13 68v55l-450 618q1 -78 2.5 -154l3 -152t4 -153.5t6.5 -159.5q-11 -8 -33 -13t-42 -5q2 87 4 169.5t4 168t4 177
t5 195.5q17 8 38.5 13t42.5 5l419 -580q-2 148 -4.5 291t-7.5 270q17 10 37.5 14.5t37.5 4.5q-5 -160 -9 -342t-9 -376z" />
    <glyph glyph-name="eng" unicode="&#x14b;" horiz-adv-x="634" 
d="M92 505q33 17 74 17v-99q13 17 33.5 36.5t46 35.5t56 26.5t65.5 10.5q81 0 128.5 -49t47.5 -140v-352q0 -59 -19.5 -105t-50.5 -78t-69 -49t-74 -17q-52 0 -78.5 20.5t-34.5 41.5q5 15 21 29.5t35 19.5q9 -21 30.5 -38.5t57.5 -17.5q21 0 40 7t33 23t22 42t8 64v379
q0 85 -35 124.5t-99 39.5q-23 0 -45.5 -8.5t-43 -22.5t-38.5 -32.5t-32 -38.5v-366q-14 -8 -36.5 -11.5t-42.5 -3.5v512z" />
    <glyph glyph-name="Ibreve" unicode="&#x12c;" horiz-adv-x="304" 
d="M193 9q-16 -9 -37.5 -12.5t-44.5 -3.5v710q34 18 82 18v-712zM264 967q21 0 33 -12q-2 -30 -11.5 -57.5t-27.5 -48.5t-44 -33t-62 -12q-60 0 -95.5 37t-37.5 99q8 11 24 19.5t34 9.5q3 -54 25 -85t70 -31q43 0 66 30t26 84z" />
    <glyph glyph-name="ibreve" unicode="&#x12d;" horiz-adv-x="271" 
d="M96 505q17 9 37.5 13t41.5 4v-514q-14 -8 -36.5 -11.5t-42.5 -3.5v512zM250 772q21 0 33 -12q-2 -30 -11.5 -57.5t-27.5 -48.5t-44 -33t-62 -12q-60 0 -95.5 37t-37.5 99q8 11 24 19.5t34 9.5q3 -54 25 -85t70 -31q43 0 66 30t26 84z" />
    <glyph glyph-name="IJ" unicode="&#x132;" horiz-adv-x="581" 
d="M193 9q-16 -9 -37.5 -12.5t-44.5 -3.5v710q34 18 82 18v-712zM471 5q0 -54 -16 -98t-44.5 -76t-67 -49.5t-83.5 -17.5q-41 0 -68 13t-38 28q2 17 15 36t32 28q14 -18 36 -31.5t52 -13.5q19 0 37 5t32 19.5t22.5 40.5t8.5 68v746q34 18 82 18v-716z" />
    <glyph glyph-name="ij" unicode="&#x133;" horiz-adv-x="527" 
d="M199 679q-9 -16 -28 -33.5t-34 -24.5q-15 7 -34 24.5t-29 33.5q10 17 29 35t34 26q15 -8 34.5 -26t27.5 -35zM95 505q17 9 37.5 13t41.5 4v-514q-14 -8 -36.5 -11.5t-42.5 -3.5v512zM220 -258q-52 0 -78.5 20.5t-34.5 41.5q5 15 21 29.5t35 19.5q9 -21 30.5 -38.5
t57.5 -17.5q21 0 40 7t33 23t22 42t8 64v572q17 9 37.5 13t41.5 4v-531q0 -59 -19.5 -105t-50.5 -78t-69 -49t-74 -17zM455 679q-9 -16 -28 -33.5t-34 -24.5q-15 7 -34 24.5t-29 33.5q10 17 29 35t34 26q15 -8 34.5 -26t27.5 -35z" />
    <glyph glyph-name="Iacute_J.loclNLD" horiz-adv-x="581" 
d="M339 955q-17 -23 -43.5 -47t-55 -45t-57 -37.5t-50.5 -24.5q-7 0 -15 3t-10 7q17 15 35.5 32t36.5 35t34.5 36t29.5 34q10 6 26.5 8.5t33.5 2.5q11 0 20 -1t15 -3zM620 955q-17 -23 -43.5 -47t-55 -45t-57 -37.5t-50.5 -24.5q-7 0 -15 3t-10 7q17 15 35.5 32t36.5 35
t34.5 36t29.5 34q10 6 26.5 8.5t33.5 2.5q11 0 20 -1t15 -3zM193 9q-16 -9 -37.5 -12.5t-44.5 -3.5v710q34 18 82 18v-712zM471 5q0 -54 -16 -98t-44.5 -76t-67 -49.5t-83.5 -17.5q-41 0 -68 13t-38 28q2 17 15 36t32 28q14 -18 36 -31.5t52 -13.5q19 0 37 5t32 19.5
t22.5 40.5t8.5 68v746q34 18 82 18v-716z" />
    <glyph glyph-name="iacute_j.loclNLD" horiz-adv-x="527" 
d="M220 -258q-52 0 -78.5 20.5t-34.5 41.5q5 15 21 29.5t35 19.5q9 -21 30.5 -38.5t57.5 -17.5q21 0 40 7t33 23t22 42t8 64v572q17 9 37.5 13t41.5 4v-531q0 -59 -19.5 -105t-50.5 -78t-69 -49t-74 -17zM95 505q17 9 37.5 13t41.5 4v-514q-14 -8 -36.5 -11.5t-42.5 -3.5
v512zM312 779q-14 -24 -37.5 -50.5t-50 -51.5t-53 -45t-47.5 -31q-9 0 -17.5 2.5t-12.5 7.5q35 33 69 75.5t61 82.5q23 13 60 13q16 0 28 -3zM573 779q-14 -24 -37.5 -50.5t-50 -51.5t-53 -45t-47.5 -31q-9 0 -17.5 2.5t-12.5 7.5q35 33 69 75.5t61 82.5q23 13 60 13
q16 0 28 -3z" />
    <glyph glyph-name="uni1EAE" unicode="&#x1eae;" horiz-adv-x="679" 
d="M22 -7q33 84 70 179.5t74.5 190t73 183t63.5 159.5q17 8 37 12t40 4l265 -717q-9 -5 -25 -8.5t-38 -3.5h-9.5t-9.5 1l-78 212h-320q-35 -107 -62 -204q-9 -5 -23.5 -7.5t-29.5 -2.5q-9 0 -16 0.5t-12 1.5zM324 647q-35 -91 -71.5 -191.5t-71.5 -202.5h287zM452 951
q21 0 33 -12q-3 -25 -14 -49.5t-29.5 -43.5t-46 -30.5t-63.5 -11.5q-29 0 -53 9.5t-41.5 25.5t-28 38t-11.5 47q9 11 25.5 19.5t33.5 9.5q5 -45 29.5 -72t69.5 -27q43 0 66 26.5t30 70.5zM478 1097q-10 -21 -25.5 -44.5t-33 -45.5t-35.5 -41.5t-33 -31.5q-7 0 -14 2.5
t-11 5.5q22 32 41.5 70t36.5 78q10 5 22.5 7.5t26.5 2.5t25 -3z" />
    <glyph glyph-name="uni1EB6" unicode="&#x1eb6;" horiz-adv-x="679" 
d="M22 -7q33 84 70 179.5t74.5 190t73 183t63.5 159.5q17 8 37 12t40 4l265 -717q-9 -5 -25 -8.5t-38 -3.5h-9.5t-9.5 1l-78 212h-320q-35 -107 -62 -204q-9 -5 -23.5 -7.5t-29.5 -2.5q-9 0 -16 0.5t-12 1.5zM324 647q-35 -91 -71.5 -191.5t-71.5 -202.5h287zM450 967
q21 0 33 -12q-2 -30 -11.5 -57.5t-27.5 -48.5t-44 -33t-62 -12q-60 0 -95.5 37t-37.5 99q8 11 24 19.5t34 9.5q3 -54 25 -85t70 -31q43 0 66 30t26 84zM386 -124q-9 -15 -27.5 -32t-32.5 -25q-16 7 -34.5 24t-29.5 33q12 17 29.5 34t34.5 26q16 -9 33 -26t27 -34z" />
    <glyph glyph-name="uni1EB0" unicode="&#x1eb0;" horiz-adv-x="679" 
d="M22 -7q33 84 70 179.5t74.5 190t73 183t63.5 159.5q17 8 37 12t40 4l265 -717q-9 -5 -25 -8.5t-38 -3.5h-9.5t-9.5 1l-78 212h-320q-35 -107 -62 -204q-9 -5 -23.5 -7.5t-29.5 -2.5q-9 0 -16 0.5t-12 1.5zM324 647q-35 -91 -71.5 -191.5t-71.5 -202.5h287zM453 951
q21 0 33 -12q-3 -25 -14 -49.5t-29.5 -43.5t-46 -30.5t-63.5 -11.5q-29 0 -53 9.5t-41.5 25.5t-28 38t-11.5 47q9 11 25.5 19.5t33.5 9.5q5 -45 29.5 -72t69.5 -27q43 0 66 26.5t30 70.5zM319 1089q7 -17 16 -37t19.5 -41t21.5 -41.5t22 -37.5q-4 -3 -11 -5.5t-15 -2.5
q-14 11 -31.5 30.5t-34 41t-31 43.5t-22.5 38q22 13 53 13q9 0 13 -1z" />
    <glyph glyph-name="uni1EB2" unicode="&#x1eb2;" horiz-adv-x="679" 
d="M22 -7q33 84 70 179.5t74.5 190t73 183t63.5 159.5q17 8 37 12t40 4l265 -717q-9 -5 -25 -8.5t-38 -3.5h-9.5t-9.5 1l-78 212h-320q-35 -107 -62 -204q-9 -5 -23.5 -7.5t-29.5 -2.5q-9 0 -16 0.5t-12 1.5zM324 647q-35 -91 -71.5 -191.5t-71.5 -202.5h287zM452 951
q21 0 33 -12q-3 -25 -14 -49.5t-29.5 -43.5t-46 -30.5t-63.5 -11.5q-29 0 -53 9.5t-41.5 25.5t-28 38t-11.5 47q9 11 25.5 19.5t33.5 9.5q5 -45 29.5 -72t69.5 -27q43 0 66 26.5t30 70.5zM323 1034q-5 -8 -19.5 -14.5t-25.5 -6.5q-7 7 -9 15.5t-2 13.5q0 31 27 52.5t69 21.5
q38 0 61.5 -20t23.5 -51q0 -22 -12 -37.5t-26.5 -27t-26.5 -20.5t-12 -19q0 -13 6 -19q-5 -5 -15.5 -8.5t-18.5 -3.5q-5 4 -8.5 11t-3.5 15q0 16 10 27t22 22t22 25t10 35t-11.5 33t-30.5 12q-17 0 -27.5 -10.5t-10.5 -24.5q0 -5 1.5 -10t6.5 -11z" />
    <glyph glyph-name="uni1EB4" unicode="&#x1eb4;" horiz-adv-x="679" 
d="M22 -7q33 84 70 179.5t74.5 190t73 183t63.5 159.5q17 8 37 12t40 4l265 -717q-9 -5 -25 -8.5t-38 -3.5h-9.5t-9.5 1l-78 212h-320q-35 -107 -62 -204q-9 -5 -23.5 -7.5t-29.5 -2.5q-9 0 -16 0.5t-12 1.5zM324 647q-35 -91 -71.5 -191.5t-71.5 -202.5h287zM453 951
q21 0 33 -12q-3 -25 -14 -49.5t-29.5 -43.5t-46 -30.5t-63.5 -11.5q-29 0 -53 9.5t-41.5 25.5t-28 38t-11.5 47q9 11 25.5 19.5t33.5 9.5q5 -45 29.5 -72t69.5 -27q43 0 66 26.5t30 70.5zM479 1107q6 0 12.5 -3t9.5 -7q-19 -94 -81 -94q-13 0 -25 3t-32 11l-70 27
q-8 3 -14.5 5t-14.5 2q-33 0 -49 -50q-6 1 -12 4t-8 8q13 43 33.5 66t51.5 23q10 0 18 -2t20 -7l67 -25q17 -6 27.5 -9t20.5 -3q20 0 30.5 15.5t15.5 35.5z" />
    </font>
</defs>
</svg>
